<svg width="336" height="44" viewBox="0 0 336 44" fill="none" xmlns="http://www.w3.org/2000/svg">
<path fill-rule="evenodd" clip-rule="evenodd" d="M30.9406 6.23438V16.7818L38.4647 9.25781L46.4515 17.2446L38.4907 25.2053H49.7655V36.5004H25.2929C25.2684 36.5004 25.2439 36.5002 25.2195 36.4999H0.820312V25.2049H11.8018L4.13205 17.5352L12.1189 9.54837L19.6456 17.0751V6.23438H30.9406Z" fill="url(#paint0_radial_16990_26648)"/>
<circle cx="25.5055" cy="30.7634" r="2.89616" fill="white"/>
<circle cx="25.438" cy="30.7114" r="4.12703" stroke="white" stroke-width="0.434425"/>
<path d="M69.1016 34.3416C66.3366 34.3416 64.0616 33.6066 62.3116 32.0666C60.5266 30.5616 59.6516 28.5316 59.6516 25.9416V9.35156H65.2516V25.4516C65.2516 27.7616 66.5116 28.8816 69.1016 28.8816C71.6566 28.8816 72.9516 27.7616 72.9516 25.4516V9.35156H78.5516V25.9416C78.5516 28.5316 77.6416 30.5616 75.8916 32.0666C74.1066 33.6066 71.8316 34.3416 69.1016 34.3416ZM93.7202 16.3516H98.9702V33.8516H93.7202V32.2066C92.6702 33.6416 90.9902 34.3416 88.7152 34.3416C86.8252 34.3416 85.2852 33.7116 84.0252 32.4166C82.7652 31.1566 82.1702 29.3716 82.1702 27.0966V16.3516H87.4202V26.3266C87.4202 27.3766 87.7002 28.1466 88.2602 28.7066C88.8202 29.2666 89.5552 29.5116 90.4652 29.5116C91.4452 29.5116 92.2502 29.2316 92.8452 28.6016C93.4052 28.0066 93.7202 27.0966 93.7202 25.9066V16.3516ZM108.071 19.4666C108.386 18.3466 109.051 17.5066 110.031 16.9116C111.011 16.3166 112.131 16.0016 113.321 16.0016V21.9516C112.026 21.7416 110.836 21.9866 109.716 22.6166C108.596 23.2466 108.071 24.3666 108.071 25.9416V33.8516H102.821V16.3516H108.071V19.4666ZM132.575 33.8516H126.625L121.025 26.1166V33.8516H115.775V9.35156H121.025V24.0166L126.275 16.3516H132.4L126.03 25.1016L132.575 33.8516ZM144.76 15.8616C146.615 15.8616 148.155 16.5266 149.415 17.7866C150.675 19.0816 151.305 20.8666 151.305 23.1066V33.8516H146.055V23.8766C146.055 22.8616 145.74 22.0916 145.18 21.5316C144.62 20.9716 143.885 20.6916 143.01 20.6916C141.995 20.6916 141.19 21.0066 140.63 21.6016C140.035 22.2316 139.755 23.1066 139.755 24.2966V33.8516H134.505V9.35156H139.755V17.9966C140.805 16.5966 142.45 15.8616 144.76 15.8616ZM167.615 16.3516H172.865V33.8516H167.615V32.2066C166.355 33.6416 164.64 34.3416 162.4 34.3416C160.09 34.3416 158.095 33.4666 156.485 31.6816C154.84 29.8966 154.035 27.6916 154.035 25.1016C154.035 22.5116 154.84 20.3416 156.485 18.5566C158.095 16.7716 160.09 15.8616 162.4 15.8616C164.64 15.8616 166.355 16.5966 167.615 17.9966V16.3516ZM163.45 29.3716C164.675 29.3716 165.69 28.9866 166.46 28.2166C167.23 27.4466 167.615 26.4316 167.615 25.1016C167.615 23.8066 167.23 22.7566 166.46 21.9866C165.69 21.2166 164.675 20.8316 163.45 20.8316C162.19 20.8316 161.21 21.2166 160.44 21.9866C159.67 22.7566 159.285 23.8066 159.285 25.1016C159.285 26.4316 159.67 27.4466 160.44 28.2166C161.21 28.9866 162.19 29.3716 163.45 29.3716ZM179.342 14.8116C178.467 14.8116 177.732 14.5316 177.102 13.9016C176.472 13.2716 176.192 12.5366 176.192 11.6616C176.192 10.8216 176.472 10.0866 177.102 9.45656C177.732 8.82656 178.467 8.51156 179.342 8.51156C180.182 8.51156 180.917 8.82656 181.547 9.45656C182.177 10.0866 182.492 10.8216 182.492 11.6616C182.492 12.5366 182.177 13.2716 181.547 13.9016C180.917 14.5316 180.182 14.8116 179.342 14.8116ZM176.717 33.8516V16.3516H181.967V33.8516H176.717ZM194.209 34.3416C191.549 34.3416 189.309 33.4666 187.559 31.6816C185.809 29.9316 184.934 27.7266 184.934 25.1016C184.934 22.5116 185.809 20.3066 187.559 18.5216C189.309 16.7716 191.549 15.8616 194.209 15.8616C195.889 15.8616 197.429 16.2816 198.829 17.0866C200.229 17.9266 201.349 19.0116 202.119 20.3416L197.534 23.0016C196.904 21.7066 195.749 21.0416 194.139 21.0416C192.984 21.0416 192.039 21.4266 191.304 22.1966C190.534 22.9666 190.184 23.9116 190.184 25.1016C190.184 26.2916 190.534 27.2716 191.304 28.0416C192.039 28.8116 192.984 29.1616 194.139 29.1616C195.784 29.1616 196.904 28.5316 197.534 27.2016L202.119 29.8266C201.349 31.2266 200.264 32.3116 198.864 33.1166C197.464 33.9566 195.889 34.3416 194.209 34.3416ZM214.487 15.8616C216.342 15.8616 217.882 16.5266 219.142 17.7866C220.402 19.0816 221.032 20.8666 221.032 23.1066V33.8516H215.782V23.8766C215.782 22.8616 215.467 22.0916 214.907 21.5316C214.347 20.9716 213.612 20.6916 212.737 20.6916C211.722 20.6916 210.917 21.0066 210.357 21.6016C209.762 22.2316 209.482 23.1066 209.482 24.2966V33.8516H204.232V9.35156H209.482V17.9966C210.532 16.5966 212.177 15.8616 214.487 15.8616ZM227.262 14.8116C226.387 14.8116 225.652 14.5316 225.022 13.9016C224.392 13.2716 224.112 12.5366 224.112 11.6616C224.112 10.8216 224.392 10.0866 225.022 9.45656C225.652 8.82656 226.387 8.51156 227.262 8.51156C228.102 8.51156 228.837 8.82656 229.467 9.45656C230.097 10.0866 230.412 10.8216 230.412 11.6616C230.412 12.5366 230.097 13.2716 229.467 13.9016C228.837 14.5316 228.102 14.8116 227.262 14.8116ZM224.637 33.8516V16.3516H229.887V33.8516H224.637ZM243.984 15.8616C245.839 15.8616 247.379 16.5266 248.639 17.7866C249.899 19.0816 250.529 20.8666 250.529 23.1066V33.8516H245.279V23.8766C245.279 22.8616 244.964 22.0916 244.404 21.5316C243.844 20.9716 243.109 20.6916 242.234 20.6916C241.219 20.6916 240.414 21.0066 239.854 21.6016C239.259 22.2316 238.979 23.1066 238.979 24.2966V33.8516H233.729V16.3516H238.979V17.9966C240.029 16.5966 241.674 15.8616 243.984 15.8616ZM257.109 34.3416C256.199 34.3416 255.394 34.0266 254.764 33.3616C254.099 32.7316 253.784 31.9266 253.784 31.0166C253.784 30.1066 254.099 29.3366 254.764 28.6716C255.394 28.0416 256.199 27.6916 257.109 27.6916C258.019 27.6916 258.789 28.0416 259.454 28.6716C260.084 29.3366 260.434 30.1066 260.434 31.0166C260.434 31.9266 260.084 32.7316 259.454 33.3616C258.789 34.0266 258.019 34.3416 257.109 34.3416ZM283.544 15.8616C285.539 15.8616 287.149 16.5266 288.374 17.8566C289.564 19.1866 290.194 20.9366 290.194 23.1066V33.8516H284.944V23.5616C284.944 22.6866 284.699 21.9866 284.279 21.4616C283.859 20.9716 283.229 20.6916 282.424 20.6916C281.549 20.6916 280.884 21.0066 280.394 21.5666C279.904 22.1616 279.694 22.9666 279.694 23.9816V33.8516H274.444V23.5616C274.444 22.6866 274.199 21.9866 273.779 21.4616C273.359 20.9716 272.729 20.6916 271.924 20.6916C271.049 20.6916 270.384 21.0066 269.894 21.5666C269.404 22.1616 269.194 22.9666 269.194 23.9816V33.8516H263.944V16.3516H269.194V17.9616C270.139 16.5616 271.714 15.8616 273.884 15.8616C275.914 15.8616 277.419 16.6316 278.469 18.1716C279.519 16.6316 281.234 15.8616 283.544 15.8616ZM304.037 15.8616C305.892 15.8616 307.432 16.5266 308.692 17.7866C309.952 19.0816 310.582 20.8666 310.582 23.1066V33.8516H305.332V23.8766C305.332 22.8616 305.017 22.0916 304.457 21.5316C303.897 20.9716 303.162 20.6916 302.287 20.6916C301.272 20.6916 300.467 21.0066 299.907 21.6016C299.312 22.2316 299.032 23.1066 299.032 24.2966V33.8516H293.782V16.3516H299.032V17.9966C300.082 16.5966 301.727 15.8616 304.037 15.8616Z" fill="#EDEDED"/>
<defs>
<radialGradient id="paint0_radial_16990_26648" cx="0" cy="0" r="1" gradientUnits="userSpaceOnUse" gradientTransform="translate(25.4377 30.7078) rotate(-90) scale(16.3639 14.9901)">
<stop stop-color="#FDB201"/>
<stop offset="1" stop-color="#F88F01"/>
</radialGradient>
</defs>
</svg>
