<svg width="1342" height="172" viewBox="0 0 1342 172" fill="none" xmlns="http://www.w3.org/2000/svg">
<path fill-rule="evenodd" clip-rule="evenodd" d="M76.5729 26.0641H121.525V69.2522L151.832 38.7428L183.723 70.4229L153.365 100.984H196.445V145.936H121.525H120.372H76.5729H0.5V100.984H43.8726L13.5139 70.4229L45.4051 38.7428L76.5729 70.1184V26.0641Z" fill="#F88F00"/>
<circle cx="98.3802" cy="121.454" r="11.4109" fill="white" stroke="white" stroke-width="1.15261"/>
<circle cx="98.0571" cy="121.224" r="17.2431" stroke="white" stroke-width="2.39744"/>
<path d="M278.17 148.142C266.083 148.142 256.138 144.929 248.488 138.197C240.685 131.618 236.86 122.744 236.86 111.422V38.9H261.34V109.28C261.34 119.378 266.848 124.274 278.17 124.274C289.339 124.274 295 119.378 295 109.28V38.9H319.48V111.422C319.48 122.744 315.502 131.618 307.852 138.197C300.049 144.929 290.104 148.142 278.17 148.142ZM385.789 69.5H408.739V146H385.789V138.809C381.199 145.082 373.855 148.142 363.91 148.142C355.648 148.142 348.916 145.388 343.408 139.727C337.9 134.219 335.299 126.416 335.299 116.471V69.5H358.249V113.105C358.249 117.695 359.473 121.061 361.921 123.509C364.369 125.957 367.582 127.028 371.56 127.028C375.844 127.028 379.363 125.804 381.964 123.05C384.412 120.449 385.789 116.471 385.789 111.269V69.5ZM448.52 83.117C449.897 78.221 452.804 74.549 457.088 71.948C461.372 69.347 466.268 67.97 471.47 67.97V93.98C465.809 93.062 460.607 94.133 455.711 96.887C450.815 99.641 448.52 104.537 448.52 111.422V146H425.57V69.5H448.52V83.117ZM555.638 146H529.628L505.148 112.187V146H482.198V38.9H505.148V103.007L528.098 69.5H554.873L527.027 107.75L555.638 146ZM608.906 67.358C617.015 67.358 623.747 70.265 629.255 75.773C634.763 81.434 637.517 89.237 637.517 99.029V146H614.567V102.395C614.567 97.958 613.19 94.592 610.742 92.144C608.294 89.696 605.081 88.472 601.256 88.472C596.819 88.472 593.3 89.849 590.852 92.45C588.251 95.204 587.027 99.029 587.027 104.231V146H564.077V38.9H587.027V76.691C591.617 70.571 598.808 67.358 608.906 67.358ZM708.816 69.5H731.766V146H708.816V138.809C703.308 145.082 695.811 148.142 686.019 148.142C675.921 148.142 667.2 144.317 660.162 136.514C652.971 128.711 649.452 119.072 649.452 107.75C649.452 96.428 652.971 86.942 660.162 79.139C667.2 71.336 675.921 67.358 686.019 67.358C695.811 67.358 703.308 70.571 708.816 76.691V69.5ZM690.609 126.416C695.964 126.416 700.401 124.733 703.767 121.367C707.133 118.001 708.816 113.564 708.816 107.75C708.816 102.089 707.133 97.499 703.767 94.133C700.401 90.767 695.964 89.084 690.609 89.084C685.101 89.084 680.817 90.767 677.451 94.133C674.085 97.499 672.402 102.089 672.402 107.75C672.402 113.564 674.085 118.001 677.451 121.367C680.817 124.733 685.101 126.416 690.609 126.416ZM760.078 62.768C756.253 62.768 753.04 61.544 750.286 58.79C747.532 56.036 746.308 52.823 746.308 48.998C746.308 45.326 747.532 42.113 750.286 39.359C753.04 36.605 756.253 35.228 760.078 35.228C763.75 35.228 766.963 36.605 769.717 39.359C772.471 42.113 773.848 45.326 773.848 48.998C773.848 52.823 772.471 56.036 769.717 58.79C766.963 61.544 763.75 62.768 760.078 62.768ZM748.603 146V69.5H771.553V146H748.603ZM825.067 148.142C813.439 148.142 803.647 144.317 795.997 136.514C788.347 128.864 784.522 119.225 784.522 107.75C784.522 96.428 788.347 86.789 795.997 78.986C803.647 71.336 813.439 67.358 825.067 67.358C832.411 67.358 839.143 69.194 845.263 72.713C851.383 76.385 856.279 81.128 859.645 86.942L839.602 98.57C836.848 92.909 831.799 90.002 824.761 90.002C819.712 90.002 815.581 91.685 812.368 95.051C809.002 98.417 807.472 102.548 807.472 107.75C807.472 112.952 809.002 117.236 812.368 120.602C815.581 123.968 819.712 125.498 824.761 125.498C831.952 125.498 836.848 122.744 839.602 116.93L859.645 128.405C856.279 134.525 851.536 139.268 845.416 142.787C839.296 146.459 832.411 148.142 825.067 148.142ZM913.71 67.358C921.819 67.358 928.551 70.265 934.059 75.773C939.567 81.434 942.321 89.237 942.321 99.029V146H919.371V102.395C919.371 97.958 917.994 94.592 915.546 92.144C913.098 89.696 909.885 88.472 906.06 88.472C901.623 88.472 898.104 89.849 895.656 92.45C893.055 95.204 891.831 99.029 891.831 104.231V146H868.881V38.9H891.831V76.691C896.421 70.571 903.612 67.358 913.71 67.358ZM969.557 62.768C965.732 62.768 962.519 61.544 959.765 58.79C957.011 56.036 955.787 52.823 955.787 48.998C955.787 45.326 957.011 42.113 959.765 39.359C962.519 36.605 965.732 35.228 969.557 35.228C973.229 35.228 976.442 36.605 979.196 39.359C981.95 42.113 983.327 45.326 983.327 48.998C983.327 52.823 981.95 56.036 979.196 58.79C976.442 61.544 973.229 62.768 969.557 62.768ZM958.082 146V69.5H981.032V146H958.082ZM1042.65 67.358C1050.76 67.358 1057.5 70.265 1063 75.773C1068.51 81.434 1071.27 89.237 1071.27 99.029V146H1048.32V102.395C1048.32 97.958 1046.94 94.592 1044.49 92.144C1042.04 89.696 1038.83 88.472 1035 88.472C1030.57 88.472 1027.05 89.849 1024.6 92.45C1022 95.204 1020.78 99.029 1020.78 104.231V146H997.826V69.5H1020.78V76.691C1025.37 70.571 1032.56 67.358 1042.65 67.358ZM1100.03 148.142C1096.05 148.142 1092.53 146.765 1089.78 143.858C1086.87 141.104 1085.5 137.585 1085.5 133.607C1085.5 129.629 1086.87 126.263 1089.78 123.356C1092.53 120.602 1096.05 119.072 1100.03 119.072C1104.01 119.072 1107.37 120.602 1110.28 123.356C1113.04 126.263 1114.57 129.629 1114.57 133.607C1114.57 137.585 1113.04 141.104 1110.28 143.858C1107.37 146.765 1104.01 148.142 1100.03 148.142ZM1215.59 67.358C1224.31 67.358 1231.35 70.265 1236.7 76.079C1241.9 81.893 1244.66 89.543 1244.66 99.029V146H1221.71V101.018C1221.71 97.193 1220.64 94.133 1218.8 91.838C1216.96 89.696 1214.21 88.472 1210.69 88.472C1206.87 88.472 1203.96 89.849 1201.82 92.297C1199.68 94.898 1198.76 98.417 1198.76 102.854V146H1175.81V101.018C1175.81 97.193 1174.74 94.133 1172.9 91.838C1171.06 89.696 1168.31 88.472 1164.79 88.472C1160.97 88.472 1158.06 89.849 1155.92 92.297C1153.78 94.898 1152.86 98.417 1152.86 102.854V146H1129.91V69.5H1152.86V76.538C1156.99 70.418 1163.87 67.358 1173.36 67.358C1182.23 67.358 1188.81 70.724 1193.4 77.456C1197.99 70.724 1205.49 67.358 1215.59 67.358ZM1305.18 67.358C1313.28 67.358 1320.02 70.265 1325.52 75.773C1331.03 81.434 1333.79 89.237 1333.79 99.029V146H1310.84V102.395C1310.84 97.958 1309.46 94.592 1307.01 92.144C1304.56 89.696 1301.35 88.472 1297.53 88.472C1293.09 88.472 1289.57 89.849 1287.12 92.45C1284.52 95.204 1283.3 99.029 1283.3 104.231V146H1260.35V69.5H1283.3V76.691C1287.89 70.571 1295.08 67.358 1305.18 67.358Z" fill="#1A1A1A"/>
</svg>
