<svg width="120" height="116" viewBox="0 0 120 116" fill="none" xmlns="http://www.w3.org/2000/svg">
<path d="M99.9989 48.7268V47.8768C100.029 39.3715 97.3306 31.0808 92.2997 24.2229C87.2688 17.365 80.1708 12.3016 72.0489 9.77681H71.7489C67.5541 8.49798 63.1834 7.89048 58.7989 7.97681C48.358 8.54977 38.5293 13.0856 31.3188 20.6584C24.1083 28.2313 20.0596 38.2704 19.9989 48.7268C17.0689 49.7575 14.5312 51.6723 12.7359 54.2069C10.9407 56.7415 9.97656 59.7709 9.97656 62.8768C9.97656 65.9828 10.9407 69.0121 12.7359 71.5467C14.5312 74.0813 17.0689 75.9961 19.9989 77.0268C21.0287 86.9007 25.6935 96.0389 33.0862 102.665C40.479 109.29 50.0716 112.93 59.9989 112.877H61.1489C70.7487 112.412 79.8734 108.561 86.9032 102.007C93.9331 95.4533 98.4134 86.6206 99.5489 77.0768C102.513 76.1044 105.101 74.2319 106.951 71.7199C108.801 69.2079 109.822 66.1815 109.872 63.0621C109.921 59.9426 108.997 56.8854 107.227 54.316C105.458 51.7465 102.931 49.7928 99.9989 48.7268ZM60.8989 102.877C53.6609 103.086 46.5913 100.671 40.9949 96.0758C35.3984 91.481 31.6527 85.0171 30.4489 77.8768H89.2989C88.0786 84.6363 84.6087 90.7846 79.453 95.3231C74.2973 99.8616 67.7585 102.524 60.8989 102.877ZM94.9989 67.8768H24.9989C23.6728 67.8768 22.401 67.35 21.4633 66.4123C20.5256 65.4747 19.9989 64.2029 19.9989 62.8768C19.9989 61.5507 20.5256 60.279 21.4633 59.3413C22.401 58.4036 23.6728 57.8768 24.9989 57.8768H34.9989C36.3249 57.8768 37.5967 57.35 38.5344 56.4123C39.4721 55.4747 39.9989 54.2029 39.9989 52.8768C39.9989 51.5507 39.4721 50.279 38.5344 49.3413C37.5967 48.4036 36.3249 47.8768 34.9989 47.8768H29.9989C30.2227 42.6899 31.7052 37.6353 34.3185 33.1491C36.9317 28.663 40.5973 24.8801 44.9989 22.1268V37.8768C44.9989 39.2029 45.5256 40.4747 46.4633 41.4123C47.401 42.35 48.6728 42.8768 49.9989 42.8768C51.3249 42.8768 52.5967 42.35 53.5344 41.4123C54.4721 40.4747 54.9989 39.2029 54.9989 37.8768V18.3268C56.356 18.1001 57.7248 17.9498 59.0989 17.8768H59.9989C61.6745 17.9004 63.3459 18.0508 64.9989 18.3268V37.8768C64.9989 39.2029 65.5257 40.4747 66.4633 41.4123C67.401 42.35 68.6728 42.8768 69.9989 42.8768C71.3249 42.8768 72.5967 42.35 73.5344 41.4123C74.4721 40.4747 74.9989 39.2029 74.9989 37.8768V21.9768C77.1198 23.2049 79.0985 24.6638 80.8989 26.3268C83.7817 29.1263 86.0726 32.4764 87.6358 36.1783C89.1991 39.8802 90.0026 43.8584 89.9989 47.8768H84.9989C83.6728 47.8768 82.401 48.4036 81.4633 49.3413C80.5256 50.279 79.9989 51.5507 79.9989 52.8768C79.9989 54.2029 80.5256 55.4747 81.4633 56.4123C82.401 57.35 83.6728 57.8768 84.9989 57.8768H94.9989C96.3249 57.8768 97.5967 58.4036 98.5344 59.3413C99.4721 60.279 99.9989 61.5507 99.9989 62.8768C99.9989 64.2029 99.4721 65.4747 98.5344 66.4123C97.5967 67.35 96.3249 67.8768 94.9989 67.8768Z" fill="white" fill-opacity="0.1"/>
</svg>
