<svg width="128" height="128" viewBox="0 0 128 128" fill="none" xmlns="http://www.w3.org/2000/svg">
<path d="M98.8177 9.11719H17.151C10.676 9.11719 5.48438 14.3672 5.48438 20.7839V102.451C5.48438 108.867 10.676 114.117 17.151 114.117H40.4844L57.9844 131.617L75.4844 114.117H98.8177C105.234 114.117 110.484 108.867 110.484 102.451V20.7839C110.484 14.3672 105.234 9.11719 98.8177 9.11719ZM98.8177 102.451H70.6427L57.9844 115.109L45.326 102.451H17.151V20.7839H98.8177V102.451ZM57.9844 61.6172C67.6094 61.6172 75.4844 53.7422 75.4844 44.1172C75.4844 34.4922 67.6094 26.6172 57.9844 26.6172C48.3594 26.6172 40.4844 34.4922 40.4844 44.1172C40.4844 53.7422 48.3594 61.6172 57.9844 61.6172ZM57.9844 38.2839C61.1927 38.2839 63.8177 40.9089 63.8177 44.1172C63.8177 47.3255 61.1927 49.9505 57.9844 49.9505C54.776 49.9505 52.151 47.3255 52.151 44.1172C52.151 40.9089 54.776 38.2839 57.9844 38.2839ZM92.9844 88.3339C92.9844 73.7505 69.826 67.4505 57.9844 67.4505C46.1427 67.4505 22.9844 73.7505 22.9844 88.3339V96.6172H92.9844V88.3339ZM37.451 84.9505C41.7677 81.9755 50.4594 79.1172 57.9844 79.1172C65.5094 79.1172 74.201 81.9755 78.5177 84.9505H37.451Z" fill="white" fill-opacity="0.1"/>
</svg>
