<svg width="147" height="132" viewBox="0 0 147 132" fill="none" xmlns="http://www.w3.org/2000/svg">
<path d="M131.309 64.0625L125.059 60.625L68.8091 29.375H68.1216C67.7384 29.213 67.3408 29.0874 66.934 29H65.7466H64.6216C64.1945 29.0875 63.7762 29.213 63.3716 29.375H62.6841L6.43405 60.625C5.47219 61.1701 4.67214 61.9606 4.11552 62.9159C3.55889 63.8711 3.26562 64.9569 3.26562 66.0625C3.26562 67.1681 3.55889 68.2539 4.11552 69.2091C4.67214 70.1644 5.47219 70.9549 6.43405 71.5L21.9966 80.125V109.75C21.9966 114.723 23.972 119.492 27.4883 123.008C31.0046 126.525 35.7737 128.5 40.7466 128.5H90.7466C95.7194 128.5 100.489 126.525 104.005 123.008C107.521 119.492 109.497 114.723 109.497 109.75V80.125L121.997 73.125V91C121.997 92.6576 122.655 94.2473 123.827 95.4194C124.999 96.5915 126.589 97.25 128.247 97.25C129.904 97.25 131.494 96.5915 132.666 95.4194C133.838 94.2473 134.497 92.6576 134.497 91V69.5C134.495 68.3925 134.199 67.3054 133.638 66.35C133.078 65.3946 132.274 64.6052 131.309 64.0625ZM96.9966 109.75C96.9966 111.408 96.3381 112.997 95.166 114.169C93.9939 115.342 92.4042 116 90.7466 116H40.7466C39.0889 116 37.4992 115.342 36.3271 114.169C35.155 112.997 34.4966 111.408 34.4966 109.75V87.0625L62.6841 102.688L63.6216 103.062H64.1841C64.7028 103.128 65.2278 103.128 65.7466 103.062C66.2653 103.128 66.7903 103.128 67.3091 103.062H67.8716C68.2034 102.993 68.5205 102.866 68.8091 102.688L96.9966 87.0625V109.75ZM65.7466 90.125L22.3716 66L65.7466 41.875L109.122 66L65.7466 90.125Z" fill="white" fill-opacity="0.1"/>
<path d="M124.816 61.0621L124.818 61.0631L131.064 64.4984C131.065 64.4987 131.065 64.4991 131.066 64.4994C131.953 64.9986 132.692 65.7245 133.207 66.6029C133.722 67.4819 133.995 68.482 133.997 69.5009V91C133.997 92.525 133.391 93.9875 132.312 95.0659C131.234 96.1442 129.772 96.75 128.247 96.75C126.722 96.75 125.259 96.1442 124.181 95.0659C123.102 93.9875 122.497 92.525 122.497 91V73.125V72.2719L121.752 72.6888L109.252 79.6887L108.997 79.8319V80.125V109.75C108.997 114.59 107.074 119.232 103.651 122.655C100.229 126.077 95.5868 128 90.7466 128H40.7466C35.9063 128 31.2644 126.077 27.8419 122.655C24.4193 119.232 22.4966 114.59 22.4966 109.75V80.125V79.8305L22.2389 79.6877L6.68058 71.065C6.6799 71.0646 6.67923 71.0642 6.67856 71.0639C5.79454 70.5624 5.05923 69.8356 4.54753 68.9574C4.03543 68.0786 3.76562 67.0796 3.76562 66.0625C3.76562 65.0454 4.03543 64.0464 4.54752 63.1676C5.05927 62.2894 5.79467 61.5625 6.67878 61.061C6.67938 61.0607 6.67998 61.0603 6.68058 61.06L62.8136 29.875H63.3716H63.4679L63.5574 29.8392C63.919 29.6944 64.2923 29.581 64.6732 29.5H65.7466H66.8799C67.2382 29.5802 67.5886 29.6925 67.9268 29.8355L68.0202 29.875H68.1216H68.6795L124.816 61.0621ZM34.739 86.6252L33.9966 86.2137V87.0625V109.75C33.9966 111.54 34.7077 113.257 35.9736 114.523C37.2395 115.789 38.9563 116.5 40.7466 116.5H90.7466C92.5368 116.5 94.2536 115.789 95.5195 114.523C96.7854 113.257 97.4966 111.54 97.4966 109.75V87.0625V86.2137L96.7541 86.6252L68.5666 102.25L68.5564 102.256L68.5463 102.262C68.321 102.401 68.0747 102.503 67.817 102.562H67.3091H67.2777L67.2466 102.566C66.7693 102.627 66.2863 102.627 65.8091 102.566L65.7466 102.559L65.6841 102.566C65.2068 102.627 64.7238 102.627 64.2466 102.566L64.2154 102.562H64.1841H63.7178L62.899 102.235L34.739 86.6252ZM65.5035 90.562L65.7466 90.6971L65.9896 90.562L109.365 66.437L110.15 66L109.365 65.563L65.9896 41.438L65.7466 41.3029L65.5035 41.438L22.1285 65.563L21.3429 66L22.1285 66.437L65.5035 90.562Z" stroke="white" stroke-opacity="0.1"/>
</svg>
