<svg width="143" height="119" viewBox="0 0 143 119" fill="none" xmlns="http://www.w3.org/2000/svg">
<path d="M127.966 57.1979C127.192 50.8604 125.027 44.7723 121.625 39.3695C120.659 37.7274 119.519 36.1942 118.225 34.7962C117.387 33.9052 116.267 33.3305 115.054 33.1689C114.035 33.0603 113.008 33.2688 112.112 33.766C111.216 34.2632 110.495 35.0247 110.048 35.9467C109.041 37.8809 108.893 40.0091 108.784 41.7295C108.757 41.971 108.731 42.2056 108.707 42.4195L107.318 60.2121C105.709 60.8238 104.305 61.8771 103.268 63.2509C102.887 63.7463 102.567 64.2849 102.312 64.8553C99.0017 67.0354 95.427 68.7849 91.6744 70.0615C91.8244 69.2127 91.8462 68.3461 91.7392 67.4908C92.4821 67.1395 93.0899 66.5551 93.47 65.8265L94.3082 64.2089C94.3863 64.0629 94.4546 63.9118 94.5126 63.7567C96.0708 60.5216 96.8995 56.9838 96.9402 53.3932C96.9809 49.8026 96.2325 46.2469 94.748 42.9773C95.9556 42.0479 97.0697 41.003 98.0743 39.8572C99.0142 38.8387 99.6806 37.5985 100.011 36.2525C100.342 34.9065 100.326 33.4987 99.9648 32.1606C99.2584 29.8666 98.1983 27.6969 96.8228 25.7298C94.1514 21.5805 91.4741 18.6043 88.4004 16.3592C87.1416 15.3159 85.6336 14.6171 84.0238 14.3311C83.2633 14.239 82.4917 14.3191 81.7663 14.5654C81.0409 14.8117 80.3801 15.2181 79.8329 15.7543C77.0369 18.4448 78.3473 21.9593 78.9481 23.6406L79.1354 24.1506C79.1943 24.3109 79.2463 24.4705 79.2982 24.63C77.8572 23.9166 76.3199 23.417 74.7348 23.1469C75.356 20.2556 75.7049 17.3124 75.7769 14.356C75.8052 10.8659 74.0384 8.30626 71.039 7.5785C70.6105 7.47379 70.1757 7.39701 69.7373 7.34863C68.0054 7.21502 66.2637 7.28934 64.5494 7.57002L63.9682 7.64454C62.0979 7.87486 60.1769 8.18333 58.2252 8.57917C57.715 7.87089 57.0254 7.31123 56.2273 6.95772C55.7577 6.74273 55.2567 6.60398 54.7434 6.5467C54.1768 6.49128 53.6054 6.51414 53.045 6.61465C52.3334 6.73043 51.6187 6.87381 50.9047 7.01029L50.4469 7.10565C47.2865 7.75015 44.1253 8.52729 41.036 9.41032C39.9453 9.72811 38.867 10.0612 37.728 10.4365C37.2527 10.18 36.7325 10.0173 36.1958 9.95718C35.7254 9.90238 35.249 9.93173 34.7888 10.0439C31.8745 10.7369 30.0242 11.6611 28.9786 12.9481C28.7748 13.2297 28.6109 13.5381 28.4915 13.8646C27.7481 14.2633 26.9425 14.7178 26.1446 15.2291C24.8577 16.0226 23.7489 17.0738 22.888 18.3167C22.0271 19.5596 21.4328 20.9672 21.1425 22.4509C20.7503 24.6859 20.6687 26.9643 20.8998 29.2216C20.7887 29.1532 20.6631 29.0902 20.5374 29.0272C19.9964 28.7591 19.4128 28.5872 18.8128 28.5193C15.5424 28.1524 13.5352 30.9104 12.5616 32.2404C10.331 35.3088 8.69166 38.9604 7.42223 43.7365C6.7141 46.0293 6.37055 48.419 6.40412 50.8184C6.46589 52.2015 6.87742 53.5463 7.60024 54.727C8.32306 55.9078 9.33355 56.8859 10.5372 57.57C12.3911 58.6465 14.3576 59.5161 16.4014 60.1632L16.6236 60.237C16.6729 60.7945 16.7359 61.3535 16.8273 61.9087L16.8707 62.207C17.0503 63.4707 17.3647 65.588 18.9963 67.0496C19.3501 67.3674 19.7567 67.6211 20.1977 67.7992C21.6849 71.555 24.2556 74.7836 27.5828 77.0744C27.8207 77.2357 28.0747 77.3719 28.3406 77.4808C28.2184 77.8769 28.1534 78.2883 28.1477 78.7028C24.0003 81.7307 20.3567 84.6894 17.5393 88.7539C17.4589 88.8634 17.3875 88.9792 17.3258 89.1002C15.1114 90.4312 13.164 92.1625 11.5829 94.2058C11.1608 94.7595 10.8925 95.4149 10.8051 96.1057C10.7178 96.7964 10.8146 97.498 11.0857 98.1393C11.2329 98.4915 11.4315 98.8198 11.6751 99.1137C11.5853 99.9582 11.7745 100.809 12.2138 101.536C12.5914 102.178 13.1433 102.7 13.8054 103.042C13.9824 103.606 14.2798 104.124 14.677 104.562C15.0742 105 15.5617 105.346 16.1059 105.577C16.5135 105.764 16.9477 105.886 17.3929 105.938C18.3865 106.011 19.3801 105.797 20.2565 105.323L20.8702 105.022C20.9186 105.102 20.9732 105.178 21.0332 105.25C21.771 106.121 22.812 106.68 23.9459 106.813C24.6696 106.897 25.4027 106.794 26.0754 106.514C26.7274 106.223 27.3002 105.781 27.7457 105.223C28.1912 104.665 28.4965 104.008 28.6358 103.308C28.6358 103.308 29.0453 101.775 29.0584 101.721C29.2103 101.612 29.3563 101.496 29.4958 101.372C31.8902 99.1789 34.6634 97.4399 37.68 96.2395C37.3212 97.5686 36.9283 98.8705 36.5012 100.145C36.3167 100.7 36.2581 101.288 36.3297 101.868C36.4012 102.447 36.601 103.004 36.9147 103.496C37.2373 103.998 37.667 104.421 38.1728 104.736C38.6786 105.052 39.248 105.251 39.8401 105.32C40.6827 105.417 41.5337 105.232 42.2604 104.795C42.9978 104.947 43.7728 105.076 44.6077 105.17C46.1187 105.339 47.6015 105.387 48.9026 105.435C52.2793 105.558 55.6603 105.385 59.007 104.92C63.5497 104.364 67.932 102.89 71.8872 100.587L72.0321 100.604C72.9316 100.713 73.8412 100.506 74.6047 100.018C75.3683 99.53 75.9382 98.7915 76.2166 97.9291C76.6612 96.5817 77.1847 94.6562 77.7488 92.6166L78.0329 91.5795C87.9177 96.3215 96.9758 99.2172 105.619 100.396L107.185 100.572C109.897 100.874 112.626 101.01 115.355 100.979L115.601 100.965C116.035 100.983 116.47 100.953 116.897 100.872C119.894 100.258 122.688 98.9022 125.025 96.9286C125.416 96.7876 125.799 96.6229 126.17 96.4353C128.962 95.0229 130.757 92.5414 131.855 90.7853C133.164 88.7202 134.177 86.4822 134.865 84.1364C136.24 79.4835 136.422 74.5596 135.395 69.8177C134.085 63.8788 131.536 59.5686 127.966 57.1979Z" fill="white"/>
<path d="M34.2211 78.44C34.842 78.5097 35.2026 77.5371 34.621 77.2413C34.1626 77.0194 33.7851 76.6594 33.5418 76.2119C35.1559 77.3009 36.8909 78.199 38.712 78.888C43.6692 80.7855 49.0695 81.1609 54.3372 80.8506C57.0802 80.8032 59.8134 80.5113 62.5045 79.9784L63.0053 79.8739C70.9857 78.1144 79.3776 75.8002 86.6177 68.6828C86.8142 68.4882 87.0122 68.2799 87.1988 68.0493C87.259 68.5292 87.2351 69.0159 87.1283 69.4876C87.1174 69.5842 87.0843 69.6923 87.029 69.8118C86.9714 69.8667 86.9262 69.9333 86.8962 70.007C86.8663 70.0807 86.8523 70.1599 86.8553 70.2395C86.8181 70.3279 86.7757 70.4142 86.7285 70.4977L86.7238 70.5391L86.647 70.6632C86.5963 70.7414 86.5388 70.8188 86.4812 70.8961C86.4277 70.9741 86.3703 71.0492 86.3092 71.1214L86.2132 71.2294C86.2132 71.2294 86.1104 71.3366 86.1572 71.293C86.0305 71.4067 85.95 71.563 85.931 71.7322C85.9121 71.9014 85.9559 72.0716 86.0542 72.2106C86.1274 72.2946 86.2197 72.3597 86.3234 72.4006C86.427 72.4414 86.5389 72.4566 86.6497 72.4451C85.9397 74.0205 84.7454 75.3281 83.2407 76.1777C81.1218 77.3838 78.8007 78.1935 76.3913 78.5671C71.9242 79.4632 67.1656 79.8446 63.3651 82.5831C57.6839 81.6592 51.9548 82.5326 46.235 82.5126C43.5984 82.5452 40.9679 82.25 38.4039 81.634C37.1036 81.3091 35.8416 80.8467 34.6393 80.2545C34.0603 80.0294 33.516 79.7237 33.0225 79.3465C32.1079 78.4684 33.5725 78.3672 34.2211 78.44Z" fill="#01CBE0"/>
<path d="M25.4034 98.0546C25.1282 98.7075 24.9187 99.3861 24.7778 100.08L24.376 101.607L24.3853 101.524C24.3187 100.828 24.3411 100.126 24.4519 99.436C24.4676 99.3229 24.4462 99.2077 24.3909 99.1078C24.4051 98.979 24.3829 98.8488 24.3269 98.732C24.2709 98.6152 24.1834 98.5164 24.0742 98.4467C23.965 98.377 23.8385 98.3393 23.7089 98.3378C23.5794 98.3362 23.452 98.371 23.3412 98.4381C21.8361 99.4435 20.26 100.338 18.6253 101.116C18.8542 100.757 19.0823 100.406 19.3173 100.055C19.8441 99.2823 20.4031 98.5346 20.9666 97.8083C21.0278 97.6893 21.0533 97.5552 21.04 97.422C21.0267 97.2888 20.9752 97.1623 20.8917 97.0578C20.8083 96.9532 20.6963 96.8749 20.5694 96.8325C20.4425 96.79 20.306 96.7851 20.1764 96.8184L17.7984 97.9C17.5169 98.0431 17.2261 98.2061 16.93 98.3545C17.4923 97.5722 18.2346 96.9366 19.0941 96.5014C19.7163 96.1869 19.4813 95.0427 18.7244 95.2512C17.8813 95.5091 17.021 95.7068 16.1499 95.8427C17.4992 94.3873 19.1038 93.1915 20.8843 92.3147C22.2778 94.2692 23.8428 96.0955 25.5608 97.7719C25.488 97.8533 25.4342 97.9498 25.4034 98.0546Z" fill="#FFBF24"/>
<path d="M27.0386 97.4342C24.9798 95.4981 23.1342 93.347 21.5335 91.0178C21.7816 90.6753 22.0525 90.3773 22.3443 90.0188C23.9854 92.417 25.8376 94.6637 27.8789 96.732C27.5925 96.9607 27.3124 97.1948 27.0386 97.4342Z" fill="#01CBE0"/>
<path d="M83.4868 89.0399C80.6314 87.7764 77.8305 86.4002 75.0734 84.945C74.3278 84.554 73.822 85.7618 74.5607 86.1521L74.812 86.2781L71.8499 96.5513C71.8453 96.5927 71.8414 96.6272 71.8375 96.6617C68.0215 99.5382 63.2558 100.792 58.5541 101.662C48.3286 103.568 43.5498 101.949 41.0175 101.043C42.1848 97.4553 43.0935 93.7889 43.7366 90.0716C43.8785 89.2421 42.5806 89.1035 42.4325 89.9253C42.4225 90.015 42.4132 90.0978 42.4031 90.1875C37.519 91.0055 32.8993 92.9729 28.9249 95.9273C26.8104 93.7971 24.8958 91.4775 23.2049 88.9977C26.0138 85.8196 29.492 83.3383 32.9364 80.9092C34.7089 81.9776 36.6577 82.7215 38.6913 83.1059C43.7474 84.246 48.9202 83.7854 54.0513 83.5716C55.364 83.5163 56.6736 83.4885 57.9854 83.503C56.0223 85.8479 53.9291 88.0809 51.7157 90.1913C51.2547 90.1398 50.7912 90.1135 50.3273 90.1124C49.7931 90.0725 49.2564 90.1381 48.7476 90.3054C48.4481 90.4149 48.1848 90.6055 47.9872 90.8559C47.9097 90.9533 47.8561 91.0676 47.8306 91.1895C47.8051 91.3114 47.8085 91.4375 47.8405 91.5579C47.8724 91.6783 47.9321 91.7895 48.0148 91.8826C48.0974 91.9758 48.2007 92.0483 48.3163 92.0945C48.6044 92.1885 48.9049 92.2387 49.2079 92.2434C49.4698 92.2603 49.7326 92.2523 49.993 92.2197C50.635 92.1406 51.2566 91.9427 51.8261 91.6359C51.9896 91.6314 52.1449 91.5637 52.2595 91.447C52.3296 91.4191 52.3934 91.3776 52.4473 91.3249C52.5012 91.2722 52.544 91.2093 52.5734 91.1399C55.0706 88.7574 57.4157 86.2204 59.5948 83.5438C60.6436 83.5986 61.6739 83.6932 62.7395 83.8477C62.7851 83.9244 62.8468 83.9902 62.9204 84.0408C62.9939 84.0914 63.0775 84.1254 63.1654 84.1406C63.2533 84.1557 63.3435 84.1517 63.4297 84.1287C63.5159 84.1057 63.5961 84.0643 63.6648 84.0074L63.8175 83.8918C63.8709 83.8659 63.9197 83.8312 63.9617 83.7892C64.9767 83.0316 66.0918 82.4184 67.2751 81.9672C65.2308 85.1248 62.9738 88.1395 60.5199 90.9904C60.3797 90.9667 60.2356 90.992 60.1119 91.0621C59.9883 91.1322 59.8925 91.2429 59.8409 91.3754C59.6801 91.9685 59.5497 92.5695 59.4503 93.176C59.3352 93.6985 59.3244 94.2386 59.4187 94.7653C59.4828 95.0766 59.635 95.3628 59.8571 95.59C59.9415 95.681 60.0461 95.7509 60.1625 95.794C60.2788 95.8371 60.4037 95.8522 60.527 95.8382C60.6503 95.8241 60.7686 95.7813 60.8722 95.7131C60.9759 95.6449 61.0621 95.5533 61.1239 95.4457C61.2593 95.176 61.3529 94.8874 61.4016 94.5896C61.4583 94.3335 61.4876 94.0722 61.4891 93.8099C61.5049 93.2449 61.4264 92.6813 61.257 92.1421C64.185 88.7796 66.838 85.1872 69.1903 81.3996C69.1961 81.37 69.1994 81.34 69.2003 81.3099C72.3586 80.4346 75.7555 80.1729 78.8884 79.3367C81.139 78.7583 83.2607 77.7615 85.1426 76.3984C92.2403 75.2017 99.0085 72.5316 105.011 68.56C105.194 69.5574 105.622 70.4938 106.257 71.2847C106.355 71.4075 106.454 71.5234 106.545 71.6454C106.541 71.666 106.539 71.6867 106.538 71.7075C106.017 73.2509 105.877 74.897 106.128 76.5063C106.379 78.1156 107.015 79.6405 107.981 80.9519L107.975 81.0002C107.301 83.0328 107.304 85.2291 107.983 87.26C108.662 89.291 109.981 91.0473 111.742 92.2658C111.878 92.358 112.016 92.4363 112.154 92.5147C112.493 93.6439 112.949 94.7347 113.514 95.7693C113.631 95.978 113.746 96.1936 113.876 96.4038C103.309 96.315 93.051 93.2778 83.4868 89.0399Z" fill="#01CBE0"/>
<path d="M116.789 96.2071C116.349 96.3255 115.72 96.5832 115.33 96.2531C114.973 95.8628 114.688 95.412 114.488 94.9219C114.211 94.3938 113.964 93.8506 113.748 93.2949C115.222 93.811 116.757 94.1358 118.314 94.2613C119.125 94.3509 119.942 94.3935 120.759 94.3889C119.538 95.1984 118.199 95.8119 116.789 96.2071Z" fill="#0197E0"/>
<path d="M131.054 80.6635C130.405 84.4235 128.722 87.9287 126.194 90.7867C125.528 91.4986 124.725 92.0688 123.833 92.4633C122.941 92.8578 121.979 93.0685 121.004 93.0828C118.842 93.1841 116.679 92.9036 114.614 92.2541C114.11 92.0813 113.622 91.8653 113.156 91.6085C113.144 91.575 113.129 91.5429 113.111 91.5126L112.718 91.3358C111.216 90.3854 110.047 88.9904 109.374 87.3447C108.7 85.699 108.557 83.8844 108.963 82.1534C111.059 84.2252 113.768 85.5656 116.687 85.9753C117.522 86.069 117.664 84.8063 116.833 84.6782C113.812 84.2759 111.061 82.7321 109.143 80.3641C108.317 79.3018 107.744 78.0655 107.467 76.7489C107.189 75.4323 107.216 74.0699 107.543 72.7649C108.814 74.0797 110.256 75.2168 111.831 76.1454C114.246 77.5732 116.925 78.5009 119.706 78.8733C119.847 78.8416 119.974 78.7668 120.071 78.6593C120.167 78.5518 120.227 78.4169 120.243 78.2734C120.259 78.13 120.23 77.985 120.16 77.8588C120.09 77.7326 119.983 77.6314 119.852 77.5693C115.535 76.9989 111.538 74.9844 108.512 71.8535C107.417 70.7107 106.15 69.2411 106.264 67.661C106.327 67.5756 106.37 67.4769 106.389 67.3725C106.408 67.268 106.403 67.1606 106.374 67.0585C106.445 66.8243 106.548 66.6008 106.679 66.3941C107.856 64.4302 110.236 63.9566 112.359 64.0271C115.177 64.1267 118.009 64.6051 120.803 64.9187C120.975 64.938 121.148 64.8881 121.283 64.7801C121.419 64.6722 121.505 64.5149 121.525 64.3428C121.544 64.1708 121.494 63.9982 121.386 63.8629C121.278 63.7277 121.121 63.6408 120.949 63.6215C118.072 63.2987 115.147 62.775 112.247 62.722L111.722 62.7261C112.004 59.0967 112.288 55.463 112.575 51.825C112.853 48.2301 113.042 44.6114 113.437 41.0297C113.503 40.1847 113.662 39.3497 113.912 38.5399C113.986 38.3176 114.094 37.9175 114.304 37.7874C114.702 37.5386 115.077 38.1187 115.286 38.3727C116.213 39.5177 117.07 40.7173 117.852 41.9652C119.435 44.4896 120.72 47.1893 121.68 50.0099C122.779 53.2562 123.443 56.6338 123.655 60.0546C123.66 60.1527 123.691 60.2479 123.743 60.3309C123.796 60.414 123.869 60.4822 123.956 60.529C124.042 60.5758 124.139 60.5997 124.238 60.5984C124.336 60.5971 124.432 60.5707 124.518 60.5216C127.902 62.117 129.659 66.0728 130.61 69.4842C131.611 73.1277 131.763 76.9522 131.054 80.6635Z" fill="#FFBF24"/>
<path d="M121.672 50.0846C120.698 45.3781 118.215 41.2291 115.281 37.4905C114.408 36.3724 112.921 37.2955 112.966 38.5162C112.992 39.2177 113.053 39.8534 113.125 40.5182C112.593 44.9333 112.426 49.3847 112.624 53.8272C112.68 55.133 114.739 55.2801 115.136 54.109C115.532 52.9379 115.881 51.8871 116.257 50.7765C116.518 51.6232 116.766 52.4684 117.077 53.3068C117.432 54.3108 118.731 54.191 119.326 53.5591C119.793 52.9921 120.026 52.2691 119.979 51.5364C120.192 51.6081 120.42 51.6231 120.641 51.5801C120.862 51.5372 121.068 51.4376 121.238 51.2913C121.409 51.1449 121.539 50.9568 121.615 50.7453C121.691 50.5337 121.711 50.3061 121.672 50.0846Z" fill="#FCFA9C"/>
<path d="M116.089 72.8413C116.391 72.819 116.679 72.7099 116.919 72.5271C117.16 72.3444 117.342 72.0958 117.444 71.8115C117.546 71.5273 117.564 71.2195 117.495 70.9255C117.426 70.6315 117.273 70.3638 117.054 70.1549C116.533 69.6982 115.995 69.2606 115.456 68.8368C116.006 68.6764 116.514 68.3971 116.945 68.0187C117.375 67.6536 117.672 67.1568 117.791 66.6055C117.909 66.0542 117.843 65.4791 117.601 64.9694C117.095 64.0603 116.18 63.8738 115.308 63.741C114.753 63.6439 114.193 63.5811 113.631 63.5529C112.528 63.0449 111.254 63.3211 110.122 63.6902C109.337 63.881 108.601 64.2376 107.964 64.7361C107.327 65.2346 106.804 65.8635 106.431 66.5806C104.855 69.8483 107.729 72.5042 109.785 74.0483C111.143 75.0662 112.598 75.9479 114.129 76.6805C115.222 77.2084 116.223 75.8255 115.843 74.665C115.595 73.9634 115.249 73.301 114.813 72.6981C115.235 72.7697 115.661 72.8175 116.089 72.8413Z" fill="#FCFA9C"/>
<path d="M114.608 77.4C112.945 75.9213 111.166 74.5792 109.287 73.3867C109.259 73.1743 109.177 72.9727 109.048 72.8015C108.919 72.6304 108.748 72.4955 108.552 72.4099C108.385 72.3479 108.209 72.3201 108.031 72.3281C107.854 72.3361 107.681 72.3797 107.521 72.4563C107.361 72.5329 107.218 72.641 107.101 72.7741C106.984 72.9071 106.894 73.0624 106.839 73.2307C106.182 75.4696 107.021 77.8343 108.054 79.7108C108.978 81.3271 110.323 82.6632 111.945 83.5777C112.191 83.6833 112.465 83.705 112.725 83.6395C112.985 83.574 113.216 83.4248 113.383 83.2151C113.565 83.0012 113.688 82.7425 113.737 82.4656C113.787 82.1887 113.761 81.9037 113.664 81.6398C113.466 81.0446 113.244 80.4678 113.007 79.8963C113.228 79.9211 113.456 79.9466 113.697 79.9737C113.992 79.9871 114.284 79.9062 114.529 79.7429C114.775 79.5795 114.962 79.3421 115.064 79.0651C115.159 78.7734 115.167 78.4602 115.086 78.1642C115.004 77.8683 114.838 77.6026 114.608 77.4Z" fill="#FCFA9C"/>
<path d="M116.376 87.6646C116.221 87.3548 116.017 87.0724 115.771 86.8282C114.898 85.8487 113.906 84.9818 112.819 84.2473C112.364 83.9448 111.878 83.6667 111.44 83.3381L111.144 83.1093L111.075 83.0455L110.872 82.7992C110.921 82.8537 110.766 82.6197 110.738 82.5537C110.623 82.3085 110.436 82.1039 110.202 81.9667C109.968 81.8295 109.698 81.7661 109.427 81.7848C109.173 81.787 108.925 81.8646 108.715 82.0076C108.505 82.1507 108.342 82.3529 108.247 82.5886C107.917 83.6264 107.914 84.7409 108.239 85.7805C108.453 86.6325 108.776 87.4531 109.201 88.222C110.058 89.7618 111.304 91.0505 112.813 91.9598C112.977 92.075 113.165 92.1519 113.362 92.1846C113.56 92.2174 113.763 92.2051 113.955 92.1488C114.147 92.0925 114.324 91.9936 114.473 91.8594C114.622 91.7253 114.738 91.5593 114.814 91.3738C115.029 90.8401 115.028 90.244 114.812 89.7108C115.215 89.7589 115.622 89.6522 115.949 89.4122C116.202 89.2077 116.38 88.926 116.457 88.6103C116.534 88.2947 116.506 87.9625 116.376 87.6646Z" fill="#FCFA9C"/>
<path d="M21.2455 99.3228C21.2149 99.1567 21.1248 99.0075 20.9921 98.9031C20.8494 98.8039 20.6746 98.7618 20.5023 98.7853L20.3367 98.8296C20.2341 98.8767 20.1445 98.9482 20.0758 99.0378C20.0583 99.0642 20.0368 99.0877 20.0121 99.1075C19.7816 99.3416 19.524 99.5472 19.2447 99.7201L19.1396 99.7851C18.9978 99.8543 18.8839 99.9696 18.8164 100.112C18.7554 100.278 18.7598 100.461 18.8289 100.624C18.9014 100.776 19.0269 100.897 19.182 100.964C19.2636 100.997 19.3511 101.012 19.439 101.01C19.527 101.008 19.6135 100.988 19.6934 100.951C19.9606 100.808 20.2135 100.64 20.4484 100.449C20.6891 100.263 20.9114 100.054 21.1123 99.8248C21.169 99.7591 21.2048 99.678 21.2153 99.5919C21.2507 99.5068 21.2611 99.4135 21.2455 99.3228Z" fill="#FCFA9C"/>
<path d="M18.7801 96.8229C18.7274 96.7561 18.6618 96.7007 18.5871 96.6599C18.5124 96.6191 18.4303 96.5938 18.3456 96.5855C18.1735 96.5686 18.0011 96.6165 17.8625 96.72L16.8195 97.609C16.6879 97.7213 16.603 97.8787 16.5814 98.0504C16.5621 98.2207 16.6107 98.3918 16.7166 98.5267C16.8276 98.6607 16.9848 98.7481 17.1572 98.7717C17.3305 98.7869 17.5032 98.7365 17.6411 98.6304L18.6772 97.7406C18.8094 97.6312 18.8964 97.4767 18.9214 97.3069C18.9366 97.1335 18.8862 96.9608 18.7801 96.8229Z" fill="#FCFA9C"/>
<path d="M18.906 94.6988C18.8687 94.5327 18.7716 94.3862 18.6334 94.2869C18.4951 94.1877 18.3252 94.1427 18.1559 94.1605C17.5742 94.2249 17.0057 94.3779 16.4702 94.6141C16.3177 94.6866 16.1968 94.8121 16.1302 94.9672C16.0691 95.1331 16.0735 95.316 16.1426 95.4787C16.2202 95.6309 16.3512 95.7493 16.5106 95.811C16.67 95.8727 16.8465 95.8734 17.0064 95.8131C17.183 95.7306 17.3658 95.6624 17.5533 95.609C17.818 95.5349 18.0879 95.4811 18.3608 95.4481C18.528 95.4122 18.6761 95.3159 18.7767 95.1777C18.8773 95.0394 18.9233 94.8689 18.906 94.6988Z" fill="#FCFA9C"/>
<path d="M24.9998 99.2809C25.0088 99.1098 24.9543 98.9415 24.8467 98.8082C24.7392 98.6749 24.5861 98.5861 24.4171 98.5588C24.2472 98.5497 24.0798 98.6033 23.9468 98.7095C23.8139 98.8156 23.7245 98.9669 23.6957 99.1346C23.5708 99.9251 23.5115 100.725 23.5184 101.525C23.5104 101.698 23.5601 101.868 23.6597 102.009C23.772 102.141 23.9294 102.226 24.1011 102.247C24.271 102.262 24.4406 102.214 24.5773 102.112C24.6462 102.059 24.7035 101.993 24.7457 101.917C24.7879 101.841 24.814 101.758 24.8224 101.671C24.8121 100.871 24.8714 100.071 24.9998 99.2809Z" fill="#FCFA9C"/>
<path d="M64.7197 84.5717L64.4959 84.4488C63.6433 83.963 62.757 83.539 61.8436 83.1801C61.6998 83.1778 61.5566 83.1618 61.4159 83.1321C58.9738 82.4809 56.3957 82.7925 53.9213 82.9899C51.34 83.3318 48.7194 83.2339 46.1708 82.7003C46.0033 82.6531 45.8518 82.5613 45.7326 82.4345C42.802 82.5878 39.8801 82.4766 37.1443 81.2055C37.0367 81.1524 36.9193 81.122 36.7995 81.1162C36.6796 81.1104 36.5599 81.1293 36.4476 81.1717C36.3354 81.2142 36.2331 81.2793 36.1471 81.3629C36.0611 81.4466 35.9932 81.5471 35.9477 81.6581L35.5171 81.4491C35.3651 81.383 35.1969 81.3641 35.0341 81.3949C34.9642 81.2072 34.8406 81.0442 34.6787 80.9263C34.5168 80.8083 34.3238 80.7406 34.1237 80.7315C33.9236 80.7225 33.7253 80.7725 33.5534 80.8754C33.3816 80.9783 33.2438 81.1295 33.1572 81.3101C31.8546 84.1402 36.2471 84.9055 37.9987 85.2347C40.8985 85.7384 43.8482 85.8935 46.7849 85.6965C52.4052 85.4188 58.371 84.0551 63.7878 86.2767C64.7695 86.6803 65.7035 85.1432 64.7197 84.5717Z" fill="#0197E0"/>
<path d="M85.1141 75.8661C83.2848 77.0746 81.2084 77.8585 79.0369 78.1605C78.9021 78.1775 78.7728 78.224 78.658 78.2966C78.5433 78.3693 78.446 78.4664 78.3731 78.581C78.3002 78.6956 78.2535 78.8248 78.2363 78.9596C78.219 79.0943 78.2317 79.2311 78.2735 79.3604C76.7873 79.5919 75.2936 79.7666 73.7891 79.9122C72.0643 80.025 70.3606 80.355 68.7185 80.8943C68.5843 80.7665 68.4159 80.6803 68.2337 80.6462C68.0515 80.6121 67.8634 80.6316 67.692 80.7023C65.7089 81.4336 64.008 82.7737 62.8331 84.5307C62.7275 84.6843 62.667 84.8642 62.6582 85.0503C62.6495 85.2364 62.6929 85.4212 62.7836 85.584C62.8743 85.7467 63.0087 85.8808 63.1716 85.9713C63.3345 86.0617 63.5194 86.1048 63.7055 86.0958C64.2531 86.6323 65.355 86.5254 65.356 85.5823C65.3568 85.3873 65.3786 85.193 65.421 85.0027C66.6758 84.0332 68.0625 83.2478 69.5393 82.6702C71.6562 81.9226 73.9656 81.8883 76.1802 81.6407C78.3963 81.4133 80.5909 81.0101 82.7431 80.4347C84.6336 79.8993 86.3354 78.8047 86.6926 76.7418C86.8852 75.8342 85.7908 75.439 85.1141 75.8661Z" fill="#0197E0"/>
<path d="M63.5718 82.3083C61.86 80.6281 59.5141 80.3649 57.2131 80.4491C54.3362 80.5595 51.4866 81.0502 48.6294 81.3585C44.1175 81.8443 38.943 81.8227 35.1214 79.1443C35.5078 79.1876 35.9011 79.2318 36.2944 79.2759C37.0824 79.4132 37.1955 78.343 36.6101 78.0188C35.57 77.418 34.7037 76.5577 34.0956 75.522C33.6624 74.7747 32.6441 75.6316 33.0742 76.3436C33.3925 76.8512 33.7662 77.3219 34.1883 77.7471C33.8571 77.7099 33.4913 77.7318 33.1685 77.7445C33.0557 77.7619 32.9494 77.8087 32.8602 77.8802C32.7711 77.9516 32.7023 78.0452 32.6606 78.1515C32.619 78.2579 32.606 78.3733 32.623 78.4863C32.6399 78.5992 32.6862 78.7057 32.7572 78.7952C36.3624 82.3436 41.5216 83.125 46.3798 82.8527C48.3911 82.736 50.3848 82.4636 52.3832 82.2128C55.9576 82.1644 59.5248 82.5482 63.0072 83.3558C63.1268 83.3502 63.243 83.3137 63.3443 83.2499C63.4457 83.1861 63.5289 83.0972 63.5857 82.9917C63.6425 82.8863 63.6711 82.7679 63.6687 82.6482C63.6663 82.5284 63.6329 82.4113 63.5718 82.3083Z" fill="#8FFFFB"/>
<path d="M86.1834 71.3382C86.9362 70.3193 87.4164 69.1252 87.5787 67.8688C87.547 67.7279 87.4722 67.6005 87.3646 67.5042C87.2571 67.4078 87.1222 67.3474 86.9788 67.3313C86.8353 67.3152 86.6904 67.3443 86.5642 67.4144C86.438 67.4845 86.3368 67.5922 86.2747 67.7225C86.1634 68.6398 85.8452 69.5199 85.3442 70.2963C84.8432 71.0728 84.1724 71.7253 83.3824 72.2047C83.2708 72.2903 83.1878 72.4078 83.1445 72.5416C83.1011 72.6753 83.0994 72.8191 83.1396 72.9539C83.1797 73.0887 83.2599 73.2081 83.3694 73.2963C83.4789 73.3845 83.6127 73.4374 83.7529 73.448C84.0878 73.4023 84.4184 73.3296 84.7415 73.2305C84.3481 73.7457 83.8829 74.2017 83.3599 74.5846C81.4949 75.7442 79.4708 76.6256 77.3514 77.2011C76.2877 77.466 75.2087 77.6175 74.1167 77.8233C70.1036 78.5957 66.0656 79.7146 62.8227 82.341C62.1696 82.8686 62.9835 83.8961 63.6374 83.3616C67.2463 80.4619 71.8093 79.5835 76.2464 78.7679C78.4968 78.4415 80.7114 77.904 82.8611 77.1625C83.8245 76.7955 84.3948 75.4483 85.1056 74.7176C85.9248 74.0302 86.4729 73.0739 86.6519 72.0196C86.6687 71.8687 86.6306 71.7168 86.5446 71.5916C86.4585 71.4665 86.3303 71.3766 86.1834 71.3382Z" fill="#8FFFFB"/>
<path d="M106.058 70.5078C105.818 69.7822 105.572 69.1049 105.322 68.4062C105.276 68.3198 105.213 68.2442 105.135 68.1842C105.058 68.1242 104.969 68.0812 104.874 68.058C104.779 68.0348 104.68 68.0319 104.584 68.0496C104.488 68.0673 104.396 68.1051 104.316 68.1605C100.959 70.8439 97.029 72.7172 92.8306 73.6349C92.7624 73.8854 92.6273 74.1127 92.4398 74.2922C92.2522 74.4718 92.0194 74.597 91.7661 74.6542C89.5059 75.3021 87.1451 75.5253 84.8036 75.3123C84.827 75.4318 84.8764 75.5446 84.9481 75.6429L84.8929 75.6367C84.0774 75.4334 83.938 76.7383 84.7466 76.9408C89.2094 78.026 93.8773 77.9359 98.2949 76.6792C100.483 76.0681 102.582 75.1739 104.539 74.0193C105.288 73.5723 106.525 73.0683 106.481 72.0294C106.416 71.5039 106.274 70.9911 106.058 70.5078Z" fill="#8FFFFB"/>
<path d="M74.2423 85.5868C74.1252 85.5894 74.0113 85.6259 73.9146 85.6919C73.8179 85.758 73.7424 85.8507 73.6975 85.9589C72.9768 87.5233 72.3641 89.1353 71.8637 90.7834C71.6182 91.6013 71.3927 92.4283 71.2009 93.2661C70.9437 94.034 70.8524 94.8477 70.9331 95.6534C70.9671 95.7707 71.0315 95.8769 71.1197 95.9613C71.2079 96.0457 71.3168 96.1054 71.4355 96.1343C71.5541 96.1632 71.6783 96.1603 71.7954 96.1259C71.9126 96.0915 72.0186 96.0268 72.1028 95.9384C72.989 94.6405 73.3427 92.9824 73.7928 91.461C74.2899 89.7701 74.7806 88.0739 75.265 86.3723C75.3027 86.2387 75.2994 86.0968 75.2557 85.9651C75.212 85.8333 75.1298 85.7177 75.0197 85.6332C74.9096 85.5486 74.7766 85.499 74.6381 85.4907C74.4995 85.4825 74.3616 85.516 74.2423 85.5868Z" fill="#0197E0"/>
<path d="M114.578 96.0082C113.711 95.131 113.161 93.9902 113.014 92.7656C112.952 92.2557 112.787 92.0416 112.342 92.2151C110.607 92.852 105.522 92.8473 104.201 92.7899C101.508 92.6369 98.8286 92.3106 96.1781 91.813C93.6186 91.3371 87.3634 89.4267 81.5181 87.1011C79.5808 86.1851 77.6711 85.2722 75.773 84.2558C75.0267 83.8716 74.5477 85.0894 75.2872 85.4728C84.5793 90.2671 94.2693 94.3794 104.706 95.76C107.812 96.1574 110.916 96.4566 113.994 97.1024C114.123 97.1055 114.25 97.0728 114.361 97.0079C114.472 96.9431 114.563 96.8487 114.623 96.7352C114.684 96.6217 114.712 96.4937 114.704 96.3653C114.696 96.2369 114.652 96.1133 114.578 96.0082Z" fill="#0197E0"/>
<path d="M66.9794 89.6471C68.2669 87.1745 69.1659 84.5183 69.6445 81.7719C69.7934 80.9432 68.4962 80.7977 68.3474 81.6264C67.7956 84.7595 66.665 87.7625 65.0134 90.4815C64.371 91.4118 63.7948 92.386 63.289 93.397C63.2028 93.4156 63.1225 93.4549 63.0549 93.5116C62.9874 93.5682 62.9347 93.6405 62.9015 93.7222C62.8682 93.8038 62.8554 93.8923 62.8641 93.98C62.8728 94.0677 62.9028 94.152 62.9515 94.2255L62.9806 94.2777C62.8073 94.7986 62.7853 95.3581 62.9171 95.891C63.049 96.424 63.3294 96.9086 63.7257 97.2886C63.8136 97.375 63.923 97.4364 64.0425 97.4666C64.1621 97.4967 64.2875 97.4945 64.4059 97.4601C64.5242 97.4257 64.6313 97.3604 64.7162 97.2709C64.801 97.1815 64.8604 97.071 64.8884 96.951C64.9654 95.9841 64.785 95.0141 64.3654 94.1396C64.4926 93.7768 64.6558 93.4277 64.8527 93.0974C65.5692 91.9412 66.3486 90.8479 66.9794 89.6471Z" fill="#0197E0"/>
<path d="M59.363 82.9447L54.5391 89.8861L53.3649 91.5708C53.1162 92.0287 52.7528 92.414 52.3103 92.6891C51.4066 93.1466 50.3837 93.2345 49.6116 93.9513C49.5239 94.0506 49.4665 94.1729 49.4461 94.3038C49.4256 94.4346 49.4431 94.5686 49.4963 94.6899C49.5495 94.8112 49.6363 94.9147 49.7465 94.9882C49.8566 95.0618 49.9855 95.1023 50.1179 95.105C51.2519 95.0657 52.3584 94.7458 53.3384 94.1738C53.4785 94.0909 53.585 93.9613 53.6393 93.8077C53.6936 93.6542 53.6921 93.4864 53.6352 93.3338C54.3299 92.5957 54.9371 91.7801 55.445 90.9029L60.4363 83.7778C60.8895 83.0391 59.8391 82.2506 59.363 82.9447Z" fill="#0197E0"/>
<path d="M32.8947 16.3941C32.8433 16.4792 32.7987 16.565 32.7541 16.6508C32.6243 16.5903 32.4831 16.5582 32.34 16.5566C32.1968 16.555 32.0549 16.5839 31.9238 16.6415C31.2998 16.8995 30.7041 17.2213 30.1463 17.6019C29.321 18.0044 28.542 18.4956 27.8231 19.0669C26.6298 19.988 24.9564 21.1416 24.5338 22.6662C24.3704 23.4434 24.3636 24.2454 24.5137 25.0254C24.6406 26.0107 24.7883 26.9984 24.9429 27.9869C25.0838 28.8481 25.2393 29.7039 25.4017 30.5605C25.2941 30.6319 25.2085 30.7319 25.1546 30.8493C25.1007 30.9667 25.0806 31.0968 25.0966 31.2249C25.3077 33.8175 25.8574 36.3712 26.7316 38.8211C26.7815 38.9095 26.8501 38.986 26.9327 39.045C27.0153 39.1041 27.1099 39.1443 27.2098 39.1628C27.3096 39.1814 27.4123 39.1778 27.5106 39.1523C27.6089 39.1268 27.7004 39.0801 27.7787 39.0154C29.7016 37.2425 31.8045 35.6755 34.0532 34.3397C34.1811 34.2706 34.2841 34.1631 34.3477 34.0324C34.4112 33.9016 34.4321 33.7542 34.4074 33.611C34.1591 32.8355 33.8855 32.0363 33.6755 31.2303C33.5652 30.4075 33.4472 29.5908 33.33 28.7672C32.85 25.262 32.4728 21.6496 33.536 18.2127C33.5599 18.1228 33.5703 18.0298 33.567 17.9367C33.7015 17.6724 33.8359 17.408 33.9972 17.1536C34.4933 16.4058 33.3402 15.6616 32.8947 16.3941Z" fill="#4A7084"/>
<path d="M70.6705 11.9382C68.5353 10.4201 65.5344 11.1384 63.1747 11.5583C60.0605 12.1032 56.9454 12.7179 53.8777 13.4706C51.4221 13.9739 49.07 14.8912 46.9222 16.1835C45.3275 16.4989 43.8751 17.315 42.7763 18.5129C41.4935 20.0458 41.1347 22.1224 40.7601 24.0296C40.3324 26.2534 40.0795 28.5073 40.0038 30.7706C39.9941 30.8972 40.024 31.0236 40.0894 31.1323C40.1548 31.2411 40.2525 31.3268 40.3689 31.3775C40.3845 31.6057 40.4769 31.8219 40.631 31.991C40.7851 32.16 40.9919 32.272 41.2177 32.3087C41.4435 32.3453 41.675 32.3045 41.8747 32.1929C42.0744 32.0813 42.2305 31.9054 42.3175 31.6939C48.331 30.403 54.392 29.3946 60.5005 28.6687C62.0341 28.4914 63.5685 28.3282 65.1036 28.1791C66.3957 28.0586 67.9444 28.1415 69.0409 27.3353C70.1374 26.5291 70.3681 25.1577 70.6906 24.0271C71.0761 22.6225 71.3739 21.1952 71.5822 19.7536C71.7911 18.2985 71.8997 16.8307 71.9074 15.3606C71.9119 14.0128 71.842 12.7683 70.6705 11.9382Z" fill="#89A1AE"/>
<path d="M53.059 10.7174C47.1886 12.1547 41.3967 13.8951 35.7064 15.9317C35.621 15.8862 35.5271 15.8589 35.4305 15.8518C35.334 15.8447 35.2371 15.8578 35.1459 15.8903C35.0548 15.9228 34.9715 15.9741 34.9013 16.0407C34.8311 16.1073 34.7756 16.1879 34.7384 16.2773C33.8124 18.3043 33.9626 20.5149 34.0201 22.6802C34.1269 25.2772 33.7945 27.8668 33.9374 30.4539C33.9676 31.0268 34.0271 31.5978 34.1157 32.1646C34.1522 32.7386 34.2927 33.3012 34.5303 33.825C35.1212 34.7856 36.2684 33.8384 36.9389 33.4664L38.6052 32.5635C39.0448 32.3194 39.6638 32.0954 39.9388 31.6372C40.1254 31.1881 40.1807 30.6952 40.0982 30.2159C40.1066 29.5181 40.102 28.8749 40.1211 28.2063C40.0828 25.7 40.4149 23.2017 41.1066 20.7924C41.4295 19.666 42.0454 18.6454 42.8916 17.8348C43.8563 17.0781 44.9428 16.4913 46.1045 16.0993C48.5767 15.1121 51.1758 14.4884 53.6679 13.5105C54.4725 13.1885 55.1756 12.5269 54.9972 11.5637C54.8679 10.5361 53.9134 10.5129 53.059 10.7174Z" fill="white"/>
<path d="M54.4256 10.7783C53.8433 10.3636 52.6997 10.7803 52.0739 10.8778C50.0057 11.1907 47.9421 11.5251 45.8961 11.9522C42.3082 12.6311 38.824 13.7737 35.531 15.3515C35.2057 14.7631 34.3355 14.7982 34.1788 15.7587C34.1641 15.8898 34.1486 16.0278 34.1339 16.1589C34.0695 16.2528 34.0293 16.361 34.0166 16.4741C34.0039 16.5872 34.0192 16.7017 34.0611 16.8075C33.2721 22.3102 33.245 27.8953 33.9805 33.4054C34.0143 33.5559 34.0817 33.6969 34.1777 33.8176C34.2738 33.9383 34.396 34.0357 34.5351 34.1024C34.6742 34.1691 34.8266 34.2034 34.9809 34.2028C35.1352 34.2021 35.2873 34.1664 35.4258 34.0985L39.0885 32.5882C40.2767 32.0857 40.5485 30.3486 39.3534 30.8503L35.8408 31.7697C35.2796 26.7463 35.5083 18.6676 36.2058 17.3695C36.9034 16.0714 41.2346 14.643 44.2793 13.9087C45.9082 13.5256 47.6538 12.9738 49.3064 12.6912C50.1331 12.5464 50.9582 12.4154 51.7918 12.2714C52.2328 12.2021 53.1615 11.9569 53.6522 11.9421C53.7584 12.3034 53.7809 12.788 53.8381 13.0878C53.9061 13.2256 54.0179 13.3369 54.1559 13.4044C54.294 13.4718 54.4505 13.4916 54.601 13.4605C54.7515 13.4295 54.8874 13.3494 54.9875 13.2328C55.0876 13.1162 55.1462 12.9697 55.1541 12.8163C54.9692 12.2226 54.9887 11.1768 54.4256 10.7783Z" fill="#CDEAFC"/>
<path d="M70.3228 10.7397C68.4801 10.2885 66.2807 10.6495 64.425 10.8745C60.2302 11.4054 56.0855 12.2769 52.032 13.4804C50.0568 14.045 48.115 14.7205 46.2158 15.5037C44.5432 16.1094 43.081 17.185 42.0047 18.6013C40.8912 20.244 40.426 22.2738 39.9815 24.1801C39.4956 26.8794 39.1711 29.6052 39.0098 32.3431L39.1823 32.3625L39.686 32.3561C39.9122 32.3326 40.1392 32.3022 40.3946 32.2679C40.6712 28.8057 41.0988 24.0609 42.3657 20.9264C42.9529 19.381 44.0912 18.1076 45.5614 17.3515C47.1478 16.5656 48.7983 15.9163 50.495 15.4109C54.0637 14.2405 57.7105 13.3235 61.4084 12.6669C63.283 12.3156 65.1764 12.0732 67.0791 11.9408C67.9475 11.8491 68.8233 11.8513 69.6913 11.9474C70.7829 12.1188 71.1801 12.8131 71.215 13.872C71.2184 15.8135 71.0477 17.7514 70.7051 19.6625C70.3204 22.043 69.7948 24.3986 69.1311 26.7169C68.878 27.5409 70.1387 28.0107 70.385 27.186C71.6598 22.9953 72.3815 18.6559 72.5318 14.2782C72.5795 12.6697 72.0705 11.1664 70.3228 10.7397Z" fill="black"/>
<path d="M54.9285 9.91222C54.5085 9.75053 54.0497 9.71852 53.6113 9.82033C52.7939 9.94519 51.984 10.1268 51.1688 10.2939C48.0944 10.92 45.0343 11.6666 42.0164 12.5367C40.5223 12.9629 39.0459 13.4191 37.5733 13.9036C36.3622 14.2987 35.0431 14.6607 34.1886 15.6757C33.5385 16.545 33.1548 17.5845 33.0844 18.6678C32.9206 20.1368 32.8435 21.6142 32.8535 23.0923C32.8545 27.0467 33.1471 30.9956 33.7287 34.9069L33.8761 34.7767C34.0891 34.5995 34.3128 34.4356 34.5459 34.286C34.6772 34.2149 34.8226 34.174 34.9716 34.166C34.4481 30.4895 34.1848 26.7805 34.1838 23.0669C34.1737 21.5589 34.2611 20.0518 34.4455 18.555C34.5106 17.8678 34.7456 17.2075 35.1291 16.6336C35.6209 16.0907 36.259 15.7014 36.9666 15.5123C40.1651 14.394 43.4199 13.4439 46.7178 12.6659C48.3206 12.2659 49.9396 11.9096 51.5623 11.5816L52.8629 11.3223C53.2552 11.2034 53.6596 11.1293 54.0685 11.1012C54.7584 11.1787 54.8328 11.8856 54.9211 12.4684C54.9841 12.6083 55.0916 12.7233 55.2269 12.7955C55.3621 12.8678 55.5175 12.8933 55.6687 12.868C55.82 12.8426 55.9586 12.768 56.0629 12.6556C56.1673 12.5432 56.2314 12.3995 56.2455 12.2468C56.113 11.3725 55.8259 10.3203 54.9285 9.91222Z" fill="black"/>
<path d="M34.7015 15.1546C32.2523 15.5976 29.9275 16.5641 27.8861 17.988C26.9604 18.5434 26.1616 19.2869 25.5414 20.1705C24.9212 21.0541 24.4933 22.058 24.2855 23.1173C23.7961 25.4867 24.0164 28.0685 24.2293 30.4678C24.5821 33.774 25.1717 37.0505 25.9938 40.2722C26.2152 41.1005 27.5396 40.8788 27.3189 40.0437C26.5771 37.1361 26.0192 34.1847 25.6485 31.2069C25.3406 28.9122 25.2778 26.5912 25.4611 24.2832C25.534 23.2502 25.8484 22.2487 26.379 21.3593C26.9095 20.4699 27.6415 19.7174 28.5159 19.1625C30.4323 17.8086 32.6219 16.8906 34.9308 16.4728C35.7812 16.3656 35.5588 15.0482 34.7015 15.1546Z" fill="black"/>
<path d="M36.5078 13.4725C36.4013 13.3479 36.2629 13.2547 36.1075 13.2028C35.9521 13.1509 35.7855 13.1423 35.6256 13.1779C32.7903 13.8518 31.9055 14.577 31.5892 14.9677C31.4681 15.113 31.4021 15.2962 31.4026 15.4853C31.4031 15.6744 31.4701 15.8573 31.5919 16.002C31.8315 16.2342 32.1433 16.3776 32.4755 16.4085C32.9861 16.4486 33.4989 16.3647 33.9701 16.164C34.4371 15.9991 34.8851 15.7847 35.3064 15.5245C35.5465 15.3767 35.7875 15.2221 36.0084 15.0583C36.2802 14.8929 36.5022 14.6571 36.6509 14.3758C36.7143 14.227 36.7345 14.0633 36.7092 13.9036C36.6839 13.7438 36.6141 13.5944 36.5078 13.4725Z" fill="black"/>
<path d="M46.3907 17.8082C46.2077 17.7877 46.0241 17.8407 45.8801 17.9556C45.7362 18.0704 45.6438 18.2378 45.6233 18.4208C45.2188 20.9883 44.8764 23.5629 44.5961 26.1444C44.581 26.328 44.6396 26.5101 44.7588 26.6505C44.8779 26.791 45.0481 26.8784 45.2317 26.8934C45.4153 26.9084 45.5973 26.8499 45.7378 26.7307C45.8783 26.6115 45.9656 26.4414 45.9807 26.2578C46.2702 23.6773 46.6011 21.1015 47.001 18.5334C47.0101 18.3577 46.9521 18.1851 46.8388 18.0505C46.7256 17.9159 46.5654 17.8293 46.3907 17.8082Z" fill="white"/>
<path d="M51.969 20.2072C51.8274 19.6583 51.5435 19.1566 51.146 18.7526C50.7485 18.3486 50.2514 18.0566 49.705 17.9061C48.346 17.565 47.0175 18.0727 45.8015 18.6978C45.7443 19.2084 45.687 19.7189 45.6711 20.2342C45.7911 20.24 45.9103 20.2122 46.0154 20.154C47.0657 19.5732 48.4006 18.8217 49.6 19.3405C50.0063 19.5541 50.3307 19.896 50.5227 20.313C50.7147 20.73 50.7636 21.1988 50.6617 21.6464C50.5361 22.1473 50.3004 22.6138 49.9717 23.012C49.643 23.4103 49.2296 23.7302 48.7616 23.9484C47.6391 24.4581 46.4175 24.7124 45.1848 24.6929C45.1322 25.1621 45.0803 25.6243 44.9955 26.069C47.3947 25.9818 50.0603 25.5124 51.4405 23.2988C51.7396 22.849 51.9412 22.3414 52.0322 21.809C52.1232 21.2765 52.1017 20.7308 51.969 20.2072Z" fill="white"/>
<path d="M61.822 22.7738C60.3791 20.3157 59.0057 17.8188 57.7019 15.2832C57.6432 15.1576 57.5482 15.0525 57.4292 14.9815C57.3102 14.9104 57.1726 14.8765 57.0342 14.8843C56.8958 14.8921 56.7629 14.9411 56.6526 15.0251C56.5423 15.109 56.4597 15.2241 56.4153 15.3554C55.3507 18.1191 54.2815 20.8822 53.2077 23.6448C52.8832 24.4817 54.1938 24.9432 54.5528 24.1101L57.2076 17.2608C58.3033 19.326 59.429 21.3736 60.6068 23.3921C61.017 24.1577 62.2727 23.551 61.822 22.7738Z" fill="white"/>
<path d="M59.0207 20.0124C57.4845 20.2025 55.9723 20.5527 54.5089 21.0572C54.4265 21.0976 54.3528 21.1539 54.2923 21.223C54.2318 21.292 54.1856 21.3724 54.1563 21.4594C54.127 21.5465 54.1153 21.6384 54.1219 21.73C54.1284 21.8216 54.153 21.911 54.1943 21.993C54.2761 22.1576 54.4198 22.2831 54.5939 22.3419C54.7681 22.4008 54.9584 22.3881 55.1233 22.3068C56.4764 21.8581 57.8713 21.5465 59.2868 21.3766C59.4676 21.3422 59.6273 21.2374 59.7308 21.0852C59.8343 20.9331 59.8732 20.7461 59.8389 20.5653C59.822 20.475 59.7873 20.389 59.7369 20.3122C59.6865 20.2354 59.6214 20.1694 59.5453 20.118C59.4691 20.0665 59.3836 20.0307 59.2935 20.0126C59.2035 19.9945 59.1107 19.9944 59.0207 20.0124Z" fill="white"/>
<path d="M67.2362 14.1254C66.585 13.703 65.9132 13.8372 64.943 14.0777C63.8418 14.5841 62.9852 15.5049 62.5596 16.6398C62.2434 17.5193 62.0871 18.4482 62.0982 19.3827C62.0426 20.3625 62.2676 21.3378 62.7469 22.1942C63.8346 23.8952 65.9384 23.9495 67.4807 22.844C69.023 21.7385 69.3374 19.5591 69.2736 18.1966C69.2084 16.1003 68.5541 14.9579 67.2362 14.1254ZM67.2079 21.2275C66.4909 22.0763 65.0373 22.7027 64.1627 21.7172C63.2882 20.7318 63.4089 18.9708 63.6977 17.7666C63.9865 16.5624 64.9944 14.8031 66.3557 15.1864C68.0281 15.6604 68.6827 19.4787 67.2079 21.2275Z" fill="white"/>
<path d="M26.2292 46.4887C25.1874 46.2728 24.1308 46.1356 23.0684 46.0782C22.5192 46.039 21.9888 45.8617 21.5263 45.5629C21.0853 45.3665 20.7012 45.0613 20.4102 44.6761C19.9449 43.9438 19.7053 43.0908 19.7212 42.2234C19.602 39.6739 19.7842 37.1163 19.448 34.5704C19.4299 34.3752 19.4632 34.1787 19.5445 34.0003C19.6258 33.822 19.7523 33.6679 19.9114 33.5535C19.758 33.1762 19.4638 32.8733 19.0911 32.7089C18.7184 32.5446 18.2964 32.5316 17.9143 32.6727C17.0502 32.9977 16.2844 33.5397 15.6907 34.2467C14.9968 34.9472 14.3747 35.7153 13.8335 36.5395C11.7286 39.6709 11.3088 42.8515 10.4409 46.478C9.95335 48.5192 9.13372 51.4035 10.6523 53.1249C11.9947 54.6728 14.2142 55.5017 16.0636 56.2052C17.2646 56.6746 18.4951 57.0647 19.7472 57.3731C20.9506 57.6688 22.1574 57.6854 22.7231 56.3795C23.7516 54.0007 24.5179 51.4667 25.3892 48.9935L25.6238 49.0198C27.2801 49.5759 27.8534 46.9574 26.2292 46.4887Z" fill="#C4D502"/>
<path d="M19.0177 32.4954C18.8615 32.4368 18.6946 32.4125 18.5282 32.4239C18.3618 32.4354 18.1998 32.4824 18.0531 32.5618C17.8924 32.479 17.7138 32.4372 17.5331 32.4401C17.3524 32.443 17.1752 32.4904 17.0173 32.5783C16.4358 32.9522 15.9665 33.4765 15.6593 34.0957C15.2921 34.7532 14.9594 35.4145 14.6405 36.0774C13.9994 37.4438 13.4363 38.8455 12.9538 40.2757C12.914 40.4896 12.9441 40.7107 13.0397 40.9062C13.1352 41.1018 13.2912 41.2613 13.4845 41.3614C13.6777 41.4614 13.898 41.4966 14.1129 41.4617C14.3277 41.4268 14.5255 41.3237 14.6772 41.1677L15.8143 39.6884C15.839 40.1806 15.8889 40.6712 15.9638 41.1583C15.984 41.5624 16.1494 41.9457 16.4296 42.2376C16.6066 42.3967 16.8257 42.5012 17.0607 42.5387C17.2957 42.5763 17.5365 42.5451 17.7543 42.4491C18.4883 42.1332 18.7016 41.2908 18.8994 40.5864C19.2243 39.2681 19.4472 37.9267 19.5662 36.5741C19.649 35.8359 19.7318 35.0976 19.8146 34.3593C19.8975 33.6211 19.8386 32.7761 19.0177 32.4954Z" fill="#FCFA9C"/>
<path d="M22.8343 55.7688C19.0635 55.0663 13.9443 53.43 12.351 51.3789C11.7384 50.6115 12.0226 49.4487 12.0268 48.4151C12.0301 46.7038 12.256 43.4455 12.8305 41.8122C13.1242 40.9998 11.6938 42.1668 11.4069 42.9799C10.8378 44.8563 10.5943 46.8163 10.6869 48.7748C10.688 49.2447 10.7146 49.7141 10.7667 50.1811C10.5807 50.0976 10.3732 50.0744 10.1733 50.1145C10.2068 50.3768 10.2464 50.6467 10.2867 50.9097L10.2805 50.9649C10.272 51.0408 10.3118 51.1221 10.3309 51.2011C10.35 51.2801 10.3964 51.5508 10.433 51.7226C10.4918 52.0086 10.5574 52.2955 10.6238 52.5754C11.0168 52.871 11.4191 53.1467 11.8229 53.4086C11.9415 53.5965 12.067 53.7853 12.2002 53.9679C12.2379 54.0286 12.2877 54.0808 12.3466 54.1211C12.4055 54.1614 12.4722 54.1891 12.5424 54.2022C12.6126 54.2153 12.6847 54.2137 12.7542 54.1974C12.8237 54.1811 12.8891 54.1505 12.9461 54.1075C15.8494 55.8571 19.0418 57.0741 22.3729 57.7012C23.6569 57.964 24.1091 55.9887 22.8343 55.7688Z" fill="#92B102"/>
<path d="M26.9291 46.4772C25.6989 46.3664 24.4847 46.1201 23.3086 45.7426C22.4111 45.4603 20.75 45.0713 20.5104 44.0314C20.4242 43.4408 20.3953 42.8432 20.4241 42.2471C20.408 41.6025 20.3964 40.9585 20.3894 40.3149C20.3784 39.126 20.3858 37.9391 20.4116 36.7543C20.4455 35.1442 20.8014 32.8437 19.0267 31.9738C17.2519 31.104 15.9878 33.0302 15.1393 34.1786C12.9663 37.3342 11.3975 40.8656 10.5125 44.5934C9.89776 46.559 9.59014 48.6077 9.60052 50.6672C9.64742 51.5218 9.9127 52.3502 10.371 53.0731C10.8293 53.7961 11.4653 54.3894 12.2183 54.7965C13.87 55.74 15.6184 56.503 17.4334 57.0723C19.2057 57.6837 21.0189 58.1696 22.8595 58.5264C22.8604 58.3895 22.8757 58.2531 22.9051 58.1193C22.94 57.8089 22.974 57.5053 23.0779 57.2025C21.2672 56.8497 19.4837 56.3695 17.7407 55.7654C15.9112 55.1339 13.7897 54.4278 12.2652 53.1948C10.6443 51.8881 10.8373 49.8558 11.1384 47.9822C11.4361 46.1889 11.8681 44.4204 12.4306 42.6917C12.9556 41.022 13.6214 39.3999 14.4208 37.8428C15.1884 36.3569 16.1587 34.4956 17.4855 33.4428C18.6818 32.4941 19.0934 34.0563 19.0947 34.9787C19.0961 35.9011 19.0391 36.8448 19.0266 37.7657C18.9977 39.7047 18.9956 41.6537 19.1078 43.5806C19.0936 43.9532 19.1546 44.3249 19.2871 44.6734C19.4196 45.022 19.621 45.3403 19.8792 45.6094C20.4736 46.0658 21.1443 46.4131 21.8601 46.6351C23.5047 47.2702 25.2319 47.6663 26.989 47.8113C27.8599 47.8951 27.787 46.5524 26.9291 46.4772Z" fill="black"/>
<path d="M93.2051 26.8606C92.7321 26.032 92.2193 25.185 91.6712 24.341C90.9138 23.5574 90.1133 22.8458 89.306 22.1334C88.3504 21.2615 87.3427 20.4485 86.2885 19.6989C85.409 19.1873 84.5844 18.5868 83.8277 17.9067C83.4643 17.8906 83.1046 17.9859 82.7969 18.1799C82.4892 18.3739 82.2481 18.6573 82.106 18.9921C81.8531 19.779 81.8735 20.6282 82.164 21.402C82.4382 22.4168 82.7944 23.4077 83.2289 24.365C83.6396 25.3123 84.094 26.2436 84.4464 27.2123C84.7301 27.9847 85.1431 28.9114 84.706 29.6937C84.6116 29.8608 84.5027 30.0193 84.3804 30.1672C84.293 30.6622 84.1093 31.1353 83.8399 31.5598C82.9276 32.8252 81.759 33.8844 80.4101 34.6682C79.7503 34.3217 78.9528 35.2034 79.594 35.7154C80.6988 36.6607 81.723 37.6964 82.656 38.8117L82.7532 38.9413C82.6894 39.1174 82.6619 39.3046 82.6724 39.4916C82.6828 39.6786 82.7309 39.8616 82.8139 40.0295C82.8969 40.1974 83.013 40.3468 83.1552 40.4687C83.2974 40.5906 83.4628 40.6824 83.6415 40.7387C83.8724 40.7786 84.0849 40.8904 84.2484 41.0583C84.397 41.2598 84.4819 41.5011 84.4925 41.7513C84.503 42.0014 84.4386 42.249 84.3074 42.4623C84.2095 42.5703 84.148 42.7064 84.1318 42.8513C84.1155 42.9962 84.1453 43.1425 84.2169 43.2695C84.863 44.1734 85.8278 43.9812 86.6541 43.4661C87.6837 42.8201 88.6896 42.1365 89.6756 41.4437C90.3278 40.9859 90.9616 40.505 91.5893 40.0165C92.8893 39.1243 94.0691 38.0686 95.0997 36.8752C96.4354 35.3064 96.4049 33.71 95.6609 31.873C94.9562 30.1487 94.1358 28.4741 93.2051 26.8606Z" fill="#C4D502"/>
<path d="M84.146 18.9345L84.0977 18.9291C83.9337 18.7981 83.7281 18.7303 83.5183 18.7383C83.2521 18.7401 82.9973 18.8464 82.8089 19.0344C82.6205 19.2225 82.5136 19.477 82.5113 19.7432C82.5918 20.8778 82.7621 22.0042 83.0206 23.1119C83.1427 23.6426 83.2932 24.1695 83.4582 24.6911C83.6032 25.257 83.819 25.8023 84.1005 26.3142C84.2868 26.6286 84.5868 26.8594 84.9386 26.9587C85.2903 27.058 85.6668 27.0182 85.9899 26.8475C86.2416 26.6536 86.4406 26.3996 86.5684 26.1087C86.6963 25.8179 86.749 25.4995 86.7216 25.183C86.7271 25.1347 86.7317 25.0933 86.7364 25.0519L87.0152 25.3067C87.1747 25.4615 87.3691 25.5756 87.582 25.6396C87.7949 25.7037 88.02 25.7156 88.2385 25.6745C88.4143 25.633 88.5789 25.5534 88.7206 25.4413C88.8623 25.3293 88.9778 25.1875 89.0588 25.026C89.2996 24.4406 89.3207 23.788 89.1182 23.1882C88.489 20.8261 86.2045 19.7663 84.146 18.9345Z" fill="#FCFA9C"/>
<path d="M96.2242 34.5206C96.2635 33.5394 96.0767 32.5623 95.6783 31.6648C95.619 31.5553 95.5278 31.4666 95.4167 31.4104C95.3057 31.3543 95.1801 31.3333 95.0568 31.3505C94.5608 29.5804 93.8846 27.8658 93.0389 26.2335C92.6648 25.458 91.5634 25.8095 91.9375 26.5851C92.7767 28.3267 93.4197 30.1563 93.8546 32.04C94.0347 32.8637 94.8653 35.486 90.3485 38.3817C88.524 39.5743 86.734 40.7707 84.9301 41.9657C83.8521 42.6691 84.8662 44.4038 85.9518 43.6942C87.8178 42.5062 89.7167 41.2731 91.549 40.0115C92.589 39.3006 93.5837 38.5255 94.5271 37.6907L94.7012 37.6334C95.2101 37.3938 95.6111 36.9729 95.8258 36.4531C95.977 36.2884 96.1343 36.1314 96.2786 35.9659C96.45 35.7722 96.5431 35.5215 96.5398 35.2629C96.5366 35.0042 96.4372 34.756 96.261 34.5667L96.2242 34.5206Z" fill="#92B102"/>
<path d="M94.0981 27.5139C92.1175 24.2248 89.5452 21.3306 86.5114 18.9776C85.3399 18.1475 83.4821 16.7723 82.1343 18.0743C80.7866 19.3763 81.7473 21.5241 82.2747 23.0504C82.6661 24.1703 83.036 25.2947 83.3844 26.4237C83.5731 27.0457 83.7626 27.6608 83.9444 28.282C84.1534 28.8399 84.3086 29.4164 84.4079 30.0038C84.4973 31.0758 83.0373 31.946 82.2769 32.4965C80.8895 33.4643 79.4356 34.3331 77.926 35.0964C78.1206 35.23 78.3229 35.3575 78.5167 35.498C78.7031 35.6042 78.8592 35.7564 78.9702 35.9401L79.0537 36.0054C80.767 35.1184 82.3967 34.0783 83.9226 32.8977C84.5365 32.4753 85.0692 31.9458 85.4953 31.3345C85.6582 30.9991 85.752 30.6344 85.771 30.262C85.7899 29.8896 85.7337 29.5173 85.6057 29.1671C85.117 27.2957 84.5217 25.4404 83.9026 23.6104C83.6038 22.7245 83.262 21.8477 82.9769 20.9634C82.6919 20.0791 82.607 18.4696 84.0371 18.9864C85.632 19.5915 87.1164 21.0575 88.302 22.2595C89.5408 23.4955 90.6713 24.8355 91.6812 26.2646C92.7605 27.7318 93.7267 29.2789 94.5714 30.8926C95.4299 32.5818 96.2667 34.4643 95.0932 36.205C94.0158 37.8377 92.2118 39.1584 90.6695 40.3268C88.9462 41.624 87.1203 42.779 85.2098 43.7804C84.4656 44.1859 85.133 45.3367 85.8978 44.9335C87.8059 43.928 89.6315 42.7731 91.3575 41.4799C92.912 40.382 94.3422 39.1182 95.623 37.7106C96.2198 37.0914 96.6467 36.3286 96.8625 35.4961C97.0783 34.6636 97.0756 33.7895 96.8548 32.9583C96.2212 31.0126 95.2914 29.1762 94.0981 27.5139Z" fill="black"/>
<path d="M91.2247 43.9977L91.142 43.8627C90.9606 43.6118 90.7561 43.3792 90.5601 43.1337C90.3641 42.8881 90.2439 42.7139 90.1015 42.4884C89.9787 42.2758 89.8822 42.0492 89.814 41.8134C89.784 41.6131 89.8069 41.4086 89.8805 41.22C89.9399 41.0531 90.0357 40.9016 90.1609 40.7763C89.8808 40.2209 89.5862 39.6709 89.2625 39.1315C89.4487 38.871 89.5462 38.5575 89.5406 38.2374C89.535 37.9172 89.4266 37.6073 89.2314 37.3535C86.9941 34.7826 84.2103 32.7444 81.0837 31.3881C80.0292 30.9331 78.9399 30.5633 77.8263 30.2821C77.8341 30.2131 77.8824 30.1556 77.904 30.0882C77.9609 29.8922 77.9739 29.6861 77.9421 29.4846C77.9103 29.283 77.8345 29.0909 77.7201 28.922C77.6056 28.7531 77.4553 28.6114 77.2799 28.5072C77.1045 28.4029 76.9083 28.3386 76.7052 28.3188C68.9016 27.7318 61.0597 27.8955 53.2875 28.8075L53.5838 28.4705L53.1612 28.5628C51.87 28.8305 50.6006 29.1949 49.364 29.6528L49.1017 29.7492C48.2032 29.8164 47.3089 29.9306 46.4224 30.0913C46.255 30.1139 46.0976 30.184 45.9689 30.2934C45.8402 30.4028 45.7456 30.5469 45.6964 30.7085C45.0962 30.808 44.4856 30.8287 43.88 30.7702C43.8668 30.8875 43.8537 31.0048 43.8413 31.1152C43.0275 30.7095 41.7396 31.1659 40.8516 31.3597C38.3865 31.8369 36.0219 32.7344 33.8608 34.0127C31.6152 35.3467 29.0884 36.5094 27.3336 38.4504C27.4841 38.6237 27.5893 38.8316 27.6397 39.0555C27.6902 39.2794 27.6844 39.5123 27.6228 39.7334C27.6127 39.8231 27.5605 39.9151 27.5298 40.0025C27.5872 40.2328 27.5845 40.4741 27.5221 40.7031C27.4597 40.9322 27.3397 41.1414 27.1734 41.3109C26.937 41.5498 26.6998 41.7957 26.4764 42.0431C26.3659 42.1565 26.2622 42.2706 26.1578 42.3916L26.0611 42.5065L25.9651 42.6145C25.5775 43.0811 25.2081 43.5706 24.8649 44.077C24.5173 44.597 24.2022 45.1379 23.9216 45.6969L23.9177 45.7314C23.91 45.8004 23.8547 45.857 23.8263 45.9237C23.7978 45.9904 23.6856 46.2433 23.6257 46.4042C23.5019 46.6978 23.3912 46.9997 23.2866 47.3094C23.1912 47.5788 23.0068 47.8077 22.7638 47.9583C22.5208 48.1089 22.2338 48.1721 21.9501 48.1375C21.3931 49.4205 20.9385 50.7455 20.5903 52.1C19.5626 55.7837 19.7351 59.6989 21.0828 63.2778C21.2353 63.2104 21.3982 63.1696 21.5644 63.1572C21.8368 63.1347 22.109 63.202 22.3394 63.3489C22.609 63.5255 22.8029 63.7964 22.8829 64.1086C22.9805 64.6086 23.0989 65.1109 23.2325 65.601C23.47 65.578 23.6969 65.4917 23.8896 65.3511C24.0824 65.2105 24.2338 65.0208 24.3282 64.8017C25.5192 67.8952 27.4132 70.6693 29.8607 72.905C33.5828 76.2452 38.3205 78.2361 43.3114 78.5571C46.4972 79.9275 50.0701 79.9022 53.5123 79.5478L53.8451 79.5083C58.0487 80.0751 62.3248 79.7428 66.3905 78.5334C68.5768 77.9224 70.7261 77.1862 72.8279 76.3283C74.0743 75.8525 75.2634 75.2383 76.3729 74.4973C78.0825 74.6402 79.9682 73.5873 81.3316 72.7691C85.3756 70.2885 88.1201 66.3136 89.8254 61.9498C89.8938 61.7758 89.9415 61.5995 90.01 61.4255C90.3264 61.5162 90.6658 61.479 90.9552 61.322C91.2446 61.165 91.4608 60.9008 91.5573 60.5861C93.3655 55.351 93.4093 49.6677 91.682 44.4053C91.4974 44.3105 91.34 44.1702 91.2247 43.9977Z" fill="#FFBF24"/>
<path d="M82.8036 46.6125C81.958 44.4318 80.5281 42.5261 78.6707 41.1045C78.4853 40.951 78.2984 40.8112 78.1046 40.6707C78.7284 40.9643 79.5503 40.2391 78.9176 39.6511C77.2316 37.9736 75.166 36.7272 72.896 36.0177C70.6259 35.3081 68.2182 35.1563 65.877 35.5751L65.6217 35.5464C65.5349 35.5395 65.4476 35.5503 65.3652 35.5783C65.2828 35.6063 65.2069 35.6509 65.1423 35.7092C64.4416 35.8787 63.7539 36.0981 63.0845 36.3656C63.0322 36.3935 62.9838 36.428 62.9403 36.4682C59.0308 36.4418 55.1104 37.2595 51.9849 39.7105C51.905 39.6591 51.8173 39.6209 51.7251 39.5975C49.472 39.0259 47.1255 38.9238 44.8313 39.2974C42.537 39.671 40.3441 40.5123 38.3888 41.7692C36.4418 42.9992 34.6842 44.5059 33.171 46.242C31.7125 47.9088 30.22 49.8164 29.6593 52.1359C29.0578 54.6324 29.693 57.1909 30.7317 59.5152C31.6911 61.7626 33.1803 63.7443 35.0721 65.2909C38.8473 68.2576 42.8877 70.6671 47.351 71.112C56.6304 72.0343 67.7417 69.9553 75.4236 64.0682C78.8397 61.5047 81.4014 57.9687 82.7728 53.9239C83.5875 51.5566 83.5984 48.9866 82.8036 46.6125Z" fill="#FCFA9C"/>
<path d="M92.4299 47.5848C91.8163 45.5807 90.7671 43.7234 90.0754 41.7315C89.9333 41.4335 89.9114 41.0922 90.0143 40.7786C90.1171 40.4649 90.3368 40.2028 90.6277 40.0468L90.7742 39.9864L90.3992 39.3435L90.3043 39.1931C89.9927 38.7948 89.6917 38.4257 89.331 38.0289C89.322 37.8938 89.2922 37.7608 89.2425 37.6347L89.0557 37.3693C88.9937 37.2891 88.9425 37.2011 88.9034 37.1076C87.4648 35.4104 85.7517 33.9665 83.8354 32.8362C81.8418 31.319 79.6961 30.013 77.4328 28.939C77.5197 28.797 77.5715 28.6363 77.5839 28.4703C77.5963 28.3043 77.5691 28.1377 77.5043 27.9843C77.4396 27.831 77.3393 27.6952 77.2117 27.5883C77.0841 27.4814 76.9328 27.4064 76.7705 27.3696C70.9296 25.1912 64.6634 26.4304 58.675 27.4353L57.7348 27.6582C57.6513 27.6752 57.5661 27.682 57.481 27.6786C57.0487 28.231 57.1557 28.5853 58.3014 28.3995C62.0605 27.7732 66.7446 28.3057 70.561 28.6012L70.7979 28.6697C70.6492 28.8327 70.5434 29.03 70.4898 29.244C70.4362 29.458 70.4365 29.6819 70.4908 29.8957C70.5451 30.1096 70.6515 30.3066 70.8007 30.4691C70.9498 30.6316 71.1369 30.7546 71.3453 30.827C73.8686 31.5643 77.3015 31.9774 82.4129 35.1778C82.6443 35.2946 82.8665 35.4313 83.0688 35.5588L83.2052 35.6509C83.0067 35.7657 82.8398 35.9279 82.7193 36.1229C82.5988 36.3179 82.5284 36.5397 82.5145 36.7686C82.5006 36.9974 82.5436 37.2261 82.6396 37.4343C82.7356 37.6425 82.8816 37.8237 83.0647 37.9617C84.2208 38.7366 85.3152 39.5999 86.3381 40.5436C86.2106 40.5905 86.0946 40.664 85.9976 40.7592C85.9007 40.8544 85.8251 40.9691 85.7759 41.0957C85.7267 41.2223 85.7049 41.3579 85.7121 41.4936C85.7193 41.6293 85.7553 41.7618 85.8176 41.8825C86.3334 42.7648 86.8439 43.6954 87.3305 44.6513C89.1482 48.3118 89.9406 52.3964 89.6234 56.4712C89.4849 56.3622 89.3187 56.2942 89.1436 56.2747C88.9685 56.2553 88.7915 56.2852 88.6325 56.3612C88.4735 56.4371 88.3389 56.556 88.244 56.7044C88.1491 56.8528 88.0975 57.0248 88.0953 57.201C87.963 59.0718 87.5374 60.9101 86.8343 62.6487C85.1296 66.5097 80.7737 73.0773 76.6811 74.3718C76.247 74.5047 76.4746 74.656 77.987 74.2528C78.7323 74.0471 79.4618 73.7881 80.1699 73.4777L80.6087 73.2405C80.8769 73.0523 81.1332 72.8477 81.3761 72.6279C82.0153 72.0988 82.6102 71.5298 83.231 70.9776C83.8519 70.4255 84.5594 69.911 85.1894 69.3389C85.8451 68.7498 86.462 68.1189 87.0362 67.4502C87.1701 67.3029 87.3479 67.2027 87.5433 67.1647C88.1711 66.2011 88.7003 65.1768 89.123 64.1072C89.3121 64.1535 89.5111 64.1368 89.69 64.0598C89.8688 63.9828 90.0177 63.8496 90.114 63.6804C91.3361 61.7897 92.0904 59.6351 92.3143 57.3949C92.9865 55.5141 92.8201 53.3226 92.5876 51.3473C92.8319 51.2157 93.0251 51.0062 93.1365 50.7521C92.9639 49.6833 92.728 48.6256 92.4299 47.5848Z" fill="#FCFA9C"/>
<path d="M76.9484 38.5975C75.2537 37.4484 73.3169 36.7052 71.2885 36.4255C69.4312 35.6368 67.4185 35.282 65.4035 35.3879C63.2839 35.6751 61.1873 36.1123 59.1296 36.6961C57.1333 37.2208 55.2247 38.0353 53.4647 39.1137C52.3393 39.742 51.7245 41.7969 52.8599 41.1418C56.2394 39.4344 59.8587 38.2503 63.5939 37.6302C66.8132 37.0536 70.1328 37.5512 73.0415 39.0465C75.6256 40.3184 77.6574 42.4887 78.7563 45.1511C79.6345 47.0655 80.1863 49.1134 80.389 51.2099C80.2472 54.0934 79.209 58.4273 77.3735 60.527C75.6503 62.5312 73.7572 64.3828 71.7153 66.0612C70.6404 66.7371 74.4869 64.7723 75.6698 64.1924C76.9999 63.4088 78.1943 62.415 79.2067 61.2496C80.5522 59.9683 81.3895 57.7358 81.9718 55.9706C82.4834 54.4002 83.5089 52.6079 83.3305 50.8972C83.5027 46.1866 80.8564 41.4393 76.9484 38.5975Z" fill="white"/>
<path d="M52.9683 39.6656C46.0797 37.8587 38.1751 40.4372 33.3153 45.7676C32.0011 47.2061 30.9763 48.4325 30.5103 50.3435C29.9843 52.22 29.754 54.1671 29.8279 56.1146C30.0694 59.7537 32.2663 63.0883 34.7992 65.6081C37.3252 68.2461 40.686 69.9289 44.3114 70.3712C45.3187 70.4842 46.0243 69.6132 45.0692 69.3454C39.3474 67.7253 33.7183 61.8539 32.8011 58.3835C31.9337 55.0933 32.602 46.7076 41.9197 42.6808C45.1699 41.1767 48.8279 40.7958 52.3183 41.5978C53.5716 41.8851 54.2047 39.979 52.9683 39.6656Z" fill="white"/>
<path d="M59.3807 48.217C59.3137 48.1264 59.2331 48.0466 59.1417 47.9806C58.8388 47.8038 58.4985 47.701 58.1484 47.6805C57.5139 47.6122 56.8723 47.6959 56.2765 47.9247C55.8786 48.0769 55.5092 48.2953 55.184 48.5706C54.9632 48.5458 54.7447 48.5632 54.5232 48.5454C54.2585 48.5247 53.9962 48.6072 53.7911 48.7756C53.5859 48.9441 53.4539 49.1853 53.4227 49.4489C53.3986 49.7131 53.4789 49.9762 53.6466 50.1818C53.8142 50.3874 54.0557 50.5191 54.3194 50.5486C56.0762 50.6704 57.8414 50.5583 59.5687 50.2153C59.8304 50.1683 60.0634 50.021 60.2181 49.8048C60.3728 49.5886 60.4371 49.3205 60.3972 49.0577C60.3509 48.8218 60.2243 48.6091 60.039 48.4559C59.8537 48.3027 59.6211 48.2183 59.3807 48.217Z" fill="white"/>
<path d="M54.0539 79.821C48.7893 80.1665 43.0663 78.1202 38.3141 75.3932C34.2184 73.0404 31.1095 69.3031 28.826 65.2462C28.7214 65.0354 28.5612 64.8571 28.3626 64.7307C28.1641 64.6043 27.9348 64.5346 27.6995 64.529C27.4642 64.5235 27.2318 64.5823 27.0276 64.6993C26.8233 64.8162 26.6548 64.9867 26.5404 65.1924C25.5992 62.4538 25.2817 59.5395 25.6111 56.6624C25.6978 55.8897 24.4757 55.1377 23.7435 55.1255C24.0919 53.39 24.3087 52.0799 24.7675 50.4197C25.6927 47.0302 26.5489 43.633 29.009 41.0725C30.1988 39.8087 29.1516 38.9925 27.948 40.2548C25.2185 43.0995 24.0428 45.4827 22.9861 49.2347C22.4405 51.1716 21.6713 52.0495 21.2689 54.0164C20.8692 56.524 20.7594 59.0693 20.9419 61.602C20.9308 61.9517 21.0521 62.2926 21.2815 62.5567C21.511 62.8208 21.8316 62.9885 22.1794 63.0264C22.5285 63.0424 22.8709 62.9261 23.1381 62.7008C23.8029 66.5032 25.4592 70.063 27.9398 73.0206C28.1578 73.2612 28.4562 73.4139 28.7789 73.4501C29.1015 73.4863 29.4263 73.4035 29.6923 73.2172C29.8848 73.0892 30.0383 72.9104 30.1358 72.7007C30.2333 72.491 30.271 72.2584 30.2448 72.0287C32.0988 74.271 34.3268 76.1756 36.8303 77.6581C39.2103 79.0224 41.8392 79.897 44.5623 80.2302C47.5533 80.516 50.5649 80.5123 53.5551 80.2192C54.259 80.1724 56.1291 80.8782 56.1828 80.0878C56.2311 79.4085 54.7854 79.7773 54.0539 79.821Z" fill="#FCFA9C"/>
<path d="M28.5123 39.7497C24.1466 44.0387 22.5055 50.0726 21.9931 56.0095C21.8828 57.3036 23.8877 57.4307 23.9972 56.1435C24.4622 50.7532 25.8774 45.1761 29.8609 41.2424C30.7727 40.3387 29.4387 38.8406 28.5123 39.7497Z" fill="#FCFA9C"/>
<path d="M43.1874 30.8829C37.6747 32.2555 31.803 33.9023 28.3314 38.7527C27.5774 39.8069 29.2561 40.9105 30.0094 39.8632C33.1622 35.487 38.9208 32.8564 43.8644 31.6365C45.093 31.3342 44.4428 30.5906 43.1874 30.8829Z" fill="#FCFA9C"/>
<path d="M60.5851 48.436C60.175 47.9027 59.6381 47.4805 59.0232 47.2078C58.4083 46.935 57.7349 46.8204 57.0644 46.8742C55.5784 46.98 54.385 48.0268 53.3328 48.9987C53.1981 49.1131 53.1122 49.2746 53.0925 49.4503C53.0728 49.6259 53.1208 49.8024 53.2268 49.9439C53.3411 50.0765 53.5013 50.1611 53.6753 50.1806C53.8493 50.2001 54.0243 50.1532 54.1651 50.0492C54.9511 49.271 55.8959 48.385 57.066 48.2298C57.533 48.1797 58.005 48.2529 58.4349 48.4421C58.8648 48.6313 59.2376 48.9299 59.5161 49.3081C60.0689 49.985 61.1019 49.1227 60.5851 48.436Z" fill="black"/>
<path d="M71.5508 35.7124C70.6762 35.5375 70.2109 36.8197 71.0925 36.9954C77.1391 38.2118 81.9826 43.0519 82.7276 49.0531C83.0919 52.1319 82.4509 55.2459 80.9002 57.9305C79.1704 60.8943 76.4102 63.016 73.3761 64.6528C66.624 68.1979 59.1352 70.1118 51.5101 70.241C44.7445 70.3273 37.7332 68.4927 33.443 63.1418C32.3558 61.817 31.5513 60.2837 31.0789 58.6362C30.6065 56.9888 30.4762 55.2621 30.6961 53.5625C30.9272 51.9069 31.4642 50.3088 32.2799 48.8496C33.171 47.22 34.3546 45.7684 35.7715 44.5674C36.4645 43.9954 35.5355 42.9969 34.8502 43.5628C33.2582 44.908 31.9423 46.5494 30.9754 48.3959C29.8943 50.3517 29.2965 52.5377 29.2318 54.7715C29.1672 57.0053 29.6375 59.2222 30.6036 61.2373C33.8054 67.6957 41.0391 70.9107 48.1383 71.4626C56.2626 72.0947 64.7799 70.1578 72.1356 66.7423C75.4817 65.1894 78.7202 63.1634 80.9829 60.2453C83.0038 57.6036 84.1371 54.3901 84.2206 51.065C84.397 43.763 78.9711 37.2017 71.5508 35.7124Z" fill="black"/>
<path d="M71.5502 35.7003C64.9148 34.376 58.2225 36.1752 52.2574 39.0901C52.1364 39.1906 52.0532 39.3293 52.0214 39.4833C51.9895 39.6373 52.0109 39.7976 52.082 39.9379C52.1531 40.0781 52.2697 40.1901 52.4128 40.2555C52.5559 40.3208 52.7169 40.3357 52.8695 40.2976C58.4648 37.5648 64.8459 35.7376 71.0849 36.9826C71.9872 37.1606 72.4248 35.8753 71.5502 35.7003Z" fill="black"/>
<path d="M46.4345 29.5922C39.4583 30.123 30.5423 34.2437 26.1984 39.7089C26.1503 39.7943 26.1209 39.8889 26.112 39.9864C26.1031 40.084 26.115 40.1824 26.1468 40.275C26.1787 40.3677 26.2297 40.4525 26.2967 40.524C26.3637 40.5955 26.4451 40.6521 26.5354 40.6899C25.5558 41.7354 24.7016 42.8916 23.9901 44.1351C22.7428 46.2059 21.7401 48.4145 21.002 50.7165C20.2624 52.9974 19.8525 55.3722 19.7846 57.7691C19.7596 58.9868 19.8404 60.2044 20.0261 61.4082C20.1875 62.4603 20.3163 63.8651 21.1543 64.6158C21.2384 64.6928 21.3401 64.7478 21.4505 64.7762C21.5608 64.8045 21.6765 64.8053 21.7872 64.7783C21.898 64.7514 22.0003 64.6976 22.0854 64.6218C22.1704 64.5459 22.2355 64.4502 22.2748 64.3433C22.2918 64.1915 22.3571 64.0451 22.3949 63.8957C23.2994 68.1516 25.8023 71.8984 29.3877 74.3635C30.101 74.8557 30.8022 73.7118 30.0882 73.2264C27.9628 71.7598 26.2356 69.7877 25.0618 67.4876C23.8881 65.1875 23.3048 62.6316 23.3643 60.05C23.3469 59.9003 23.2813 59.7602 23.1773 59.651C23.0733 59.5419 22.9366 59.4695 22.7878 59.4449C22.639 59.4204 22.4863 59.4449 22.3527 59.5148C22.2191 59.5847 22.1119 59.6962 22.0473 59.8324L21.4514 62.155C21.3477 61.5844 21.3023 60.9924 21.2522 60.5676C21.1204 59.4764 21.0826 58.3759 21.1392 57.2783C21.2525 55.0895 21.6621 52.9262 22.3567 50.8475C23.0561 48.7593 23.9839 46.7547 25.1233 44.8701C26.2601 42.9576 27.5877 41.0874 29.6061 40.0353C30.3503 39.6298 29.7358 38.5059 28.9618 38.8662L28.5813 39.0191C32.549 34.7903 40.5649 31.4069 46.3779 30.9691C47.2413 30.8704 47.2941 29.5279 46.4345 29.5922Z" fill="black"/>
<path d="M55.4328 79.4496C45.5666 80.2081 34.031 78.2851 28.453 69.0938C28.006 68.345 26.8284 69.0023 27.2762 69.7442C29.9689 73.979 33.9916 77.1998 38.7128 78.9012C44.0018 80.8918 49.7917 81.2201 55.3892 80.7721C56.2396 80.7278 56.2924 79.3854 55.4328 79.4496Z" fill="black"/>
<path d="M49.9869 25.5269C49.8191 25.4758 49.6381 25.4902 49.4804 25.5671C49.3228 25.644 49.2 25.7778 49.137 25.9415C48.3322 27.6865 47.0437 29.1641 45.4246 30.199C45.2714 30.2835 45.1558 30.4228 45.1009 30.5889C45.046 30.7551 45.0558 30.9358 45.1284 31.095C45.2129 31.25 45.3534 31.367 45.5211 31.4221C45.6888 31.4773 45.8713 31.4665 46.0313 31.3919C47.9531 30.1889 49.4761 28.4443 50.4085 26.3776C50.4594 26.2088 50.4442 26.0269 50.3659 25.8689C50.2876 25.7109 50.1521 25.5886 49.9869 25.5269Z" fill="black"/>
<path d="M53.5263 24.9877C53.3753 24.8959 53.1951 24.8651 53.0223 24.9015C52.8495 24.938 52.697 25.0389 52.596 25.1837C51.5996 27.1214 50.1414 28.7838 48.3501 30.0241C48.2219 30.1463 48.1452 30.3129 48.1357 30.4897C48.1263 30.6666 48.1848 30.8404 48.2992 30.9756C48.4212 31.1017 48.5864 31.177 48.7617 31.1863C48.9369 31.1956 49.1092 31.1382 49.2438 31.0256C51.1253 29.7186 52.6594 27.9721 53.7131 25.9379C53.8118 25.7863 53.8476 25.6023 53.8127 25.4248C53.7778 25.2474 53.675 25.0905 53.5263 24.9877Z" fill="black"/>
<path d="M55.8831 26.0194C55.7331 25.9272 55.5536 25.8954 55.3811 25.9305C55.2085 25.9656 55.0557 26.065 54.9537 26.2085C54.7947 26.4422 54.6296 26.6682 54.4515 26.8858L54.3778 26.9823L54.3072 27.0513C54.2105 27.1662 54.1076 27.2734 54.0055 27.3737C53.8014 27.5744 53.5988 27.7612 53.3831 27.9397C53.1675 28.1181 53.1675 28.1181 53.0531 28.2031L52.8935 28.3179L52.7946 28.3906C52.6488 28.4722 52.5373 28.6035 52.4806 28.7606C52.4252 28.9329 52.4393 29.12 52.5199 29.282C52.6056 29.4342 52.7455 29.5485 52.9117 29.6021C53.0779 29.6557 53.2582 29.6447 53.4166 29.5713C54.4899 28.8597 55.4137 27.9452 56.136 26.8792C56.2022 26.7291 56.2131 26.5604 56.1669 26.403C56.1206 26.2456 56.0201 26.1097 55.8831 26.0194Z" fill="black"/>
<path d="M90.2857 41.4817C90.43 41.4493 90.5683 41.394 90.6953 41.318C90.9777 41.1315 91.1772 40.8431 91.252 40.513C91.3268 40.1828 91.2711 39.8366 91.0966 39.5466C90.136 37.8644 88.9093 36.3489 87.4641 35.0589C86.1031 33.7407 84.5907 32.5884 82.9587 31.6261C82.1592 31.1532 81.3319 30.7291 80.4812 30.356C79.9892 30.1331 79.1851 29.9521 78.5706 29.6386C78.77 29.5357 78.9609 29.4169 79.1414 29.2835C79.5143 29.0109 79.3401 28.4464 79.0298 28.223C76.0931 26.1888 72.3847 25.9893 68.9268 25.9856C64.7351 25.9834 57.4891 27.1756 53.387 28.0568C53.2521 28.129 53.1448 28.2438 53.0819 28.3833C53.019 28.5227 53.0039 28.6791 53.039 28.828C53.074 28.9769 53.1573 29.1101 53.2759 29.2068C53.3944 29.3036 53.5416 29.3584 53.6946 29.3628C57.582 28.5274 64.5819 27.3496 68.5596 27.3278C71.454 27.3102 74.5484 27.3779 77.1754 28.6856L77.1271 28.6802C77.0288 28.7081 76.9379 28.7574 76.8609 28.8244C76.7839 28.8915 76.7226 28.9747 76.6814 29.0682C76.6402 29.1616 76.6202 29.263 76.6227 29.3651C76.6252 29.4672 76.6502 29.5675 76.6959 29.6589C77.3378 30.9116 79.1187 31.1673 80.2935 31.7183C81.7164 32.3841 83.0677 33.1935 84.3261 34.1339C85.576 35.0698 86.7235 36.1353 87.7492 37.3126C88.2914 37.9197 88.7984 38.5574 89.2676 39.2226C89.3518 39.3438 89.9674 40.0836 89.9052 40.2024C89.843 40.3211 89.2199 40.0836 89.1195 40.0444C88.4496 39.7876 88.0853 40.6689 88.4436 41.1492C90.6619 44.1698 91.9893 47.7517 92.2752 51.4885C92.5611 55.2252 91.794 58.9673 90.061 62.2902L89.4102 63.5447C89.3203 63.697 89.2854 63.8756 89.3116 64.0506C89.35 64.2233 89.453 64.3748 89.5994 64.4741C89.7491 64.5707 89.9303 64.6061 90.1053 64.5728C90.278 64.5343 90.4295 64.4314 90.5289 64.285C90.8139 63.7371 91.0913 63.1953 91.41 62.6582C91.4423 62.5938 91.4686 62.5266 91.4885 62.4574C93.1015 59.1509 93.8381 55.4854 93.6275 51.8124C93.4168 48.1394 92.2661 44.5821 90.2857 41.4817Z" fill="black"/>
<path d="M62.5009 79.9928C53.2032 81.9119 42.9854 80.1367 42.5538 80.0604C42.385 80.0241 42.2357 79.9261 42.1352 79.7856C42.0347 79.6452 41.9902 79.4723 42.0103 79.3007C42.0466 79.1319 42.1446 78.9826 42.285 78.8821C42.4255 78.7816 42.5984 78.7371 42.7699 78.7572C42.8734 78.7688 53.4974 80.6594 62.7003 78.5899C70.8095 76.8029 78.6684 74.6315 85.6644 67.7592C88.1957 65.2486 89.8051 60.9298 89.8235 60.89C89.8896 60.7263 90.0155 60.5939 90.1757 60.5197C90.3358 60.4456 90.5182 60.4352 90.6858 60.4907C90.848 60.558 90.9787 60.6843 91.0515 60.8442C91.1244 61.004 91.1339 61.1855 91.0782 61.3521C91.0151 61.5407 89.3427 66.048 86.6057 68.7102C79.3587 75.8268 70.9675 78.1341 62.9933 79.9013L62.5009 79.9928Z" fill="black"/>
<path d="M35.1616 45.0312C35.0469 45.0521 34.9288 45.0437 34.8181 45.0069C34.7075 44.9701 34.6079 44.906 34.5286 44.8205C34.416 44.6859 34.3586 44.5136 34.3679 44.3384C34.3772 44.1631 34.4525 43.9979 34.5786 43.8759C37.2141 41.7081 40.2739 40.1155 43.5614 39.2005C46.849 38.2856 50.2915 38.0684 53.668 38.563C53.8411 38.5949 53.9957 38.6912 54.1005 38.8327C54.2052 38.9742 54.2523 39.1501 54.2323 39.325C54.1989 39.4967 54.102 39.6495 53.9609 39.7528C53.8198 39.8562 53.6448 39.9024 53.4711 39.8823C50.2944 39.4441 47.0618 39.6588 43.971 40.5134C40.8803 41.3679 37.9964 42.8443 35.4961 44.8522C35.4053 44.9444 35.2887 45.0068 35.1616 45.0312Z" fill="black"/>
<path d="M61.9561 53.8078C60.6803 53.7625 59.4066 53.7407 58.1348 53.7424C58.0904 53.8006 58.0287 53.8432 57.9586 53.8642C57.8885 53.8852 57.8135 53.8835 57.7444 53.8593L57.0217 53.6385C57.0033 53.6184 56.9815 53.6018 56.9573 53.5893C56.7687 53.4771 56.5528 53.4191 56.3334 53.4215L54.9774 53.0528C54.6547 52.8333 54.2637 52.7374 53.8759 52.7825C53.1945 52.6292 52.5675 52.489 51.9113 52.3595L51.8285 52.3502C51.7967 52.3434 51.7644 52.3397 51.7319 52.3394L51.656 52.3308C51.1148 52.2352 50.5659 52.1457 50.0224 52.0707C50.1168 51.229 48.8136 51.0129 48.7046 51.86C48.5642 52.8227 48.696 53.8055 49.085 54.6973C49.2578 55.0869 49.4796 55.6009 49.9073 55.7746C50.0857 55.8404 50.2801 55.8499 50.4641 55.8018C50.6481 55.7538 50.813 55.6505 50.9365 55.5058C51.2378 55.0709 51.4643 54.5886 51.6066 54.0789C51.6088 54.0396 51.6132 54.0004 51.6198 53.9616C51.6849 54.0934 51.762 54.219 51.8501 54.3368C51.9817 54.5187 52.1571 54.6645 52.3601 54.7606C52.5631 54.8566 52.787 54.8999 53.0111 54.8862C53.2323 54.855 53.4373 54.753 53.5957 54.5955C53.6901 54.5013 53.7946 54.2545 53.899 54.1964C53.9414 54.1715 53.9883 54.1554 54.037 54.149C54.0987 54.2309 54.1767 54.2991 54.2661 54.3493C54.2944 54.4084 54.315 54.4736 54.3425 54.5396C54.4036 54.7138 54.5041 54.8715 54.6364 55.0002C54.7686 55.129 54.9289 55.2254 55.1046 55.2818C55.2807 55.3249 55.4647 55.3239 55.6403 55.2791C55.8159 55.2342 55.9778 55.1468 56.1116 55.0245L56.2751 54.8752C56.311 54.9036 56.3507 54.9269 56.3931 54.9443L56.5738 55.1392C56.8489 55.4585 57.2266 55.6718 57.642 55.7427C58.0574 55.8135 58.4845 55.7374 58.8498 55.5273C59.2441 55.3131 59.4139 55.0457 59.6333 55.5803C59.7673 56.0411 59.9338 56.4917 60.1318 56.9287C60.2136 57.0286 60.3217 57.1036 60.4438 57.1455C60.5659 57.1873 60.6973 57.1943 60.8231 57.1656C60.949 57.1369 61.0644 57.0737 61.1563 56.983C61.2482 56.8924 61.313 56.7779 61.3435 56.6525C61.3652 56.4593 61.3861 56.273 61.4078 56.0798C61.7318 55.3637 61.9178 54.5929 61.9561 53.8078Z" fill="white"/>
<path d="M58.1619 62.2506C57.7891 61.3696 57.1758 60.6114 56.3923 60.0627C55.6088 59.5139 54.6866 59.1968 53.7313 59.1475C53.8063 59.2258 53.8661 59.3163 53.9334 59.4007C53.7139 59.452 53.5193 59.5785 53.3833 59.7582C52.8176 59.0673 52.0448 58.5765 51.179 58.3581C50.6728 58.239 50.145 58.2466 49.6425 58.3803C49.14 58.5141 48.6783 58.7698 48.2983 59.1248L48.2147 59.1853C48.3242 59.3303 48.4482 59.47 48.5723 59.6097C48.5534 59.7075 48.5572 59.8084 48.5833 59.9045C48.6094 60.0007 48.6572 60.0896 48.723 60.1644C48.7888 60.2392 48.8708 60.298 48.9628 60.3362C49.0549 60.3744 49.1544 60.391 49.2539 60.3848C49.3419 60.4715 49.4285 60.5721 49.5242 60.6527C50.6359 61.6409 51.9824 62.3276 53.4352 62.6472C54.8879 62.9667 56.3982 62.9084 57.822 62.4779C57.9593 62.4374 58.0843 62.3816 58.2155 62.3334C58.192 62.3099 58.1738 62.2816 58.1619 62.2506Z" fill="#FFADD2"/>
<path d="M64.2004 53.8993C63.8071 53.8551 63.3954 53.8509 62.999 53.8343L62.6057 53.7902C62.6054 53.8227 62.6017 53.8551 62.5949 53.8868C62.5639 54.5872 62.425 55.2785 62.1833 55.9366C62.0572 56.4749 61.7577 56.9568 61.3307 57.3081C61.2402 57.3582 61.1401 57.3886 61.037 57.3974C60.9339 57.4062 60.8301 57.3931 60.7324 57.3591C60.6347 57.3251 60.5453 57.2708 60.47 57.1999C60.3946 57.1289 60.3351 57.0429 60.2953 56.9474C60.0926 56.5196 59.9368 56.0711 59.8306 55.6097C59.5037 55.8666 59.089 55.9846 58.6759 55.9383C58.2628 55.8919 57.8844 55.685 57.6227 55.362C57.4438 55.4812 57.2414 55.5606 57.0293 55.5951C56.8171 55.6296 56.6 55.6183 56.3926 55.5619C56.1852 55.5055 55.9922 55.4055 55.8266 55.2683C55.6611 55.1312 55.5268 54.9603 55.4328 54.767C55.2629 54.8875 55.0682 54.9683 54.8629 55.0033C54.6576 55.0384 54.447 55.0268 54.2468 54.9695C54.0466 54.9121 53.8619 54.8105 53.7063 54.672C53.5507 54.5336 53.4282 54.362 53.3479 54.1698C53.2184 54.2878 53.0823 54.3985 52.9405 54.5014C52.8293 54.5672 52.7062 54.6103 52.5783 54.6284C52.4503 54.6464 52.3201 54.6389 52.1951 54.6064C51.8929 54.5264 51.6323 54.3349 51.4657 54.0704C51.2219 54.7301 50.8792 55.3489 50.4494 55.9056C50.4057 55.953 50.3493 55.9871 50.287 56.0037C50.2246 56.0203 50.1589 56.0188 50.0973 55.9995C50.0358 55.9801 49.981 55.9437 49.9394 55.8944C49.8978 55.845 49.871 55.7849 49.8623 55.721C49.5731 54.438 49.277 53.1542 48.9885 51.8642C48.1882 51.7744 47.2774 51.6722 46.7798 52.4338C45.935 53.7364 46.2528 55.5116 46.808 56.8525C47.0766 57.4741 47.4054 58.0679 47.7898 58.6254C47.8527 58.5626 47.921 58.5144 47.9832 58.4585C48.0651 58.5052 48.1557 58.5346 48.2494 58.5452C48.3432 58.5557 48.438 58.547 48.5283 58.5196C49.4729 58.1276 50.514 58.0301 51.515 58.2399C51.9656 58.3953 52.1569 58.7451 52.5715 58.9733C52.986 59.2014 53.27 58.9748 53.7224 58.9277C54.1662 58.9259 54.6057 59.0156 55.0133 59.1913C55.5077 59.3465 55.9907 59.5361 56.4587 59.7587C56.8967 59.9347 57.2912 60.2041 57.6146 60.548C57.938 60.892 58.1825 61.3023 58.3312 61.7503C58.5181 62.5748 59.8386 62.4504 59.6654 61.6276C61.5484 60.5387 63.0415 58.8854 63.9334 56.9015C64.2603 56.2142 64.4924 55.4858 64.6235 54.7362C64.6768 54.323 64.7293 53.9796 64.2004 53.8993Z" fill="#B34052"/>
<path d="M65.2341 53.751C65.1354 53.6041 65.0039 53.4821 64.8501 53.3945C64.6963 53.307 64.5243 53.2562 64.3475 53.2463C63.264 53.1399 62.1755 53.0924 61.0868 53.1041C59.9445 53.0737 58.7997 53.064 57.6527 53.0751L57.563 53.065C55.8178 52.5109 54.0422 52.0574 52.245 51.7068C51.2607 51.5126 50.2726 51.3528 49.2737 51.2268C48.5127 51.038 47.7115 51.0948 46.9848 51.3892C45.5863 52.1475 45.5142 54.3471 45.8033 55.693C46.1977 57.353 47.0064 58.886 48.1539 60.1487C49.2548 61.4606 50.6922 62.4479 52.3119 63.0046C53.8919 63.5187 55.5784 63.614 57.2063 63.2812C58.7484 62.9342 60.1928 62.2448 61.4324 61.264C62.672 60.2832 63.6751 59.0361 64.3674 57.6151C64.8102 56.7702 65.1216 55.8628 65.2911 54.9242C65.4008 54.5374 65.3808 54.1253 65.2341 53.751ZM63.9549 56.9331C63.3839 58.2325 62.5433 59.3957 61.4888 60.3458C60.4343 61.2958 59.1899 62.011 57.8382 62.4439C56.4144 62.8744 54.9041 62.9326 53.4513 62.6131C51.9986 62.2935 50.6521 61.6069 49.5404 60.6186C48.387 59.5831 47.4716 58.3102 46.857 56.8872C46.3087 55.5471 46.0047 53.7734 46.8288 52.4685C47.3372 51.6732 48.3001 51.8092 49.0859 51.9043C50.0518 52.0127 51.0108 52.1832 51.969 52.3606C53.9338 52.7368 55.8728 53.2367 57.7746 53.8573C57.8436 53.8814 57.9186 53.8831 57.9887 53.8621C58.0588 53.8411 58.1205 53.7985 58.1649 53.7404C59.7866 53.7337 61.4112 53.7623 63.0443 53.8407C63.4375 53.8848 63.8531 53.8546 64.2456 53.9056C64.7769 53.9652 64.7221 54.3293 64.6587 54.7694C64.5137 55.5315 64.2639 56.27 63.9165 56.9637L63.9549 56.9331Z" fill="black"/>
<path d="M51.8048 63.1977C50.2806 62.597 48.9297 61.6267 47.8738 60.3742C46.6836 59.0772 45.8458 57.4966 45.4405 55.7836C45.0789 54.0872 45.345 51.9023 46.7888 51.1141C47.5532 50.7917 48.4004 50.7204 49.208 50.9105L49.2839 50.919C50.2775 51.0305 51.2778 51.2056 52.269 51.4006C54.0477 51.7465 55.8054 52.1933 57.5334 52.7388L57.6162 52.7481C58.777 52.7386 59.9424 52.7506 61.0641 52.7786L61.873 52.7925C62.7037 52.7844 63.5341 52.8286 64.3593 52.9248C64.5876 52.9405 64.809 53.0095 65.0058 53.1262C65.2026 53.2429 65.3693 53.4041 65.4926 53.5968C65.6857 54.0412 65.7212 54.5382 65.5931 55.0054C65.4153 55.9747 65.0911 56.9112 64.6317 57.783C63.9161 59.2482 62.8804 60.534 61.6012 61.5453C60.322 62.5567 58.832 63.2677 57.2411 63.6259C55.5553 63.9684 53.8094 63.8688 52.1734 63.3368C52.0431 63.3152 51.9259 63.2392 51.8048 63.1977ZM50.106 61.5259C50.8006 62.0261 51.5669 62.4183 52.3788 62.6892C53.3753 63.0102 54.4185 63.1627 55.4652 63.1402C53.5529 63.1836 51.6762 62.6183 50.106 61.5259ZM58.2658 54.0576C58.1767 54.1223 58.0734 54.1649 57.9646 54.1818C57.8558 54.1988 57.7446 54.1896 57.64 54.1551C55.7516 53.5388 53.8261 53.0427 51.8751 52.6699C50.9307 52.4941 49.9701 52.3374 49.0126 52.216C48.0551 52.0946 47.4464 52.0403 47.0869 52.6287C46.1868 54.0508 46.8235 55.9737 47.1431 56.7361C47.7325 58.1163 48.6171 59.3507 49.7346 60.3524C50.8026 61.3041 52.0976 61.9648 53.4949 62.2708C54.8922 62.5769 56.3448 62.518 57.7128 62.0999C59.0172 61.679 60.2178 60.987 61.2358 60.0693C62.2539 59.1517 63.0664 58.0291 63.6199 56.7752C63.9346 56.1164 64.1565 55.4171 64.2792 54.6973C64.3216 54.5589 64.3379 54.4139 64.3272 54.2696C64.2793 54.2494 64.2266 54.2435 64.1754 54.2525C63.9019 54.2162 63.6264 54.1969 63.3505 54.1949L63.0055 54.1562C61.489 54.0978 59.9479 54.0717 58.2642 54.0714L58.2658 54.0576ZM46.0764 55.5335C46.0764 55.5335 46.0694 55.5956 46.0655 55.6301C46.2273 56.3922 46.4952 57.1277 46.8614 57.8154C46.7229 57.5553 46.5989 57.2899 46.4888 57.026C46.3015 56.5483 46.1628 56.0529 46.0748 55.5473L46.0764 55.5335ZM48.7972 51.5211C48.2297 51.4012 47.639 51.462 47.1079 51.6949C46.8205 51.8798 46.578 52.1264 46.398 52.4168C46.2179 52.7072 46.1049 53.0341 46.0672 53.3737C46.1527 52.9806 46.3059 52.6053 46.52 52.2647C47.0622 51.4173 48.0305 51.4421 48.7956 51.5349L48.7972 51.5211ZM64.2453 57.055C63.8666 57.8839 63.3873 58.6632 62.8182 59.3751C63.294 58.7803 63.7078 58.1385 64.0532 57.4596C64.4778 56.6481 64.778 55.7774 64.9438 54.8767C65.0401 54.5586 65.0343 54.2183 64.9272 53.9037C64.8528 53.7975 64.7542 53.7106 64.6394 53.6503C64.5246 53.59 64.3971 53.5581 64.2674 53.5572C64.4984 53.5794 64.7115 53.6911 64.8613 53.8684C64.9394 54.0094 64.9883 54.1647 65.0051 54.325C65.022 54.4853 65.0063 54.6474 64.9592 54.8016C64.8249 55.5817 64.5847 56.3398 64.2453 57.055ZM52.0866 52.0299C51.2932 51.878 50.4837 51.7453 49.6857 51.6348C50.4791 51.7238 51.2518 51.8734 52.0184 52.0153L52.0866 52.0299ZM59.4932 53.3919L57.6416 53.3937L57.548 53.4181L57.8646 53.5235L57.9621 53.4017L58.1415 53.4218L59.4932 53.3919ZM64.157 53.5448C63.4021 53.4675 62.6435 53.4313 61.8846 53.4366L61.5396 53.3979C62.0479 53.413 62.5424 53.4265 63.0354 53.4539L63.3666 53.4911C63.6081 53.5182 63.8657 53.5261 64.1417 53.5571L64.157 53.5448Z" fill="black"/>
<path d="M61.9704 53.8187C61.7109 54.7307 61.2977 55.5916 60.7486 56.3645C60.6553 56.4757 60.582 56.6022 60.532 56.7384C60.4741 56.5644 60.4287 56.3866 60.396 56.2062L60.0748 54.7728C59.971 54.328 59.47 53.9365 59.018 54.291C58.7862 54.4885 57.4832 55.5161 57.4228 54.6849C57.4047 54.5721 57.3591 54.4655 57.2899 54.3746C57.2208 54.2837 57.1303 54.2112 57.0265 54.1636C56.9226 54.116 56.8087 54.0948 56.6947 54.1018C56.5807 54.1088 56.4701 54.1438 56.3729 54.2038C56.1043 54.4182 55.7068 54.7858 55.3433 54.7869C54.9799 54.7881 54.8034 54.2443 54.6856 53.9237C54.6387 53.8196 54.5669 53.7288 54.4765 53.6591C54.3861 53.5894 54.2799 53.5431 54.1674 53.5243C54.0548 53.5055 53.9393 53.5146 53.8312 53.5511C53.723 53.5875 53.6255 53.65 53.5473 53.7331C53.3768 53.9445 53.0835 54.3797 52.7799 54.3456C52.4763 54.3116 52.3543 53.718 52.2832 53.4795C52.0708 52.757 51.152 53.0382 50.9904 53.6069C50.8498 54.1103 50.6616 54.5992 50.4284 55.0669C50.3654 55.1926 50.2861 55.4003 50.1917 55.5573L50.1036 55.4706C50.0531 55.3601 50.0026 55.2497 49.9598 55.1331C49.5886 54.1486 49.4119 53.1014 49.4394 52.0496C49.4519 51.1916 48.1222 51.3359 48.1037 52.1861C48.0892 53.0667 48.2001 53.9448 48.4329 54.7941C48.6383 55.5158 48.9394 56.5067 49.6374 56.8855C50.6727 57.4348 51.3777 56.3821 51.8166 55.3344C52.0281 55.5204 52.2885 55.6417 52.5668 55.6841C52.803 55.7102 53.0419 55.6871 53.2687 55.6164C53.4954 55.5456 53.7051 55.4287 53.8845 55.273C54.1221 55.6584 54.4982 55.9381 54.9356 56.0547C55.2048 56.1098 55.4822 56.1112 55.7518 56.0587C56.0215 56.0063 56.2782 55.901 56.507 55.7489C56.7716 56.0356 57.1233 56.2273 57.5077 56.2943C58.0052 56.3636 58.5112 56.2573 58.9387 55.9938C59.1752 57.1242 59.6085 58.4304 60.8105 57.9923C61.4172 57.6679 61.9 57.1523 62.1837 56.5255C62.6489 55.7404 63.0089 54.8976 63.2544 54.0187C63.5336 53.2116 62.2089 53.0001 61.9704 53.8187Z" fill="black"/>
<path d="M54.1638 59.8934C53.4286 58.9503 52.413 58.265 51.2633 57.9364C50.1136 57.6077 48.8892 57.6527 47.7667 58.0648C47.6425 58.1539 47.5512 58.2816 47.507 58.4279C47.4627 58.5743 47.468 58.7311 47.5221 58.8742C47.5761 59.0172 47.6758 59.1384 47.8057 59.2189C47.9357 59.2995 48.0886 59.3349 48.2407 59.3197C49.0866 59.0063 50.0098 58.9685 50.8785 59.2115C51.7472 59.4545 52.5168 59.966 53.0773 60.6727C53.1846 60.8114 53.3405 60.9044 53.5135 60.9329C53.6866 60.9613 53.8641 60.9233 54.0102 60.8263C54.1489 60.719 54.2418 60.5631 54.2703 60.39C54.2988 60.2169 54.2608 60.0395 54.1638 59.8934Z" fill="black"/>
<path d="M59.2644 61.7043C58.6008 60.6605 57.6566 59.8248 56.5399 59.293C55.4232 58.7611 54.1792 58.5547 52.9506 58.6974C52.8098 58.7537 52.6914 58.8545 52.6133 58.9844C52.5352 59.1144 52.5017 59.2663 52.5181 59.417C52.5344 59.5677 52.5997 59.7089 52.7038 59.8191C52.808 59.9292 52.9453 60.0023 53.0949 60.0271C54.088 59.9114 55.0935 60.0811 55.9937 60.5161C56.8939 60.9512 57.6515 61.6337 58.1779 62.4837C58.2842 62.6233 58.4395 62.7175 58.6124 62.7472C58.7854 62.777 58.9632 62.7402 59.1101 62.6442C59.2508 62.5367 59.3451 62.3796 59.3738 62.2049C59.4025 62.0302 59.3633 61.8511 59.2644 61.7043Z" fill="black"/>
<path d="M69.3246 42.2022C69.2041 41.9942 69.0365 41.8172 68.8354 41.6854C68.6342 41.5537 68.405 41.4708 68.1661 41.4435C67.9297 41.4249 67.6929 41.4751 67.4843 41.588C67.2758 41.701 67.1044 41.8719 66.9908 42.0801C66.6267 42.8766 66.5101 43.7641 66.6561 44.6276C66.6722 44.7504 66.6959 44.872 66.727 44.9919C66.7138 45.7344 66.9048 46.4664 67.2791 47.1078C67.3931 47.3405 67.5737 47.5341 67.7981 47.6637C68.0224 47.7934 68.2803 47.8534 68.5388 47.836C68.7537 47.7917 68.9542 47.6948 69.1225 47.554C69.2907 47.4131 69.4213 47.2327 69.5027 47.0289C69.6686 46.6394 69.7782 46.2283 69.8283 45.8079C69.8953 45.4096 69.9242 45.0058 69.9147 44.6019C69.9252 43.7649 69.7221 42.9389 69.3246 42.2022Z" fill="black"/>
<path d="M72.3866 38.4144C70.9407 37.9007 69.3765 37.8199 67.8854 38.1819C67.7005 38.2248 67.5394 38.3375 67.4357 38.4964C67.3319 38.6553 67.2936 38.8482 67.3286 39.0347C67.3375 39.0582 67.349 39.0806 67.363 39.1014C67.3822 39.262 67.4542 39.4117 67.5678 39.5269C67.6813 39.6421 67.83 39.7163 67.9903 39.7377C69.4056 40.0093 70.8575 40.0303 72.28 39.7998C72.4317 39.772 72.5697 39.6944 72.6725 39.5795C72.7752 39.4645 72.8367 39.3186 72.8473 39.1648C72.8606 39.0069 72.823 38.849 72.7401 38.714C72.6572 38.579 72.5333 38.474 72.3866 38.4144Z" fill="black"/>
<path d="M46.1445 48.8631L43.375 47.5184C42.5642 47.0362 41.6078 46.8595 40.6782 47.0202C39.8268 47.2833 39.0538 47.7535 38.4287 48.3887C37.7805 48.9849 37.2308 49.6802 36.8003 50.4486C36.3893 51.185 37.551 51.7904 37.9612 51.061C38.3146 50.4287 38.7631 49.8546 39.291 49.3587C39.7774 48.8508 40.3845 48.4742 41.0557 48.2642C41.695 48.2088 42.3343 48.3717 42.8692 48.7262C42.5449 48.8369 42.2334 48.9823 41.9403 49.1599C41.1922 49.6 41.9348 50.7033 42.6552 50.2602C43.081 49.9971 43.563 49.8385 44.0618 49.7973C44.5606 49.7561 45.0621 49.8336 45.5253 50.0232C46.2993 50.3476 46.9131 49.2358 46.1445 48.8631Z" fill="black"/>
<path d="M74.8272 86.23L71.8528 96.5507C71.5951 97.3532 72.8567 97.6904 73.1213 96.8887C73.9506 94.3548 75.2596 89.1011 76.0958 86.568C76.3535 85.7655 75.0879 85.4628 74.8272 86.23Z" fill="black"/>
<path d="M43.7162 41.6735C42.2704 41.1598 40.7061 41.079 39.2151 41.441C39.1208 41.4571 39.0309 41.4925 38.951 41.5449C38.871 41.5974 38.8028 41.6658 38.7505 41.7458C38.6982 41.8259 38.663 41.9159 38.6472 42.0102C38.6313 42.1045 38.6351 42.201 38.6583 42.2938C38.6583 42.2938 38.6536 42.3352 38.6919 42.3674C38.7136 42.5264 38.7868 42.674 38.9002 42.7877C39.0135 42.9013 39.161 42.9747 39.32 42.9968C40.7349 43.2715 42.1874 43.2925 43.6097 43.0589C43.7613 43.031 43.8994 42.9535 44.0021 42.8385C44.1048 42.7236 44.1664 42.5777 44.177 42.4239C44.1902 42.266 44.1526 42.1081 44.0698 41.9731C43.9869 41.8381 43.863 41.7331 43.7162 41.6735Z" fill="black"/>
<path d="M88.1487 70.1621C88.1361 70.0553 88.0938 69.9541 88.0267 69.87C87.9596 69.7859 87.8703 69.7223 87.7689 69.6864C87.4871 70.0809 87.1922 70.467 86.938 70.8647C87.0299 73.1596 85.0712 75.0498 83.2659 76.1956C81.1469 77.4018 78.8259 78.2115 76.4165 78.5851C71.7562 79.4595 66.7682 79.892 62.916 82.967C62.8485 83.0204 62.7922 83.0867 62.7503 83.1618C62.7085 83.237 62.6818 83.3197 62.6719 83.4052C62.662 83.4907 62.669 83.5773 62.6925 83.6601C62.7161 83.7429 62.7557 83.8202 62.8092 83.8877C62.8626 83.9552 62.9288 84.0115 63.004 84.0533C63.0792 84.0952 63.1619 84.1219 63.2474 84.1318C63.3329 84.1417 63.4195 84.1347 63.5023 84.1111C63.5851 84.0876 63.6624 84.048 63.7299 83.9945C68.051 80.5389 73.8794 80.7108 78.9719 79.3468C82.9753 78.2869 88.9896 75.3077 88.1487 70.1621Z" fill="black"/>
<path d="M88.2791 66.9399C88.2446 66.8611 88.1949 66.7898 88.1327 66.7303C88.0705 66.6707 87.9972 66.624 87.9169 66.5929C87.8366 66.5619 87.751 66.547 87.6649 66.5491C87.5788 66.5513 87.494 66.5704 87.4154 66.6055C87.2631 66.6831 87.1448 66.8141 87.0831 66.9734C87.0214 67.1328 87.0206 67.3093 87.081 67.4692C87.2716 68.1381 87.2886 68.8446 87.1301 69.5218C87.0368 69.873 86.9026 70.212 86.7304 70.5319L86.7257 70.5733L86.6489 70.6974C86.5982 70.7756 86.5406 70.853 86.483 70.9303C86.4295 71.0083 86.3721 71.0834 86.3111 71.1556L86.2151 71.2636C86.2151 71.2636 86.1123 71.3708 86.1591 71.3272C86.0324 71.4409 85.9519 71.5972 85.9329 71.7664C85.9139 71.9356 85.9578 72.1058 86.0561 72.2448C86.1096 72.3119 86.1757 72.3677 86.2508 72.4092C86.3259 72.4507 86.4084 72.4769 86.4936 72.4865C86.5788 72.496 86.6651 72.4887 86.7475 72.4649C86.8299 72.4411 86.9068 72.4013 86.9738 72.3478C87.6687 71.6543 88.1584 70.7822 88.3888 69.8279C88.6191 68.8735 88.5812 67.8741 88.2791 66.9399Z" fill="black"/>
<path d="M63.5597 82.6468C57.8073 81.673 52.0198 82.5677 46.2373 82.5477C43.6006 82.5803 40.9701 82.2851 38.4061 81.6691C37.1058 81.3442 35.8438 80.8818 34.6415 80.2896C34.0594 80.0538 33.514 79.7362 33.0216 79.3463C32.0956 78.446 33.5602 78.3448 34.2088 78.4176C34.8573 78.4904 35.1903 77.5147 34.6087 77.2189C34.2228 77.0436 33.8934 76.7641 33.6577 76.4118C33.4219 76.0595 33.2892 75.6484 33.2745 75.2247C33.257 74.3844 31.9452 74.3071 31.9688 75.1551C31.9827 75.8982 32.2179 76.6203 32.6444 77.229C32.2188 77.3483 31.8523 77.6207 31.6154 77.9939C31.3911 78.392 31.3274 78.8608 31.4374 79.3043C31.5474 79.7479 31.8227 80.1326 32.207 80.3798C33.9452 81.8254 36.4914 82.6071 38.6584 83.0947C43.7145 84.2349 48.8873 83.7743 54.0184 83.5605C57.1761 83.354 60.3467 83.4755 63.4794 83.9233C64.3126 84.0936 64.3822 82.788 63.5597 82.6468Z" fill="black"/>
<path d="M68.1684 80.642C65.7738 84.5151 63.0628 88.1835 60.0632 91.6097C59.5028 92.2455 60.5547 93.0202 61.1074 92.3906C64.1116 88.9668 66.8251 85.2984 69.2196 81.4236C69.6558 80.711 68.5917 79.9209 68.1684 80.642Z" fill="black"/>
<path d="M60.0854 82.4524C59.9853 82.4618 59.8843 82.4505 59.7887 82.4191L59.6783 82.4067C59.4442 82.3906 59.2143 82.3365 58.9976 82.2465C56.6307 85.1903 54.0664 87.9698 51.3223 90.5656C50.706 91.1392 51.6781 92.0028 52.2859 91.4423C55.2525 88.6489 58.0053 85.6368 60.5209 82.4314L60.0854 82.4524Z" fill="black"/>
<path d="M61.1955 91.8902C61.1696 91.8405 61.1371 91.7946 61.099 91.7536C61.138 91.6052 61.121 91.4477 61.0513 91.311C60.9816 91.1744 60.864 91.0681 60.721 91.0126C60.6416 90.9802 60.5566 90.9639 60.4709 90.9644C60.3852 90.9649 60.3004 90.9823 60.2214 91.0156C60.1424 91.049 60.0707 91.0975 60.0105 91.1585C59.9503 91.2195 59.9027 91.2918 59.8704 91.3712C59.7095 91.9644 59.5791 92.5654 59.4797 93.1718C59.3646 93.6944 59.3539 94.2345 59.4481 94.7612C59.5123 95.0724 59.6645 95.3587 59.8866 95.5859C59.971 95.6769 60.0756 95.7468 60.1919 95.7899C60.3083 95.833 60.4332 95.8481 60.5564 95.8341C60.6797 95.82 60.798 95.7772 60.9017 95.709C61.0054 95.6408 61.0916 95.5492 61.1533 95.4416C61.2887 95.1719 61.3824 94.8833 61.431 94.5855C61.4877 94.3294 61.517 94.0681 61.5185 93.8058C61.5362 93.1523 61.4265 92.5017 61.1955 91.8902Z" fill="black"/>
<path d="M51.909 91.6095C51.9581 91.5817 52.0005 91.5436 52.0333 91.4977C52.181 91.506 52.3269 91.4629 52.4463 91.3756C52.5656 91.2884 52.651 91.1624 52.6879 91.0192C52.7087 90.8551 52.6702 90.689 52.5794 90.5507C52.4886 90.4124 52.3515 90.3111 52.1926 90.265C51.5855 90.1865 50.974 90.1459 50.3618 90.1434C49.8277 90.1036 49.2909 90.1692 48.7822 90.3365C48.4826 90.446 48.2193 90.6366 48.0217 90.887C47.9442 90.9844 47.8906 91.0987 47.8651 91.2206C47.8396 91.3425 47.843 91.4686 47.875 91.589C47.907 91.7093 47.9667 91.8206 48.0493 91.9137C48.1319 92.0069 48.2352 92.0794 48.3509 92.1256C48.6389 92.2196 48.9394 92.2698 49.2424 92.2745C49.5043 92.2914 49.7672 92.2834 50.0276 92.2508C50.691 92.1639 51.3306 91.9459 51.909 91.6095Z" fill="black"/>
<path d="M42.4364 89.9254C41.7805 93.7374 40.8382 97.4945 39.6175 101.165C39.3536 101.96 40.5699 102.452 40.8345 101.651C42.0884 97.8779 43.0587 94.0167 43.7374 90.0993C43.8824 89.2423 42.5845 89.1037 42.4364 89.9254Z" fill="black"/>
<path d="M118.858 41.1201C118.018 39.6685 117.025 38.311 115.896 37.0709C115.709 36.8335 115.465 36.6483 115.185 36.5331C114.906 36.4178 114.602 36.3765 114.302 36.4131C114.003 36.4497 113.717 36.563 113.474 36.742C113.231 36.921 113.038 37.1597 112.914 37.435C112.113 38.9729 112.098 40.9695 111.964 42.6592C111.809 44.6678 111.647 46.6757 111.491 48.6843C111.136 53.3022 110.776 57.9195 110.412 62.5363C110.318 63.3711 111.643 63.5198 111.709 62.6818C111.992 59.0387 112.277 55.4004 112.563 51.7669C112.841 48.1721 113.03 44.5533 113.425 40.9716C113.491 40.1267 113.65 39.2916 113.9 38.4818C113.974 38.2596 114.082 37.8595 114.292 37.7293C114.69 37.4806 115.065 38.0606 115.274 38.3146C116.201 39.4596 117.058 40.6593 117.841 41.9072C119.423 44.4316 120.708 47.1312 121.668 49.9519C122.767 53.1981 123.431 56.5757 123.643 59.9965C123.696 60.8338 124.97 60.6205 124.931 59.7916C124.497 53.1584 122.41 46.7392 118.858 41.1201Z" fill="black"/>
<path d="M119.853 77.5677C115.535 76.9973 111.538 74.9828 108.512 71.8519C107.117 70.396 105.446 68.4199 106.682 66.3649C107.919 64.3098 110.239 63.9274 112.362 63.9979C115.181 64.0975 118.012 64.5759 120.807 64.8895C120.979 64.9088 121.151 64.8589 121.287 64.7509C121.422 64.643 121.509 64.4857 121.528 64.3136C121.547 64.1416 121.498 63.969 121.39 63.8337C121.282 63.6984 121.124 63.6116 120.952 63.5923C118.075 63.2695 115.151 62.7458 112.25 62.6928C109.859 62.6481 107.399 63.2175 105.882 65.2131C104.366 67.2088 104.864 69.4306 106.278 71.273C107.809 73.2377 109.7 74.8918 111.852 76.1461C114.261 77.5705 116.932 78.4973 119.706 78.8717C119.847 78.84 119.974 78.7652 120.071 78.6577C120.167 78.5502 120.228 78.4153 120.244 78.2718C120.26 78.1283 120.231 77.9834 120.161 77.8572C120.091 77.731 119.983 77.6298 119.853 77.5677Z" fill="black"/>
<path d="M116.831 84.6784C113.811 84.2761 111.059 82.7323 109.141 80.3642C108.248 79.2225 107.652 77.8774 107.405 76.449C107.158 75.0206 107.268 73.5533 107.726 72.178C108.011 71.3855 106.794 70.8996 106.509 71.6921C105.979 73.2531 105.838 74.9201 106.098 76.548C106.359 78.1759 107.013 79.7156 108.004 81.0331C110.141 83.7516 113.257 85.5256 116.686 85.9755C117.496 86.1014 117.642 84.8042 116.831 84.6784Z" fill="black"/>
<path d="M105.921 66.5664C105.842 66.5471 105.76 66.5456 105.681 66.5621C105.602 66.5786 105.527 66.6127 105.463 66.6618C99.6714 70.7378 93.0887 73.5528 86.1406 74.9248C85.6995 75.5407 85.1398 76.0622 84.4944 76.4588L84.3969 76.5177C84.4684 76.5394 84.5432 76.5478 84.6177 76.5425C92.218 75.326 99.4486 72.42 105.777 68.0384C105.793 67.5451 105.841 67.0535 105.921 66.5664Z" fill="black"/>
<path d="M122.39 93.2091C120.767 94.6075 118.856 95.6311 116.793 96.2071C116.353 96.3255 115.724 96.5832 115.335 96.2531C114.977 95.8628 114.692 95.412 114.492 94.9219C114.087 94.1656 113.746 93.3771 113.471 92.5647C112.913 92.3342 112.412 91.9873 111.999 91.5472C111.934 91.6701 111.918 91.8132 111.954 91.9474C112.304 93.2804 112.817 94.5652 113.481 95.7727C113.732 96.3308 114.076 96.8419 114.499 97.2842C114.75 97.491 115.046 97.6362 115.363 97.7082C115.68 97.7801 116.01 97.7769 116.325 97.6987C118.877 97.171 121.25 95.9933 123.213 94.2796C123.846 93.6868 123.052 92.6616 122.39 93.2091Z" fill="black"/>
<path d="M42.611 90.1439C36.5904 91.1109 30.9834 93.8159 26.4793 97.9265C25.8638 98.4932 26.6716 99.5131 27.294 98.9471C31.6228 94.9851 37.0153 92.3748 42.8082 91.4376C42.9798 91.4114 43.1339 91.3182 43.2367 91.1784C43.3396 91.0386 43.3826 90.8637 43.3565 90.6922C43.3303 90.5206 43.2371 90.3665 43.0973 90.2636C42.9575 90.1608 42.7826 90.1178 42.611 90.1439Z" fill="black"/>
<path d="M32.9643 80.8709C33.6472 80.3886 32.8325 79.368 32.1427 79.8495C27.7292 82.9454 23.2972 86.1441 20.1964 90.6169C20.1165 90.7353 20.0751 90.8755 20.0778 91.0184C20.0805 91.1612 20.1273 91.2997 20.2116 91.415C22.0238 94.1057 24.1486 96.572 26.5415 98.7624C27.1765 99.3297 27.9374 98.2763 27.3231 97.7113C25.1488 95.7045 23.2071 93.4594 21.5346 91.0185C24.5531 86.8439 28.7917 83.8122 32.9643 80.8709Z" fill="black"/>
<path d="M29.1198 96.1516C26.8863 93.9214 24.8719 91.4822 23.1042 88.8674C23.0507 88.8004 22.9846 88.7445 22.9095 88.7031C22.8344 88.6616 22.7519 88.6353 22.6667 88.6258C22.5815 88.6162 22.4952 88.6235 22.4128 88.6473C22.3304 88.6711 22.2535 88.7109 22.1865 88.7645C22.0599 88.8782 21.9794 89.0345 21.9604 89.2037C21.9414 89.3729 21.9852 89.5431 22.0836 89.6821C23.8481 92.2974 25.863 94.7346 28.0999 96.9594C28.2137 97.0861 28.37 97.1665 28.5392 97.1855C28.7083 97.2045 28.8786 97.1607 29.0176 97.0623C29.1509 96.9544 29.2363 96.7983 29.2554 96.6279C29.2746 96.4575 29.2258 96.2864 29.1198 96.1516Z" fill="black"/>
<path d="M26.2594 97.6548C26.0974 97.6002 25.9209 97.6073 25.7638 97.6747C25.6067 97.7422 25.48 97.8653 25.408 98.0204C25.1328 98.6732 24.9233 99.3518 24.7825 100.046L24.3806 101.573L24.3899 101.49C24.3233 100.794 24.3457 100.092 24.4565 99.4017C24.4656 99.2318 24.412 99.0645 24.3059 98.9315C24.1997 98.7986 24.0484 98.7092 23.8807 98.6804C23.7108 98.6713 23.5435 98.725 23.4105 98.8311C23.2776 98.9372 23.1882 99.0885 23.1594 99.2562C23.0124 100.18 23.0034 101.121 23.1327 102.048C23.1585 102.47 23.3073 102.875 23.5608 103.214C23.7107 103.397 23.9136 103.529 24.1418 103.592C24.3699 103.655 24.6119 103.646 24.8347 103.566C25.311 103.368 25.3951 102.93 25.519 102.448C25.643 101.966 25.7515 101.559 25.8739 101.091C26.0442 100.226 26.2983 99.379 26.6326 98.563C26.7036 98.3931 26.7041 98.2019 26.6341 98.0316C26.5641 97.8613 26.4294 97.7257 26.2594 97.6548Z" fill="black"/>
<path d="M23.3299 98.3442C21.8248 99.3497 20.2487 100.245 18.614 101.022C18.8429 100.663 19.071 100.312 19.306 99.9608C19.8328 99.1885 20.3917 98.4408 20.9553 97.7145C21.0165 97.5955 21.042 97.4613 21.0287 97.3282C21.0154 97.195 20.9639 97.0685 20.8804 96.9639C20.7969 96.8593 20.685 96.7811 20.5581 96.7387C20.4312 96.6962 20.2947 96.6913 20.1651 96.7246L17.7977 97.8982C17.5162 98.0413 17.2254 98.2043 16.9293 98.3527C17.4916 97.5704 18.2339 96.9348 19.0935 96.4996C19.7156 96.1851 19.4807 95.0409 18.7237 95.2494C17.8806 95.5073 17.0203 95.705 16.1492 95.8409C17.5279 94.3483 19.1744 93.1277 21.0033 92.2425C21.7428 91.8783 21.2342 90.6825 20.4387 91.0473C17.9598 92.2416 15.7922 93.9955 14.107 96.1707C14.0502 96.2659 14.0169 96.3733 14.0101 96.484C14.0032 96.5946 14.023 96.7053 14.0677 96.8068C14.1124 96.9083 14.1807 96.9976 14.267 97.0672C14.3533 97.1368 14.455 97.1848 14.5637 97.207C15.1052 97.2374 15.6484 97.2141 16.1854 97.1375C15.6468 97.7636 15.2173 98.476 14.915 99.2446C14.8832 99.3518 14.8778 99.4651 14.8992 99.5749C14.9206 99.6847 14.9682 99.7876 15.038 99.875C15.1078 99.9624 15.1976 100.032 15.2999 100.077C15.4022 100.122 15.5139 100.142 15.6255 100.135C16.5065 99.9667 17.3488 99.6372 18.11 99.1629L18.2948 99.0718C18.0867 99.3699 17.8717 99.6671 17.6767 99.9736C17.2612 100.626 16.2445 102.028 17.3864 102.561C17.9113 102.802 18.4499 102.485 18.9217 102.265C19.3934 102.046 20.001 101.736 20.5288 101.453C21.5998 100.875 23.0858 100.022 24.0925 99.3311C24.8336 98.8902 24.0158 97.8972 23.3299 98.3442Z" fill="black"/>
<path d="M110.848 96.6216C109.982 94.1961 109.608 91.6222 109.748 89.0505C109.794 88.2103 108.497 88.0578 108.444 88.9042C108.292 91.706 108.702 94.5098 109.65 97.1508C109.938 97.9447 111.13 97.4077 110.848 96.6216Z" fill="#0197E0"/>
<path d="M132.199 70.5216C131.239 66.1801 129.162 61.0984 124.832 59.2153C124.059 58.8771 123.573 60.0941 124.339 60.4315C127.834 61.9764 129.624 66.0059 130.59 69.4748C131.604 73.1332 131.761 76.9759 131.049 80.7047C130.394 84.4495 128.714 87.9394 126.194 90.7865C125.528 91.4984 124.725 92.0686 123.833 92.4631C122.941 92.8576 121.979 93.0683 121.004 93.0826C118.842 93.1839 116.678 92.9034 114.614 92.2539C112.468 91.5408 110.691 90.0105 109.666 87.9952C108.642 85.9799 108.454 83.6419 109.142 81.4886C109.399 80.693 108.183 80.2003 107.925 81.0028C107.251 83.0354 107.254 85.2317 107.933 87.2626C108.612 89.2936 109.931 91.0499 111.692 92.2684C113.639 93.5908 115.993 94.0364 118.313 94.2758C120.452 94.5158 122.764 94.5237 124.734 93.529C126.704 92.5344 128.014 90.8229 129.133 89.0622C130.285 87.2592 131.179 85.3043 131.79 83.2541C132.993 79.1115 133.134 74.7327 132.199 70.5216Z" fill="black"/>
<path d="M115.184 96.418C104.19 96.5818 93.46 93.4567 83.4896 89.0404C80.6342 87.7769 77.8333 86.4007 75.0762 84.9456C74.3306 84.5545 73.8248 85.7623 74.5635 86.1526C84.4601 91.3501 94.9704 95.6243 106.076 97.1427C109.153 97.5637 112.256 97.7531 115.361 97.7093C116.199 97.7056 116.017 96.4066 115.184 96.418Z" fill="black"/>
</svg>
