<svg width="151" height="152" viewBox="0 0 151 152" fill="none" xmlns="http://www.w3.org/2000/svg">
<rect x="2.5" y="3" width="146" height="146" rx="73" fill="white" fill-opacity="0.3"/>
<rect x="1.405" y="1.905" width="148.19" height="148.19" rx="74.095" stroke="white" stroke-opacity="0.8" stroke-width="2.19"/>
<path d="M58.8163 46.6591C58.7269 46.7485 58.6598 46.838 58.5704 46.9274C58.3244 46.7262 57.989 46.6143 57.5865 46.6814C56.7368 46.8156 55.9318 47.0392 55.1716 47.3299C54.0536 47.5759 52.9803 47.956 51.9517 48.4255C50.2523 49.2082 47.9044 50.1026 46.9429 51.8243C46.451 52.6964 46.3616 53.7026 46.2498 54.6641C46.1156 55.894 46.0038 57.1238 45.9144 58.3536C45.8249 59.4269 45.7802 60.5225 45.7355 61.5958C45.4671 61.7076 45.2435 61.9313 45.1988 62.2667C44.6845 65.4866 44.6398 68.7065 44.9976 71.9264C45.0647 72.463 45.7802 72.6866 46.205 72.463C49.0448 70.8754 52.0188 69.5785 55.1269 68.617C55.4399 68.5276 55.7977 68.2146 55.753 67.8344C55.6859 66.8282 55.6188 65.7996 55.5517 64.7487C55.6411 63.7201 55.7529 62.6915 55.8424 61.6629C56.2672 57.3026 56.8486 52.8306 59.107 48.9846C59.1741 48.8728 59.2188 48.7833 59.2412 48.6715C59.4872 48.3808 59.7108 48.1125 59.9791 47.8442C60.717 47.1063 59.5766 45.8988 58.8163 46.6591Z" fill="#4A7084"/>
<path d="M67.8272 66.7142C71.8521 67.1838 75.877 67.8099 79.9242 68.0782C87.2584 68.5701 94.4809 67.4968 101.614 69.2857C101.927 68.7714 102.218 68.2571 102.486 67.7652C103.358 66.1776 104.118 64.5453 104.789 62.8682C105.46 61.1688 106.019 59.4247 106.444 57.6582C106.824 56.0706 107.092 54.5278 105.929 53.2085C103.783 50.7712 99.9368 50.7712 96.9853 50.5923C93.0722 50.3687 89.1367 50.2122 85.2013 50.2345C82.0932 50.2569 78.9404 50.4805 76.0111 51.5315C73.9763 51.5985 72.0533 51.8669 70.3316 53.1638C68.3415 54.6396 67.3129 57.0545 66.3291 59.2458C65.2781 61.5713 64.4284 63.9639 63.7129 66.4012C65.0769 66.4012 66.4632 66.5577 67.8272 66.7142Z" fill="#89A1AE"/>
<path d="M87.6604 47.3485C87.5933 46.8118 87.2356 46.5211 86.8107 46.4317C86.4753 45.7609 85.6256 45.582 84.7982 45.582C77.3075 45.6044 69.7944 46.1187 62.3484 46.9013C61.9906 46.633 61.4316 46.5882 61.0738 47.0354C59.3968 49.2268 58.9272 51.9324 58.4129 54.5709C57.7868 57.7237 56.6464 60.7648 56.0874 63.9399C55.9533 64.6331 55.8638 65.3486 55.7968 66.0642C55.752 66.7126 55.6179 67.5624 55.8191 68.1884C56.2663 69.5077 57.921 68.7027 58.8378 68.4568C59.598 68.2555 60.3583 68.0543 61.1185 67.8307C61.7223 67.6741 62.5273 67.5623 62.9968 67.0928C63.4217 66.6679 63.5111 65.9971 63.6453 65.4381C63.69 65.2816 63.7347 65.1027 63.7571 64.9462C63.936 64.7896 64.0701 64.5884 64.1148 64.2977C64.6068 61.4356 65.9484 58.73 67.29 56.1585C68.5422 53.7659 70.1522 51.7982 72.8354 51.038C75.6752 50.2106 78.7833 50.0765 81.7125 49.9647C83.5908 49.8976 88.1076 50.546 87.6604 47.3485Z" fill="white"/>
<path d="M87.84 45.9205C87.2587 45.2496 85.7605 45.4285 84.9779 45.3615C82.3841 45.1378 79.7903 44.9589 77.1965 44.8919C72.6573 44.7577 68.1181 45.0037 63.6908 46.0546C63.4672 45.2496 62.3939 45.0484 61.9466 46.1664C61.8796 46.323 61.8348 46.4795 61.7678 46.636C61.5218 46.8149 61.4324 47.1056 61.4771 47.3963C58.9503 53.8137 57.318 60.5442 56.6249 67.4089C56.5354 68.2809 57.4298 68.7728 58.1677 68.661L62.9976 67.8784C64.5852 67.6101 65.4125 65.5977 63.8249 65.866L59.3081 65.9778C60.0684 59.7392 62.6622 50.0572 63.8696 48.6932C65.1218 47.2845 70.7343 46.8372 74.625 46.8372C76.7045 46.8372 78.963 46.6584 81.0425 46.7925C82.0711 46.8596 83.122 46.9267 84.1506 47.0161C84.7096 47.0609 85.8947 47.0385 86.4984 47.1503C86.5208 47.6199 86.409 48.2012 86.3866 48.5814C86.3419 49.6547 87.9966 49.6994 88.0413 48.6261C88.086 47.8211 88.399 46.5689 87.84 45.9205Z" fill="#CDEAFC"/>
<path d="M105.863 51.6437C103.761 50.5704 101.011 50.3692 98.6854 50.1232C93.4978 49.5418 88.176 49.4524 82.966 49.7207C80.4169 49.8548 77.8454 50.0561 75.3411 50.4809C73.1721 50.8387 71.0255 51.5095 69.3708 53.03C67.5596 54.6847 66.3969 57.0102 65.3459 59.1791C64.4068 61.1245 63.4006 63.9643 62.5732 66.4463C63.1546 66.4016 63.7583 66.4016 64.3397 66.4239C65.5695 62.7568 67.1571 58.6201 69.0801 55.8698C70.31 54.1257 71.8975 53.0077 73.9771 52.471C76.079 51.912 78.315 51.7331 80.484 51.5543C85.1349 51.1518 89.853 51.1965 94.504 51.4648C96.8742 51.599 99.2444 51.8226 101.592 52.2251C102.643 52.404 103.761 52.5828 104.745 52.9853C106.02 53.4996 106.288 54.4611 106.02 55.7356C105.55 58.0611 104.633 60.3866 103.739 62.5779C102.956 64.5009 101.793 66.983 100.675 69.0848C101.212 69.1966 101.771 69.3755 102.308 69.5097C104.432 65.5072 106.467 60.7667 107.518 56.6077C108.032 54.6176 107.831 52.6499 105.863 51.6437Z" fill="black"/>
<path d="M61.7456 67.0713L62.0139 66.244C62.7295 64.075 63.8028 60.9669 64.809 58.8874C65.8599 56.7408 67.045 54.3035 68.968 52.5594C70.4662 51.1954 72.4562 50.3457 75.2513 49.8761C77.465 49.496 79.8352 49.2724 82.9433 49.0935C88.444 48.8028 93.7658 48.937 98.7521 49.496L99.49 49.5854C101.659 49.8314 104.141 50.0774 106.109 51.106C107.473 51.7991 108.926 53.342 108.099 56.7184C106.824 61.8613 104.253 67.0937 102.844 69.7546L102.62 70.1794L101.883 69.9782C101.435 69.844 101.011 69.7322 100.563 69.6428L99.8031 69.4862L100.161 68.7931C101.279 66.6912 102.442 64.2092 103.202 62.3533C104.119 60.0949 104.991 57.8588 105.46 55.6004C105.684 54.46 105.438 53.8786 104.521 53.4985C103.716 53.1631 102.755 53.0066 101.86 52.8277L101.502 52.7606C99.4453 52.4028 97.2316 52.1569 94.4813 52.0004C89.2713 51.7097 84.7098 51.732 80.5284 52.0898C78.5159 52.2463 76.2352 52.4476 74.1109 53.0066C72.1879 53.4985 70.6898 54.5494 69.5494 56.1818C67.5593 59.0215 65.927 63.4936 64.8761 66.5794L64.7419 67.0042L64.2947 66.9819C63.7133 66.9595 63.1543 66.9595 62.5729 67.0042L61.7456 67.0713ZM100.63 50.9047C100.206 50.86 99.7807 50.8153 99.3782 50.7705L98.6403 50.6811C93.721 50.1221 88.4663 49.9879 83.0327 50.2786C79.9694 50.4351 77.6439 50.6811 75.4526 51.0388C72.9035 51.4637 71.0923 52.224 69.773 53.4314C68.0289 55.0414 66.8885 57.3669 65.8823 59.424C65.0102 61.1905 64.0935 63.7843 63.4226 65.8191C63.6015 65.8191 63.7804 65.8191 63.9593 65.8191C65.122 62.4427 66.6649 58.3507 68.6326 55.5333C69.9519 53.655 71.6513 52.4699 73.8426 51.8886C76.0563 51.3072 78.3818 51.1283 80.4389 50.9494C84.6651 50.5917 89.2937 50.5693 94.5484 50.86C97.3434 51.0165 99.6019 51.2625 101.704 51.6202L102.061 51.6873C103.045 51.8662 104.052 52.0227 104.968 52.4252C106.399 53.0066 106.958 54.1693 106.601 55.8464C106.131 58.1942 105.237 60.475 104.298 62.8005C103.604 64.4999 102.576 66.7135 101.57 68.6812C101.726 68.726 101.883 68.7707 102.039 68.8154C104.32 64.4328 106.064 60.0725 106.958 56.4725C107.495 54.3259 107.048 52.9171 105.572 52.1793C104.163 51.419 102.352 51.1059 100.63 50.9047Z" fill="black"/>
<path d="M87.3043 45.1367C86.8347 44.7789 86.298 44.6895 85.739 44.6448C84.7105 44.5553 83.6819 44.5553 82.6533 44.5106C78.7402 44.3765 74.8495 44.4212 70.9364 44.6001C69.0134 44.6895 67.0904 44.8237 65.1674 44.9802C63.5798 45.1144 61.9028 45.1815 60.5611 46.143C59.4655 46.9479 58.8394 48.2001 58.3698 49.4523C57.7437 51.174 57.2518 52.9629 56.827 54.7294C55.8431 58.7319 54.7922 65.0599 54.5015 69.2637C54.5685 69.2189 54.6356 69.1966 54.7027 69.1518C55.0158 68.9953 55.3288 68.8612 55.6642 68.7494C55.8431 68.7046 56.022 68.7046 56.2009 68.727C56.5363 64.7021 57.4978 58.8213 58.4369 55.0871C58.8841 53.2983 59.3537 51.4424 60.0469 49.7206C60.3599 48.938 60.7624 48.133 61.4332 47.5964C62.1487 47.015 63.0655 46.8585 63.9599 46.769C68.1413 46.2995 72.3675 46.1653 76.5489 46.1206C78.606 46.0982 80.6632 46.1206 82.7204 46.21C83.257 46.2324 83.816 46.2548 84.3527 46.2771C84.7999 46.2995 85.4483 46.21 85.8732 46.3665C86.7005 46.6349 86.5664 48.9604 86.5216 49.6983C86.4322 50.7716 88.0869 50.861 88.1763 49.8101C88.3105 48.6473 88.2658 45.897 87.3043 45.1367Z" fill="black"/>
<path d="M53.853 70.2925L53.9201 69.2192C54.2108 65.0826 55.217 58.7993 56.268 54.5955C56.6704 52.9632 57.1624 51.0626 57.8332 49.2514C58.2357 48.1781 58.9065 46.6575 60.2258 45.6737C61.5898 44.6675 63.2668 44.5333 64.7426 44.4215L65.1227 44.3992C67.0681 44.2426 69.0134 44.1084 70.9141 44.019C74.8048 43.8401 78.7626 43.7954 82.6757 43.9296L83.3017 43.9519C84.1291 43.9743 84.9564 43.9967 85.7838 44.0637C86.4098 44.1085 87.0807 44.2203 87.6621 44.6675C89.1378 45.8079 88.8024 49.7656 88.8024 49.788C88.7577 50.3023 88.467 50.7272 88.0198 50.9284C87.5279 51.152 86.9465 51.1073 86.5217 50.8166C86.1192 50.5483 85.9179 50.1011 85.9626 49.5868C86.0968 47.9768 85.8956 47.0153 85.7167 46.8588C85.5154 46.7917 85.18 46.8141 84.8446 46.8141C84.6657 46.8141 84.5092 46.8141 84.3527 46.8141C83.7937 46.7917 83.257 46.7693 82.7204 46.747C80.6856 46.6799 78.6061 46.6575 76.5713 46.6799C71.4954 46.7246 67.6271 46.9035 64.027 47.306C63.1997 47.3954 62.3947 47.5296 61.791 47.9992C61.1873 48.4911 60.8295 49.2737 60.5835 49.8998C59.9127 51.6216 59.4208 53.5222 58.9959 55.1992C58.0568 58.9334 57.0953 64.7695 56.7823 68.7497L56.7375 69.3981L56.0891 69.2863C55.9773 69.264 55.8878 69.264 55.8208 69.2863C55.5524 69.3758 55.2617 69.5099 54.9711 69.6441L53.853 70.2925ZM85.9626 45.2712C85.8732 45.2712 85.7837 45.2488 85.6719 45.2488C84.867 45.1818 84.062 45.1594 83.2347 45.137L82.6086 45.1147C78.7179 44.9805 74.8048 45.0252 70.9588 45.2041C69.0805 45.2935 67.1575 45.4277 65.2121 45.5843L64.832 45.6066C63.4457 45.7184 61.9922 45.8302 60.9189 46.6352C59.8456 47.4402 59.2643 48.7371 58.9289 49.6762C58.2804 51.4427 57.7885 53.2986 57.4083 54.8862C56.4692 58.6427 55.5301 64.3223 55.1723 68.3248C55.2841 68.2801 55.3735 68.2577 55.463 68.213C55.5301 68.1907 55.5972 68.1683 55.6642 68.1683C56.0444 64.1658 56.9611 58.598 57.8779 54.9756C58.3028 53.2539 58.7947 51.3085 59.5102 49.542C59.8009 48.7818 60.2705 47.8426 61.0755 47.1718C61.9252 46.4787 62.9537 46.3222 63.9152 46.2104C67.56 45.8079 71.4507 45.6066 76.5713 45.5619C78.6284 45.5395 80.708 45.5619 82.7651 45.6513C83.3241 45.6737 83.8608 45.6961 84.4198 45.7184C84.5539 45.7184 84.6881 45.7184 84.8223 45.7184C85.2248 45.7184 85.6943 45.6961 86.0968 45.8302C86.9912 46.1209 87.3266 47.4402 87.1254 49.7657C87.1254 49.8775 87.1478 49.9222 87.1925 49.9445C87.2819 50.0116 87.4161 50.0116 87.5055 49.9669C87.5502 49.9445 87.6173 49.8998 87.6173 49.788C87.7291 48.424 87.5503 46.1656 86.9242 45.6737C86.6782 45.4054 86.3651 45.3159 85.9626 45.2712Z" fill="black"/>
<path d="M61.3657 45.6734C58.3694 45.3603 55.1271 46.143 52.3097 47.1492C49.6488 48.0883 47.6811 49.743 46.496 52.3144C45.2214 55.0424 44.7519 58.2176 44.327 61.1692C43.8351 64.6351 43.5444 70.0239 43.6562 73.5121C43.6785 74.5631 45.3556 74.6972 45.3109 73.6239C45.2214 70.5382 45.445 65.5295 45.8252 62.4661C46.1829 59.6487 46.6301 56.7418 47.5916 54.0586C48.5084 51.4647 50.1631 49.6983 52.7569 48.7591C55.3731 47.7976 58.4812 47.0597 61.2762 47.3504C62.3272 47.4399 62.4166 45.7852 61.3657 45.6734Z" fill="black"/>
<path d="M44.3725 74.9437C44.1712 74.9214 43.9923 74.8543 43.8134 74.7648C43.3439 74.5189 43.0756 74.0493 43.0532 73.5351C42.9638 69.8903 43.2544 64.412 43.7464 61.0803C44.1712 58.1734 44.6408 54.8864 45.96 52.0467C47.1899 49.3858 49.2023 47.5969 52.1092 46.5907C55.7763 45.2938 58.8173 44.8019 61.4111 45.0926C62.3726 45.2267 62.7527 45.987 62.6633 46.7025C62.5739 47.4851 61.9478 48.0217 61.1652 47.9323C58.9068 47.6863 56.0446 48.1559 52.9141 49.3187C50.5216 50.1907 48.9787 51.7783 48.1066 54.2827C47.1675 56.9436 46.7203 59.8504 46.3849 62.5784C46.0271 65.53 45.7812 70.494 45.8706 73.6468C45.893 74.1388 45.6694 74.5636 45.2892 74.7872C45.0209 74.9214 44.6855 74.9885 44.3725 74.9437ZM61.2993 46.2553C58.8844 45.9869 55.9999 46.4789 52.5117 47.7087C49.9178 48.6255 48.129 50.2131 47.0334 52.5609C45.7812 55.2442 45.3116 58.4417 44.9091 61.2591C44.4395 64.5238 44.1489 69.9126 44.2383 73.5127C44.2383 73.5798 44.2607 73.6916 44.3725 73.7586C44.4843 73.8257 44.6184 73.8034 44.6855 73.781C44.6408 70.4493 44.8644 65.4182 45.2445 62.4219C45.6023 59.6268 46.0495 56.6529 47.0334 53.8802C48.0396 51.0628 49.8284 49.2069 52.5564 48.223C55.9105 46.9932 58.862 46.5236 61.344 46.7696C61.4111 46.7696 61.5229 46.7919 61.5453 46.5907C61.5229 46.5013 61.5229 46.2776 61.2993 46.2553Z" fill="black"/>
<path d="M42.7396 78.5895C41.5097 78.0304 40.2128 77.8739 38.9383 77.5162C38.3122 77.3373 37.5966 77.0913 37.1271 76.5994C36.6351 76.2863 36.2103 75.8615 35.9196 75.3025C35.4277 74.3633 35.45 73.2229 35.5395 72.2167C35.8525 69.0639 36.5457 65.9558 36.5904 62.7583C36.5904 62.2663 36.9258 61.8415 37.3507 61.5955C37.0376 60.634 36.3668 60.0079 35.0476 60.1421C33.9295 60.2539 32.901 61.0365 32.0289 61.685C31.045 62.4005 30.173 63.2502 29.3456 64.167C26.1928 67.6328 25.0972 71.4565 23.3978 75.7721C22.4139 78.2317 20.8934 81.5858 22.4586 83.9783C23.845 86.0802 26.4164 87.5336 28.5407 88.7411C29.927 89.5237 31.3581 90.2392 32.8562 90.843C34.2873 91.4243 35.7631 91.648 36.7022 90.1498C38.4016 87.4218 39.788 84.4255 41.3085 81.5857C41.3979 81.6305 41.4874 81.6528 41.5768 81.6976C43.4774 82.5696 44.6849 79.4615 42.7396 78.5895Z" fill="#C4D502"/>
<path d="M35.8749 60.7491C35.4277 60.5255 35.0252 60.5255 34.6675 60.6597C34.3097 60.3913 33.8401 60.3243 33.3929 60.5032C32.5879 60.8162 31.9842 61.4423 31.4476 62.1131C30.8885 62.8287 30.3519 63.5665 29.86 64.3268C28.809 65.892 27.8475 67.5243 26.9978 69.2014C26.4388 70.297 28.0711 71.4821 28.9432 70.6101C29.5022 70.0511 30.0612 69.5144 30.6202 68.9554C30.5755 69.5591 30.5308 70.1852 30.5308 70.7889C30.5308 71.3032 30.5531 71.7952 30.9109 72.1977C31.3134 72.6672 31.9171 72.8461 32.4985 72.6896C33.46 72.4436 33.8625 71.4374 34.2426 70.6101C34.9358 69.0672 35.3383 67.4349 35.7855 65.8026C36.0315 64.9082 36.2774 64.0137 36.5234 63.1417C36.7693 62.292 36.8364 61.2411 35.8749 60.7491Z" fill="#FCFA9C"/>
<path d="M36.9263 89.3918C32.4318 87.8489 26.4169 84.9197 24.8293 82.1023C24.2255 81.0513 24.7622 79.665 24.9634 78.3905C25.2765 76.2886 26.1485 72.3308 27.1548 70.4302C27.6467 69.491 25.7013 70.6537 25.187 71.5929C24.0467 73.7618 23.5995 76.1768 23.2417 78.5694C23.1522 79.1731 23.1075 79.7768 23.0852 80.3582C22.8616 80.2016 22.6156 80.1346 22.3696 80.1569C22.3696 80.4923 22.3696 80.8277 22.3696 81.1631C22.3696 81.1855 22.3696 81.2079 22.3696 81.2302C22.3696 81.3197 22.3696 81.4315 22.392 81.5209C22.392 81.7445 22.4143 81.9681 22.4367 82.1917C22.4591 82.5495 22.4814 82.9073 22.5038 83.265C22.9286 83.6899 23.3758 84.0924 23.823 84.5172C23.9348 84.7632 24.0467 85.0315 24.1808 85.2775C24.4044 85.68 24.7622 85.7247 25.0752 85.5905C28.3175 88.2514 32.007 90.3309 36.0095 91.6949C37.5524 92.2316 38.4468 89.9061 36.9263 89.3918Z" fill="#92B102"/>
<path d="M43.6567 78.698C42.1585 78.3402 40.7051 77.8259 39.3411 77.1551C38.2901 76.6408 36.3224 75.8582 36.2106 74.5389C36.1435 73.8234 36.3448 73.0408 36.4342 72.3252C36.5237 71.5203 36.6355 70.7377 36.7249 69.9327C36.9262 68.4793 37.1498 67.0258 37.3957 65.5724C37.7311 63.6046 38.5808 60.832 36.5684 59.4456C34.6454 58.1264 32.6553 60.1835 31.4031 61.4581C28.0714 64.8568 25.7236 69.0606 23.8453 73.4209C22.8614 75.724 21.8776 78.1837 21.6316 80.7104C21.408 82.9912 22.3695 84.8024 24.0913 86.2558C25.8801 87.7539 28.0267 88.9167 30.0839 89.99C32.1634 91.0633 34.31 91.9801 36.5237 92.7627C36.5237 92.6062 36.5684 92.4273 36.6131 92.2708C36.7249 91.8906 36.8591 91.5329 36.9933 91.1751C34.8466 90.4149 32.7224 89.5204 30.6876 88.4471C28.5633 87.3291 26.0813 86.0993 24.4267 84.3104C22.6602 82.4098 23.2639 79.9502 23.9795 77.6918C24.6503 75.5452 25.5671 73.4656 26.5733 71.4308C27.5348 69.4855 28.6081 67.5848 29.8826 65.8183C31.0901 64.1413 32.6106 62.0171 34.4441 60.9661C36.0765 60.027 36.3001 62.0171 36.1435 63.1351C35.9647 64.2755 35.7411 65.4159 35.5622 66.5562C35.182 68.9264 34.8243 71.319 34.623 73.7116C34.5336 74.6507 34.5783 75.5675 35.2044 76.3501C35.7858 77.0433 36.6355 77.5129 37.4181 77.9601C39.3411 79.0557 41.3759 79.816 43.5001 80.3303C44.5287 80.5986 44.6852 78.9439 43.6567 78.698Z" fill="black"/>
<path d="M37.0602 93.5912L36.3223 93.3228C33.9968 92.4955 31.8055 91.5563 29.8154 90.5278C27.6241 89.3874 25.5222 88.2246 23.711 86.7265C21.7209 85.0495 20.8265 83.0147 21.0277 80.6892C21.2737 78.0506 22.2799 75.5463 23.2861 73.2208C25.5445 67.9885 27.9818 64.1424 30.9558 61.0791C32.208 59.7821 34.5558 57.412 36.8813 58.9995C38.9832 60.4306 38.4689 63.0468 38.1111 64.9698C38.0664 65.2158 38.0217 65.4841 37.9769 65.7077C37.731 67.1611 37.5074 68.5922 37.3061 70.0456C37.1943 70.8282 37.1049 71.6332 37.0154 72.4158C36.9931 72.6394 36.9484 72.863 36.926 73.0866C36.8366 73.5785 36.7695 74.0928 36.7918 74.5177C36.8589 75.3674 38.29 76.0382 39.2291 76.4631L39.6093 76.6419C40.9509 77.2904 42.3596 77.8047 43.813 78.1401C44.7074 78.3637 45.0876 79.2581 44.9087 79.996C44.7298 80.7115 44.1484 81.0917 43.3658 80.9351C41.0627 80.3985 39.0279 79.5935 37.1273 78.4979L36.9931 78.4308C36.2328 78.0059 35.3608 77.514 34.7571 76.7761C33.9744 75.837 33.9521 74.7413 34.0415 73.7127C34.2651 71.1412 34.6452 68.6369 35.003 66.5127C35.0924 65.9984 35.1819 65.5064 35.2713 64.9921C35.3831 64.366 35.4949 63.7176 35.6067 63.0691C35.7185 62.2642 35.562 61.4815 35.3384 61.325C35.249 61.2579 35.0254 61.325 34.7794 61.4816C33.0576 62.4878 31.5819 64.5226 30.3968 66.1772C29.2117 67.8095 28.1607 69.5984 27.1321 71.7003C25.9694 74.0928 25.1421 76.0605 24.583 77.8717C23.8899 80.1078 23.3756 82.2544 24.8961 83.9091C26.4166 85.5414 28.6974 86.7265 30.7098 87.7774L31.0005 87.9339C32.9011 88.9402 35.003 89.8346 37.2167 90.6172L37.7757 90.8185L37.5745 91.3775C37.4403 91.7352 37.3285 92.093 37.2167 92.4508C37.172 92.5849 37.1496 92.6967 37.1496 92.8085L37.0602 93.5912ZM35.562 59.648C34.3546 59.402 33.0576 60.5871 31.8055 61.8617C28.921 64.8133 26.5508 68.5474 24.3594 73.6456C23.3979 75.904 22.4364 78.2966 22.1905 80.7786C22.0116 82.724 22.7495 84.3786 24.4489 85.8097C26.1706 87.2631 28.2054 88.3588 30.352 89.4768C32.1185 90.3936 34.0415 91.2433 36.0763 91.9812C36.121 91.8247 36.1658 91.6682 36.2328 91.5116C34.1757 90.7514 32.208 89.9017 30.4191 88.9625L30.1284 88.806C28.0265 87.7103 25.634 86.4582 23.9793 84.6917C22.0339 82.5898 22.66 79.8842 23.3979 77.514C23.9793 75.6357 24.8066 73.6233 26.0141 71.186C27.0651 69.0394 28.1607 67.1834 29.3905 65.5064C30.6427 63.7847 32.1856 61.6157 34.1309 60.4977C35.003 59.9834 35.5844 60.1623 35.9422 60.3859C36.9931 61.1014 36.7471 63.0468 36.7024 63.2704C36.613 63.9188 36.4788 64.5673 36.367 65.2158C36.2776 65.7077 36.1881 66.1996 36.0987 66.6915C35.7633 68.7934 35.3831 71.2754 35.1595 73.8022C35.0701 74.6966 35.1372 75.4121 35.6067 76.0159C36.0763 76.5972 36.8142 76.9997 37.5297 77.4022L37.6639 77.4693C39.4751 78.4979 41.4205 79.2581 43.6118 79.7724C43.7236 79.7724 43.7683 79.6606 43.7459 79.5264C43.7236 79.4146 43.6789 79.3028 43.5 79.2581C41.9795 78.9003 40.4813 78.3637 39.0503 77.6705L38.6925 77.4916C37.5074 76.9326 35.7185 76.0829 35.6067 74.5848C35.562 74.0034 35.6515 73.422 35.7409 72.8854C35.7856 72.6841 35.808 72.4605 35.8303 72.2593C35.9198 71.4543 36.0316 70.6493 36.121 69.8667C36.3223 68.4133 36.5459 66.9375 36.7918 65.4841C36.8366 65.2381 36.8813 64.9921 36.926 64.7238C37.2614 62.9573 37.6639 60.9449 36.1881 59.9387C36.0092 59.7822 35.7856 59.6927 35.562 59.648Z" fill="black"/>
<path d="M129.343 79.4616C128.985 77.1585 128.493 74.8777 127.822 72.6417C127.487 71.5013 127.107 70.3386 126.682 69.1535C125.988 68.0131 125.228 66.8951 124.446 65.7994C123.529 64.5025 122.567 63.2056 121.494 62.0205C120.667 61.1037 119.683 60.2316 119.034 59.1583C118.185 58.9571 117.313 59.1136 116.642 59.9857C115.993 60.7906 116.016 61.9311 116.038 62.9149C116.06 64.2342 116.262 65.5311 116.485 66.8056C116.709 68.0578 116.977 69.31 117.134 70.5845C117.246 71.4566 117.38 72.5075 116.932 73.3125C116.955 73.469 117 73.6256 116.977 73.8044C116.977 73.6703 116.977 73.5361 116.977 73.4243C116.977 73.5585 116.977 73.6926 116.977 73.8044C116.977 73.8268 116.977 73.8268 116.977 73.8492C116.977 73.8715 116.977 73.8939 116.977 73.9386C116.977 74.0057 116.977 74.0504 116.977 74.1175C116.977 74.1399 116.977 74.1399 116.977 74.1622C116.955 74.2517 116.932 74.3411 116.91 74.4305C116.888 74.52 116.865 74.6094 116.843 74.6988C116.843 74.7212 116.843 74.7212 116.821 74.7436C116.731 74.9001 116.642 75.0566 116.53 75.2132C116.306 75.4815 116.06 75.6604 115.747 75.7945C115.591 75.8392 115.412 75.884 115.255 75.9287C115.144 75.951 115.032 75.884 114.92 75.884C113.511 77.1361 111.857 77.8964 110.135 78.5225C109.464 77.9188 108.257 78.7461 108.86 79.5511C109.934 81.0045 110.873 82.5474 111.678 84.1797C111.7 84.2468 111.723 84.2915 111.767 84.3586C111.275 85.1412 111.409 86.3487 112.326 86.7735C112.595 86.9077 112.841 87.0866 112.975 87.3325C113.131 87.9586 113.176 88.6294 112.639 89.0319C112.371 89.2555 112.147 89.6357 112.282 89.9934C112.796 91.268 114.026 91.3127 115.166 90.9326C116.597 90.4406 118.006 89.904 119.415 89.345C120.331 88.9872 121.226 88.5847 122.12 88.1822C123.954 87.4667 125.698 86.5499 127.263 85.3871C129.298 83.8219 129.723 81.8989 129.343 79.4616Z" fill="#C4D502"/>
<path d="M119.145 60.4519C119.123 60.4296 119.1 60.4296 119.078 60.4296C118.922 60.2283 118.698 60.0942 118.43 60.0271C117.804 59.9153 117.043 60.273 116.932 60.9439C116.708 62.3302 116.574 63.7613 116.574 65.17C116.574 65.8408 116.596 66.534 116.663 67.2048C116.708 67.898 116.73 68.7029 116.976 69.3514C117.289 70.2234 118.184 70.8272 119.123 70.5365C119.973 70.2682 120.218 69.4855 120.487 68.7253C120.509 68.6806 120.509 68.6135 120.532 68.5688C120.621 68.7029 120.71 68.8371 120.8 68.9489C121.135 69.3961 121.56 69.7539 122.164 69.7539C122.633 69.7539 123.036 69.5526 123.349 69.1949C123.841 68.6135 123.953 67.7191 123.953 67.0035C123.863 63.9849 121.404 62.0619 119.145 60.4519Z" fill="#FCFA9C"/>
<path d="M129.275 82.7471C129.61 81.5844 129.655 80.3769 129.431 79.1471C129.364 78.834 129.074 78.6552 128.761 78.5881C128.738 76.3073 128.246 74.0713 127.777 71.8576C127.553 70.8066 126.122 70.9184 126.346 71.9694C126.815 74.183 127.151 76.8216 127.106 79.1024C127.084 80.1533 127.374 83.5745 121.091 85.7658C118.564 86.6602 116.037 87.5993 113.511 88.5161C112.013 89.0528 112.75 91.4453 114.249 90.9087C116.842 89.9695 119.481 89.0528 122.052 88.0689C123.506 87.5099 124.937 86.8614 126.323 86.1235C126.39 86.1235 126.48 86.1235 126.547 86.1012C127.262 85.967 127.799 85.5198 128.224 84.9608C128.447 84.8043 128.693 84.6701 128.917 84.4912C129.454 84.0887 129.677 83.3732 129.297 82.7695L129.275 82.7471Z" fill="#92B102"/>
<path d="M128.738 73.6436C127.151 69.1715 125.094 64.8336 121.985 61.2112C120.823 59.8472 118.967 57.6783 116.954 58.8634C114.83 60.1155 115.501 62.933 115.702 64.9231C115.859 66.3765 115.97 67.8523 116.082 69.3281C116.127 70.133 116.194 70.938 116.216 71.7206C116.261 72.4362 116.395 73.2411 116.283 73.9343C116.082 75.2536 114.07 75.8797 112.996 76.3269C111.633 76.8859 108.569 77.9145 107.004 78.2052C107.205 78.4288 107.406 78.63 107.608 78.8536C107.809 79.0325 107.943 79.2561 108.032 79.5244C108.055 79.5468 108.077 79.5915 108.122 79.6139C108.122 79.6139 108.122 79.6139 108.122 79.6362C110.313 79.0996 113.242 78.071 114.897 77.2884C115.702 76.9083 116.597 76.4834 117.223 75.835C117.916 75.1194 118.005 74.2026 117.983 73.2411C117.938 70.8486 117.737 68.4336 117.513 66.0411C117.402 64.8783 117.245 63.7379 117.156 62.5752C117.066 61.4348 117.424 59.4671 118.989 60.518C120.733 61.7031 122.12 63.8945 123.215 65.661C124.356 67.5169 125.317 69.4622 126.144 71.4747C126.994 73.5542 127.777 75.7008 128.313 77.8921C128.872 80.1729 129.297 82.6773 127.419 84.4661C125.653 86.1431 123.081 87.2164 120.89 88.1779C118.43 89.2512 115.903 90.1233 113.31 90.7941C112.281 91.0624 112.773 92.65 113.801 92.3817C116.395 91.7109 118.922 90.8612 121.382 89.7655C123.506 88.8264 125.742 87.8201 127.62 86.4338C129.431 85.0922 130.527 83.3704 130.46 81.0673C130.371 78.5406 129.566 76.0138 128.738 73.6436Z" fill="black"/>
<path d="M113.488 92.9857C113.153 92.9633 112.84 92.8292 112.571 92.5608C112.191 92.1807 112.057 91.6217 112.191 91.1298C112.325 90.6825 112.661 90.3471 113.153 90.213C115.769 89.5422 118.296 88.6701 120.644 87.6415L120.934 87.5074C123.014 86.5906 125.384 85.562 126.994 84.0415C128.626 82.4986 128.268 80.3297 127.709 78.0265C127.262 76.1706 126.569 74.1582 125.585 71.6985C124.713 69.5519 123.752 67.6736 122.701 65.9743C121.627 64.2525 120.308 62.1283 118.653 61.0102C118.407 60.8537 118.206 60.7643 118.094 60.8313C117.871 60.9655 117.647 61.7258 117.714 62.5531C117.759 63.2016 117.848 63.85 117.916 64.4985C117.983 64.9904 118.027 65.5047 118.072 65.9966C118.273 68.1656 118.475 70.7147 118.542 73.2414C118.564 74.2253 118.475 75.3433 117.625 76.2377C116.976 76.9309 116.082 77.3557 115.299 77.7358L115.143 77.8029C113.443 78.6303 110.492 79.6588 108.256 80.1955L107.786 80.3073L107.473 79.6812C107.428 79.5247 107.339 79.3905 107.205 79.2564C107.026 79.0551 106.892 78.921 106.758 78.7644L105.863 77.7806L106.892 77.5793C108.435 77.2886 111.453 76.2601 112.773 75.7234L113.153 75.5669C114.07 75.2091 115.568 74.6054 115.702 73.7781C115.769 73.3532 115.724 72.8389 115.68 72.347C115.657 72.1234 115.635 71.8998 115.635 71.6762C115.59 70.8712 115.545 70.0886 115.501 69.2836C115.389 67.8302 115.277 66.3544 115.121 64.901C115.098 64.655 115.076 64.409 115.031 64.1631C114.785 62.2401 114.45 59.6015 116.641 58.2823C119.078 56.8512 121.247 59.4003 122.41 60.7643C125.183 64.0065 127.374 68.0314 129.252 73.3979C130.057 75.6787 130.929 78.3396 130.996 81.0005C131.063 83.326 130.035 85.316 127.933 86.8589C126.032 88.2453 123.841 89.2515 121.583 90.2577C119.168 91.3086 116.574 92.203 113.913 92.8962C113.779 92.9857 113.622 93.008 113.488 92.9857ZM118.251 59.6462C118.542 59.6686 118.899 59.7804 119.302 60.0487C121.158 61.3009 122.567 63.5593 123.707 65.3705C124.803 67.137 125.786 69.06 126.681 71.2737C127.709 73.778 128.403 75.8576 128.872 77.7582C129.319 79.6365 130.08 82.7446 127.821 84.8912C126.055 86.5682 123.595 87.6415 121.426 88.5807L121.135 88.7148C118.721 89.7658 116.149 90.6602 113.466 91.3534C113.354 91.3757 113.354 91.4204 113.332 91.4428C113.309 91.5322 113.332 91.6664 113.421 91.7558C113.488 91.8229 113.555 91.8453 113.645 91.8006C116.261 91.1298 118.788 90.2577 121.135 89.2291C123.327 88.2676 125.451 87.2838 127.262 85.9645C129.073 84.6452 129.923 83.0353 129.856 81.0899C129.789 78.5855 128.962 76.0365 128.179 73.8451C126.323 68.6128 124.221 64.7221 121.538 61.5916C120.174 59.9816 118.721 58.5058 117.245 59.3555C115.724 60.25 115.97 62.2848 116.194 64.0736C116.239 64.3419 116.261 64.6103 116.283 64.8562C116.44 66.332 116.552 67.8078 116.663 69.2836C116.708 70.0886 116.753 70.8935 116.798 71.6985C116.798 71.8998 116.82 72.101 116.842 72.3246C116.887 72.8836 116.954 73.465 116.865 74.024C116.641 75.5222 114.807 76.2601 113.578 76.7296L113.22 76.8862C112.079 77.3557 109.799 78.1383 108.099 78.5855C108.211 78.6973 108.323 78.8315 108.39 78.988C110.47 78.4514 113.108 77.5122 114.606 76.7744L114.763 76.7073C115.501 76.3495 116.239 75.9917 116.753 75.4551C117.267 74.8961 117.379 74.1805 117.357 73.2861C117.312 70.7818 117.088 68.255 116.887 66.1308C116.842 65.6388 116.775 65.1469 116.73 64.655C116.663 63.9842 116.574 63.3357 116.529 62.6649C116.507 62.4413 116.395 60.4959 117.491 59.8475C117.692 59.7133 117.938 59.6239 118.251 59.6462Z" fill="black"/>
<path d="M121.159 97.815C121.114 96.9653 121.092 96.0932 121.002 95.2435C120.957 94.9305 120.913 94.6398 120.868 94.3267C120.846 94.282 120.846 94.215 120.823 94.1702C120.801 94.0361 120.756 93.9019 120.711 93.7454C120.667 93.5889 120.622 93.4547 120.577 93.3205C120.555 93.2758 120.533 93.2088 120.51 93.164C120.465 93.097 120.421 93.0075 120.398 92.9404C120.309 92.7839 119.973 92.4037 120.443 92.9628C120.085 92.5603 119.862 92.1802 119.817 91.6435C119.772 91.1292 119.996 90.6149 120.331 90.2348C120.13 89.3628 119.929 88.4907 119.66 87.641C120.264 87.1491 120.488 86.1652 120.13 85.4944C118.162 81.7378 115.39 78.4955 111.991 75.9465C110.85 75.0744 109.643 74.3365 108.368 73.6657C108.413 73.5986 108.48 73.5315 108.525 73.4421C108.726 73.1067 108.749 72.7489 108.726 72.3912C108.659 71.7651 108.279 71.1837 107.608 70.9825C98.351 68.0309 88.8254 65.9961 79.1657 64.8557L79.6129 64.5426C79.434 64.5426 79.2551 64.5427 79.0762 64.5203C77.2874 64.4756 75.8787 64.5426 74.1793 64.7439C74.0675 64.7662 73.9557 64.7663 73.8439 64.7886C72.7259 64.6321 71.6078 64.4756 70.5122 64.4308C69.9979 64.4085 69.6401 64.6544 69.4612 64.9899C68.701 64.9228 67.9407 64.7886 67.2476 64.5426C67.2028 64.6768 67.1358 64.811 67.091 64.9451C66.219 64.2296 64.5419 64.6321 63.4016 64.3861C63.0661 64.319 62.7755 64.2967 62.4401 64.252C62.1494 64.5874 61.7692 64.8333 61.322 64.9228C56.8499 65.7948 52.4449 67.0246 47.8834 67.4271C46.8995 67.9191 45.938 68.4557 45.0436 69.0595C45.312 69.5514 45.3119 70.1998 45.0213 70.6918C44.9542 70.8036 44.8871 70.893 44.82 70.9825C44.8424 71.5638 44.507 72.1452 44.015 72.4582C43.6573 72.6818 43.3219 72.9054 42.9641 73.1291C42.8076 73.2409 42.6511 73.3527 42.4945 73.4645C42.4945 73.4645 42.4051 73.5315 42.338 73.5763C42.2709 73.621 42.1815 73.6881 42.1815 73.6881C41.5778 74.1353 40.9964 74.6272 40.4374 75.1415C39.856 75.6782 39.3417 76.2372 38.8274 76.8185C38.8274 76.8409 38.8051 76.8409 38.8051 76.8632C38.7603 76.9303 38.6933 76.9974 38.6485 77.0645C38.5144 77.2434 38.3802 77.3999 38.2684 77.5788C38.0448 77.9142 37.8212 78.2272 37.5976 78.585C37.1951 79.2335 36.4125 79.4347 35.7417 79.2111C34.7131 80.5974 33.774 82.0509 32.969 83.5938C30.8 87.7752 29.6149 92.5826 30.3528 97.2336C30.5541 97.1889 30.7777 97.1889 30.9789 97.2113C31.3367 97.2783 31.605 97.4125 31.851 97.6585C32.1193 97.9268 32.2758 98.3964 32.2758 98.7765C32.2534 99.4026 32.2534 100.051 32.2758 100.677C32.8348 100.744 33.4385 100.543 33.8187 100.029C34.4 104.076 35.8535 108.011 38.179 111.41C41.7119 116.531 46.9219 120.287 52.8027 122.098C56.2462 124.67 60.5841 125.654 64.8326 126.213C64.9668 126.235 65.1009 126.257 65.2351 126.257C70.132 128.248 75.3868 128.874 80.6638 128.672C83.4812 128.561 86.2986 128.27 89.0713 127.845C90.7037 127.599 92.336 127.264 93.8789 126.66C95.8913 127.308 98.5075 126.593 100.363 125.989C105.953 124.156 110.426 120.131 113.713 115.346C113.847 115.144 113.959 114.965 114.093 114.764C114.786 115.122 115.658 115.033 116.195 114.205C119.414 109.331 121.069 103.584 121.159 97.815Z" fill="#FFBF24"/>
<path d="M121.09 98.7357C120.956 96.6562 120.509 94.6214 120.173 92.5643C119.995 92.2959 119.86 92.0053 119.816 91.6251C119.793 91.3792 119.838 91.1556 119.927 90.932C119.86 90.127 120.196 89.3667 121.068 89.1431C121.135 89.1208 121.202 89.1208 121.269 89.1208C121.18 88.8301 121.09 88.517 121.001 88.2263C120.978 88.1592 120.956 88.0922 120.934 88.0251C120.665 87.4437 120.397 86.8847 120.084 86.3481C120.106 86.1915 120.129 86.0127 120.084 85.8561C120.039 85.722 119.995 85.6102 119.927 85.476C119.883 85.3642 119.838 85.23 119.816 85.1182C118.563 82.5915 116.886 80.4226 114.919 78.4996C113.957 77.3368 112.951 76.2188 111.878 75.1678C111.833 75.1455 111.766 75.1455 111.721 75.1231C111.363 74.9219 111.028 74.6982 110.67 74.4523C110.603 74.4299 110.514 74.4523 110.447 74.4076C110.201 74.3405 109.977 74.2063 109.798 74.0275C109.686 73.938 109.597 73.8486 109.507 73.7591C109.306 73.5355 109.105 73.3119 108.948 73.0659C108.792 72.8647 108.725 72.6187 108.68 72.3728C108.68 72.3504 108.68 72.3281 108.68 72.3057C108.546 72.1939 108.412 72.0597 108.278 71.9479C108.814 71.2548 108.859 70.4721 107.92 69.846C101.48 65.5305 93.5645 65.2398 86.0514 64.7255L86.0066 64.0547C85.9172 64.077 85.8501 64.1218 85.7607 64.1441C85.5594 64.1888 85.3358 64.2336 85.1122 64.2559C83.9271 64.9491 83.547 65.6423 85.3135 65.7541C90.0315 66.0895 95.5322 68.0572 100.071 69.5106C100.161 69.5554 100.25 69.6001 100.34 69.6671C99.4676 70.3156 99.2664 71.7914 100.384 72.4399C103.224 74.0498 107.249 75.548 112.504 80.8698C112.75 81.071 112.973 81.3169 113.219 81.5182C113.264 81.5629 113.309 81.63 113.353 81.6747C112.28 81.9878 111.587 83.4188 112.526 84.4251C113.667 85.6772 114.785 87.0412 115.724 88.4946C115.053 88.6064 114.471 89.2102 114.695 89.9928C115.053 91.2003 115.411 92.4748 115.724 93.7717C116.752 98.6463 116.775 103.99 115.098 108.709C114.494 108.082 113.331 108.06 113.04 109.156C112.973 109.446 112.213 112.085 109.955 115.372C106.779 119.553 99.6242 126.239 94.3247 126.619C93.7657 126.664 93.9893 126.91 95.9347 126.843C96.8962 126.82 97.8577 126.709 98.7968 126.53C98.9981 126.485 99.1993 126.44 99.4006 126.373C99.7807 126.239 100.116 126.105 100.541 125.881C101.458 125.434 102.352 124.92 103.247 124.428C104.186 123.936 105.147 123.511 106.086 123.019C107.048 122.505 107.965 121.901 108.859 121.275C109.06 121.119 109.306 121.074 109.552 121.074C110.581 120.09 111.52 119.017 112.347 117.832C112.75 118.033 113.242 118.01 113.667 117.608C115.813 115.551 117.244 113.181 118.139 110.654C119.48 108.574 119.905 105.869 120.196 103.431C120.509 103.342 120.822 103.163 121.045 102.872C121.18 101.486 121.18 100.1 121.09 98.7357Z" fill="#FCFA9C"/>
<path d="M65.5033 126.686C59.0411 125.59 52.6907 121.453 47.7491 116.825C43.4782 112.8 40.795 107.411 39.2074 101.821C38.8049 100.39 37.3067 100.278 36.457 101.105C36.0993 97.5499 36.5465 93.9499 37.7763 90.5512C38.1117 89.6344 36.8372 88.3598 35.9651 88.1586C36.8819 86.1685 37.5303 84.648 38.5589 82.7697C40.6385 78.9684 42.6509 75.0777 46.3627 72.6851C48.1516 71.5224 47.123 70.2478 45.3118 71.4106C41.1975 74.0491 39.0956 76.5982 36.7477 80.8467C35.5403 83.038 34.3552 83.8654 33.3042 86.1238C32.1191 88.6952 31.2247 92.3847 30.7328 95.1798C30.5762 96.0742 30.8893 96.9686 31.8284 97.2593C32.2309 97.3935 32.7005 97.3264 33.0806 97.1475C32.8123 101.888 33.7738 106.673 35.9428 110.944C36.3229 111.682 37.262 111.995 37.9999 111.682C38.6037 111.436 38.9167 110.966 39.0061 110.407C40.6384 113.627 42.6956 116.623 45.3341 119.105C47.8385 121.453 50.723 123.22 53.9429 124.427C57.4311 125.746 61.143 126.373 64.8101 126.999C65.7045 127.155 67.7393 128.519 68.03 127.58C68.2536 126.82 66.3977 126.842 65.5033 126.686Z" fill="#FCFA9C"/>
<path d="M106.266 68.9085C101.011 67.1196 95.8461 66.3594 90.3901 65.3084C85.1131 64.3022 79.3888 63.6537 74.0894 64.0786C64.3402 64.8389 53.8979 65.2637 45.3562 70.5408C44.7525 70.9209 44.5736 71.4576 44.6407 72.0166C41.309 74.4315 38.7822 77.6067 36.8369 81.162C35.2046 83.5098 33.8629 86.0589 32.9462 88.8092C32.2083 91.0229 35.5623 92.4093 36.3226 90.1956C38.7375 83.0179 43.9028 77.1818 50.8122 74.029C51.796 73.5818 52.1091 72.3073 51.6395 71.4352C58.7948 68.5283 67.1576 68.2824 74.6484 67.701C79.523 67.3209 84.5317 66.7395 89.3616 67.5892C94.6386 68.506 99.8263 70.6079 104.902 72.3073C107.093 73.0452 108.502 69.6687 106.266 68.9085Z" fill="#FCFA9C"/>
<path d="M66.3973 64.4769C59.3314 64.5663 51.7736 64.857 46.1611 69.7092C44.9537 70.7602 46.6531 72.5714 47.8605 71.5204C52.914 67.1378 60.6284 65.6173 66.9564 65.5502C68.5663 65.5278 68.0073 64.4545 66.3973 64.4769Z" fill="#FCFA9C"/>
<path d="M80.0815 63.9875C71.4951 62.6235 50.208 64.8819 43.3433 70.226C42.9408 70.5391 43.075 71.2323 43.4775 71.5006C41.9793 72.4397 40.6601 73.6696 39.4079 74.9441C37.3284 77.0907 35.4501 79.4609 33.9072 82.0324C32.3867 84.5815 31.1569 87.3318 30.419 90.1939C30.0389 91.6474 29.7929 93.1455 29.6587 94.666C29.5469 95.9853 29.301 97.707 30.1059 98.8698C30.4414 99.3617 31.224 99.4511 31.537 98.8698C31.6265 98.6909 31.7159 98.5344 31.8053 98.3555C31.6712 103.7 33.6165 109.021 37.2613 113.024C37.9768 113.807 39.1619 112.644 38.424 111.839C34.0637 107.076 32.4091 100.211 34.0861 93.9952C34.3321 93.1008 33.0128 92.4971 32.5656 93.3468L31.1792 95.9853C31.224 95.2698 31.3358 94.5319 31.4029 93.9952C31.5594 92.6312 31.8277 91.2896 32.2078 89.9927C32.9457 87.3765 34.1085 84.8945 35.5395 82.569C36.9706 80.2212 38.6923 78.0746 40.593 76.1069C42.516 74.1168 44.6626 72.2385 47.4129 71.5453C48.4639 71.277 48.0167 69.7341 46.9657 69.9354C46.7868 69.9577 46.6303 69.9801 46.4514 70.0025C52.4888 66.0447 72.5014 64.4123 79.6343 65.5527C80.6853 65.754 81.1325 64.144 80.0815 63.9875Z" fill="black"/>
<path d="M37.6637 113.852C37.3507 113.807 37.06 113.673 36.8364 113.405C33.46 109.715 31.4699 104.841 31.2463 99.8097C31.1568 99.832 31.0674 99.8544 30.9556 99.8544C30.4413 99.8991 29.927 99.6308 29.614 99.2059C28.7643 97.9985 28.9208 96.3438 29.0326 95.0245L29.0773 94.622C29.2115 93.0791 29.4574 91.5363 29.8376 90.0605C30.5755 87.2431 31.7606 84.448 33.3929 81.7424C34.9134 79.2157 36.7917 76.7784 38.983 74.5423C40.3023 73.2007 41.465 72.1721 42.6278 71.3672C42.5607 71.1883 42.5159 71.0094 42.5159 70.8305C42.4936 70.4057 42.6725 70.0255 42.9855 69.7796C50.1409 64.1894 71.987 62.1099 80.171 63.4068C80.6629 63.4739 81.0206 63.7646 81.1772 64.1894C81.356 64.659 81.2443 65.218 80.9089 65.6429C80.5734 66.0677 80.0592 66.2243 79.5449 66.1572C72.7473 65.0615 55.1496 66.5373 48.1508 69.7796C48.352 69.9808 48.4862 70.2491 48.5533 70.5175C48.7322 71.2777 48.3073 71.9485 47.547 72.1498C44.9085 72.8206 42.8514 74.6541 41.0178 76.5324C39.0724 78.5225 37.3954 80.6691 36.0314 82.9051C34.5556 85.2977 33.46 87.735 32.7668 90.1723C32.4985 91.1114 32.2749 92.0506 32.1407 92.945C32.4985 92.4083 33.1469 92.2071 33.773 92.4754C34.4662 92.7438 34.8463 93.4593 34.6674 94.1525C33.0575 100.212 34.6674 106.831 38.8936 111.459C39.2513 111.84 39.3631 112.354 39.2066 112.846C39.0501 113.36 38.6252 113.763 38.1109 113.852C37.9544 113.874 37.7979 113.874 37.6637 113.852ZM32.4537 95.8966L32.3867 98.3786C32.2749 103.611 34.1979 108.821 37.6861 112.622C37.7532 112.712 37.7979 112.689 37.8203 112.689C37.9097 112.667 37.9991 112.577 38.0439 112.466C38.0662 112.376 38.0439 112.309 37.9768 112.242C33.5047 107.345 31.7829 100.279 33.5047 93.8618C33.5494 93.6605 33.3482 93.5711 33.3258 93.5711C33.1469 93.504 33.1022 93.6158 33.0798 93.6382L30.5307 98.468C30.5531 98.4904 30.5531 98.5127 30.5755 98.5351C30.6426 98.6245 30.7543 98.6916 30.8662 98.6916C30.9332 98.6916 30.978 98.6693 31.0003 98.6022L32.4537 95.8966ZM79.0753 64.4354C69.751 63.3174 50.0291 65.7547 43.7234 70.6963C43.701 70.8976 43.7681 71.0094 43.8129 71.0317L44.5508 71.5237L43.8129 71.9933C42.5607 72.7982 41.2861 73.8715 39.8551 75.3473C37.7308 77.5386 35.9196 79.8865 34.4438 82.3461C32.8786 84.9399 31.7158 87.6455 31.0227 90.3512C30.6425 91.7822 30.3966 93.2357 30.2848 94.7115L30.2401 95.114C30.1506 96.232 30.0388 97.4842 30.5084 98.3339L30.6202 95.9413C30.6425 95.427 30.7096 94.8904 30.7767 94.4208L30.8438 93.9065C30.978 92.5872 31.2686 91.2009 31.6711 89.8145C32.3867 87.2878 33.5271 84.7387 35.0476 82.2567C36.4563 79.9536 38.2004 77.7399 40.1905 75.6827C42.1582 73.6703 44.3495 71.7026 47.2787 70.9647C47.3458 70.9423 47.4576 70.92 47.4129 70.7411C47.4129 70.6964 47.3234 70.4504 47.0775 70.5175C46.921 70.5398 46.7868 70.5622 46.6303 70.5845L44.0365 70.9423L46.116 69.5336C52.5111 65.3522 72.8144 63.854 79.7238 64.9944C79.7908 64.9944 79.9026 65.0168 79.9921 64.8826C80.0815 64.7708 80.1039 64.6367 80.0815 64.5919L79.9697 64.5472C79.7014 64.5249 79.3883 64.4801 79.0753 64.4354Z" fill="black"/>
<path d="M67.2686 126.62C55.1045 124.697 41.7553 119.062 37.641 106.362C37.3056 105.355 35.6956 105.78 36.031 106.809C37.954 112.757 42.0907 117.654 47.2113 121.164C53.025 125.122 59.9344 127.134 66.8214 128.23C67.8723 128.409 68.3195 126.799 67.2686 126.62Z" fill="black"/>
<path d="M66.7994 128.833C66.777 128.833 66.7547 128.833 66.7323 128.833C58.5484 127.536 52.0415 125.188 46.8762 121.678C41.2861 117.854 37.3283 112.801 35.4724 107.032C35.2264 106.294 35.6066 105.556 36.3668 105.31C37.0376 105.086 37.9097 105.332 38.2004 106.227C42.7172 120.202 58.4142 124.674 67.3584 126.083C68.0963 126.195 68.5435 126.821 68.4317 127.581C68.3199 128.274 67.6714 128.923 66.7994 128.833ZM36.8811 106.383C36.814 106.383 36.7469 106.383 36.7246 106.406C36.5233 106.473 36.5681 106.585 36.5904 106.652C38.3793 112.152 42.1582 117.027 47.547 120.694C52.5781 124.115 58.9062 126.396 66.9112 127.67C67.2242 127.715 67.269 127.38 67.269 127.38C67.2913 127.246 67.2466 127.246 67.1572 127.223C57.9447 125.77 41.778 121.141 37.06 106.585C37.0376 106.428 36.9705 106.406 36.8811 106.383Z" fill="black"/>
<path d="M79.5455 65.6174C84.4872 65.7292 93.2748 66.3105 98.0823 67.4285C101.571 68.2335 105.305 69.2174 108.1 71.5429C108.077 71.5429 108.055 71.5429 108.033 71.5429C107.474 71.4758 107.116 72.1242 107.228 72.5938C107.653 74.2932 109.732 75.1205 110.984 76.1044C112.505 77.3119 113.914 78.6759 115.166 80.174C116.396 81.6498 117.491 83.2821 118.408 84.9815C118.878 85.8759 119.325 86.7927 119.683 87.7318C119.75 87.9107 120.286 88.9617 120.174 89.0958C120.085 89.2076 119.392 88.7604 119.28 88.671C118.497 88.1567 117.849 89.1406 118.14 89.8114C121.941 98.6214 120.13 108.728 114.025 115.817C114.204 116.554 114.271 117.337 114.204 118.097C121.225 110.942 123.573 100.276 120.242 90.7505C120.42 90.7505 120.599 90.7281 120.778 90.661C121.65 90.3704 121.963 89.476 121.762 88.6263C121.225 86.3679 119.906 84.0871 118.676 82.1641C117.402 80.1964 115.926 78.3628 114.227 76.7305C113.399 75.9255 112.527 75.1876 111.588 74.4721C111.051 74.0696 110.135 73.6224 109.486 73.0634C109.754 72.9963 110 72.9069 110.269 72.7951C110.783 72.5715 110.738 71.8336 110.425 71.4982C107.474 68.1888 103.046 66.8919 98.865 65.8857C93.7891 64.6782 84.7108 64.0298 79.5008 63.918C78.4722 63.9403 78.4722 65.595 79.5455 65.6174Z" fill="black"/>
<path d="M113.511 119.663L113.645 118.053C113.712 117.337 113.645 116.622 113.488 115.951L113.421 115.66L113.622 115.437C119.682 108.415 121.247 98.4427 117.625 90.0575C117.357 89.4538 117.558 88.6711 118.05 88.2463C118.385 87.9779 118.788 87.8885 119.168 88.0003L119.145 87.9556C118.788 87.0835 118.385 86.1891 117.893 85.2724C116.976 83.573 115.903 81.9854 114.74 80.5767C113.511 79.1009 112.124 77.7592 110.648 76.5741C110.335 76.3282 109.955 76.0822 109.553 75.8362C108.368 75.076 107.048 74.2263 106.691 72.7505C106.579 72.3033 106.713 71.8114 107.004 71.4312C104.455 69.62 101.279 68.7703 97.97 68.0101C93.1178 66.8697 84.2855 66.3107 79.545 66.2212C78.7177 66.1989 78.1587 65.5728 78.1587 64.7454C78.1811 63.9628 78.7848 63.3591 79.5674 63.3815C84.5091 63.4933 93.7886 64.097 99.0657 65.3492C103.18 66.3331 107.831 67.6747 110.917 71.1405C111.23 71.4983 111.364 72.035 111.275 72.5045C111.207 72.8176 111.029 73.0859 110.76 73.2648C110.872 73.3319 111.006 73.4213 111.118 73.4884C111.453 73.6896 111.744 73.8685 111.99 74.0474C112.952 74.7853 113.846 75.5456 114.673 76.3505C116.395 78.0052 117.916 79.8611 119.212 81.8959C120.398 83.7295 121.829 86.1668 122.388 88.537C122.678 89.7444 122.119 90.8625 121.068 91.2426C124.132 100.791 121.65 111.434 114.673 118.545L113.511 119.663ZM114.673 115.973C114.718 116.197 114.74 116.398 114.785 116.622C120.845 109.69 122.79 99.7619 119.704 90.9296L119.436 90.1469H120.263C120.398 90.1469 120.532 90.1245 120.621 90.1022C121.203 89.9233 121.337 89.2972 121.225 88.7606C120.711 86.5469 119.347 84.2438 118.206 82.4773C116.954 80.5319 115.501 78.7431 113.846 77.1555C113.063 76.3953 112.191 75.6574 111.275 74.9642C111.073 74.8077 110.805 74.6511 110.514 74.4723C110.067 74.2039 109.575 73.8909 109.15 73.5331L108.301 72.8176L109.374 72.5269C109.62 72.4598 109.843 72.3927 110.089 72.2809C110.157 72.1244 110.112 71.9679 110.045 71.9008C107.16 68.6809 102.733 67.4064 98.775 66.4672C93.5874 65.2374 84.4196 64.6337 79.5227 64.5219C79.4109 64.5219 79.3662 64.5666 79.3662 64.5889C79.3214 64.6784 79.3214 64.8125 79.3662 64.902C79.3885 64.9467 79.4332 65.0138 79.5674 65.0138C84.3525 65.1256 93.2743 65.6846 98.216 66.8473C101.995 67.7194 105.64 68.7033 108.479 71.0735L109.732 72.1244L107.898 72.1468C107.831 72.2362 107.786 72.3704 107.809 72.4374C108.055 73.466 109.128 74.1592 110.179 74.83C110.604 75.0983 111.006 75.3667 111.364 75.6574C112.907 76.8872 114.338 78.2735 115.635 79.8164C116.865 81.2922 117.983 82.9245 118.944 84.7133C119.458 85.6748 119.883 86.5916 120.263 87.5084L120.353 87.6873C120.778 88.6264 120.979 89.096 120.666 89.4761C120.219 89.9904 119.526 89.5208 118.989 89.1631C118.877 89.096 118.855 89.1183 118.832 89.1407C118.721 89.2301 118.653 89.4314 118.721 89.5879C122.432 98.3085 120.867 108.639 114.673 115.973Z" fill="black"/>
<path d="M115.567 115.503C115.411 115.346 115.21 115.234 114.986 115.234C114.785 115.234 114.539 115.301 114.382 115.458C113.89 116.039 113.398 116.598 112.906 117.18C112.75 117.359 112.661 117.515 112.638 117.761C112.638 117.962 112.705 118.208 112.862 118.365C113.018 118.521 113.22 118.633 113.443 118.633C113.644 118.633 113.89 118.566 114.047 118.41C114.539 117.828 115.031 117.269 115.523 116.688C115.679 116.509 115.769 116.352 115.791 116.106C115.791 115.905 115.724 115.659 115.567 115.503Z" fill="black"/>
<path d="M113.287 119.215C112.974 119.17 112.683 119.036 112.437 118.79C112.191 118.544 112.035 118.142 112.035 117.762C112.035 117.314 112.258 117.024 112.437 116.822L113.913 115.101C114.226 114.743 114.696 114.676 114.942 114.676C115.322 114.676 115.657 114.832 115.948 115.101C116.216 115.347 116.373 115.749 116.35 116.129C116.328 116.576 116.127 116.867 115.948 117.068L114.472 118.79C114.159 119.148 113.689 119.215 113.443 119.215C113.399 119.215 113.354 119.215 113.287 119.215ZM115.009 115.839C114.986 115.839 114.986 115.839 115.009 115.839C114.897 115.839 114.852 115.861 114.83 115.883L113.354 117.605C113.242 117.739 113.242 117.784 113.242 117.806C113.242 117.873 113.264 117.94 113.287 117.963C113.354 118.03 113.421 118.052 113.443 118.052C113.533 118.052 113.6 118.03 113.622 118.008L115.098 116.308C115.21 116.174 115.21 116.129 115.232 116.085C115.232 116.04 115.21 115.95 115.187 115.928C115.098 115.861 115.031 115.839 115.009 115.839Z" fill="black"/>
<path d="M75.6537 129.324C63.8474 128.966 52.0411 123.89 51.5268 123.689C51.102 123.51 50.9007 123.018 51.102 122.593C51.2808 122.169 51.7728 121.967 52.1976 122.169C52.3094 122.213 64.63 127.535 76.3246 127.692C86.6327 127.848 96.7396 127.49 107.182 121.185C110.939 118.926 114.136 114.119 114.181 114.074C114.427 113.694 114.941 113.582 115.344 113.851C115.724 114.096 115.835 114.611 115.567 115.013C115.433 115.214 112.124 120.156 108.054 122.616C97.2539 129.145 86.4538 129.525 76.3246 129.369C76.0786 129.324 75.855 129.324 75.6537 129.324Z" fill="black"/>
<path d="M71.0916 129.547C60.8058 128.317 51.7498 124.404 51.3026 124.203C50.9672 124.046 50.6988 123.778 50.5423 123.42C50.4082 123.063 50.4082 122.682 50.5647 122.325C50.7212 121.967 50.9895 121.721 51.3473 121.564C51.7051 121.43 52.0852 121.43 52.443 121.587C52.9572 121.81 65.0319 126.909 76.3463 127.065C86.565 127.222 96.6048 126.864 106.891 120.648C110.513 118.456 113.666 113.761 113.688 113.716C114.135 113.067 115.007 112.889 115.656 113.313C115.969 113.515 116.193 113.85 116.26 114.208C116.327 114.588 116.26 114.946 116.058 115.281C115.924 115.482 112.57 120.536 108.344 123.063C97.4098 129.659 86.5203 130.061 76.3016 129.883L75.6531 129.86C74.1102 129.86 72.5897 129.726 71.0916 129.547ZM51.8839 122.66C51.8392 122.66 51.7945 122.66 51.7721 122.682C51.7274 122.705 51.6827 122.727 51.638 122.817C51.5709 122.951 51.638 123.085 51.7721 123.13C52.2641 123.353 63.9139 128.362 75.6755 128.72L76.3016 128.742C86.3638 128.899 97.0744 128.519 107.74 122.079C111.721 119.664 115.03 114.7 115.075 114.655C115.142 114.543 115.119 114.387 115.008 114.32C114.896 114.253 114.739 114.275 114.672 114.387C114.65 114.431 111.385 119.306 107.494 121.676C96.9403 128.049 86.7215 128.429 76.3239 128.273C64.9648 128.094 53.2927 123.264 51.9958 122.705C51.9287 122.682 51.9063 122.66 51.8839 122.66Z" fill="black"/>
<path d="M111.498 96.1187C111.14 93.1001 109.664 90.3274 107.876 88.0466C107.697 87.8006 107.495 87.577 107.294 87.3534C107.987 87.8901 109.173 87.1969 108.636 86.3249C105.349 81.0254 99.4681 77.7608 93.319 77.5148C93.2072 77.4925 93.1177 77.4477 93.0059 77.4254C92.76 77.3583 92.5363 77.403 92.3574 77.4925C91.4407 77.5148 90.5239 77.5819 89.5847 77.7384C89.4953 77.7608 89.4282 77.7832 89.3612 77.8279C84.4642 76.6875 79.3213 76.6204 74.7151 78.8118C74.6256 78.7223 74.5362 78.6552 74.4244 78.5881C68.9908 75.7931 62.7969 75.5471 57.095 77.5595C54.3447 78.521 51.7062 79.9298 49.2912 81.6962C46.9881 83.3733 44.5955 85.341 43.2539 88.069C41.8005 91.0429 41.8676 94.4193 42.516 97.6169C43.1421 100.747 44.3719 103.677 46.3173 106.069C50.208 110.854 54.613 115.013 60.069 116.825C71.4504 120.581 85.9624 121.118 97.232 115.885C101.995 113.672 106.445 110.072 109.307 105.242C110.939 102.514 111.878 99.361 111.498 96.1187Z" fill="#FCFA9C"/>
<path d="M106.377 84.4224C104.611 82.41 102.308 81.1131 99.8929 80.1069C97.7239 78.6534 95.3761 77.5131 92.8046 77.1553C90.1885 76.7752 87.2145 76.9988 84.576 77.0211C81.848 77.0435 79.4107 77.6696 76.7946 78.4522C75.207 78.9218 73.8653 81.3367 75.4529 80.8448C79.5225 79.6373 85.7164 79.2125 89.8978 79.4584C91.7984 79.5702 96.4941 79.9504 101.346 83.9082C104.41 86.4125 105.953 89.2747 106.802 93.1654C107.339 95.6698 107.495 98.5319 107.138 101.215C106.154 104.793 103.627 109.936 100.743 112.06C97.8134 114.207 93.3189 116.979 92.0891 117.404C90.5462 117.941 95.9128 116.554 97.5674 116.174C99.1997 115.794 101.525 114.408 102.822 113.491C104.857 112.261 106.556 109.69 107.786 107.61C108.882 105.777 110.671 103.831 110.917 101.618C112.437 95.7592 110.469 89.0734 106.377 84.4224Z" fill="white"/>
<path d="M76.012 78.9926C67.8952 74.7889 57.2516 75.7951 49.649 81.1169C47.5919 82.548 45.9596 83.8001 44.8639 86.0362C43.7459 88.2722 42.7844 90.5977 42.3819 93.0797C41.6664 97.7083 43.4776 102.516 45.9372 106.384C48.4639 110.32 52.0416 113.54 56.5137 115.038C57.7435 115.44 58.8616 114.568 57.7435 113.964C51.013 110.32 45.6242 101.375 45.4453 96.7692C45.2888 92.4089 48.4639 82.0784 61.2765 79.6411C65.7486 78.7914 70.5561 79.1044 74.6257 81.2063C76.1462 81.9666 77.4878 79.7529 76.012 78.9926Z" fill="white"/>
<path d="M100.41 79.2805C99.3587 78.811 98.4196 80.2868 99.4705 80.7563C106.715 83.9762 111.411 91.4223 110.673 99.1366C110.293 103.027 108.571 106.851 105.888 109.78C102.892 113 98.8221 114.923 94.5512 116.086C85.294 118.635 74.9858 118.948 65.5721 116.958C57.0751 115.169 48.757 110.876 44.911 102.96C42.9433 98.9354 42.5855 94.3738 44.1731 90.1701C44.911 88.18 46.0514 86.3464 47.4601 84.7588C49.003 83.0147 50.926 81.4272 53.0502 80.3762C54.0788 79.8619 53.2067 78.3414 52.1782 78.8557C49.7856 80.0631 47.6613 81.852 45.962 83.8197C42.2054 88.2024 40.4836 94.0608 41.87 99.8075C44.0613 108.796 52.2229 114.856 60.9882 117.562C70.9833 120.647 82.2082 120.603 92.3822 118.389C97.0109 117.383 101.639 115.75 105.307 112.732C108.594 110.004 110.941 106.203 111.948 102.133C114.251 92.9875 109.287 83.2383 100.41 79.2805Z" fill="black"/>
<path d="M71.095 119.977C67.5397 119.597 64.1185 118.904 60.8763 117.92C50.747 114.812 43.5246 108.081 41.5121 99.9198C40.1482 94.3297 41.691 88.2253 45.6712 83.5967C47.5047 81.4501 49.6961 79.706 51.9992 78.5432C52.424 78.342 52.8712 78.342 53.2514 78.5879C53.6539 78.8339 53.8775 79.3035 53.8551 79.7507C53.8327 80.1532 53.5868 80.5109 53.2067 80.7122C51.2389 81.696 49.3607 83.1942 47.7283 85.0278C46.3196 86.6154 45.224 88.4042 44.5084 90.3272C43.0103 94.3297 43.2786 98.7794 45.2463 102.827C49.7184 112.017 59.9595 115.416 65.6614 116.623C75.0305 118.591 85.2492 118.3 94.4617 115.751C99.3586 114.409 103.003 112.375 105.62 109.557C108.28 106.695 109.935 102.983 110.315 99.1372C111.053 91.7359 106.536 84.3346 99.3363 81.1147C98.9561 80.9358 98.7102 80.6451 98.6655 80.265C98.6207 79.8401 98.8443 79.3929 99.2245 79.1246C99.627 78.8339 100.097 78.7668 100.566 78.9904C109.577 83.0153 114.631 93.0328 112.328 102.29C111.277 106.516 108.862 110.34 105.552 113.068C102.377 115.706 98.0841 117.585 92.4716 118.792C85.2715 120.313 77.9597 120.715 71.095 119.977ZM52.6477 79.1246C52.5582 79.1246 52.4464 79.1246 52.3346 79.1917C50.1209 80.3097 48.019 81.9867 46.2302 84.0663C42.4066 88.516 40.9084 94.3744 42.2277 99.741C44.173 107.657 51.2166 114.186 61.0999 117.227C70.4466 120.111 81.515 120.402 92.3151 118.054C97.8157 116.869 101.997 115.035 105.083 112.464C108.28 109.825 110.584 106.136 111.612 102.066C113.848 93.1446 108.974 83.4849 100.275 79.6165C99.9847 79.4824 99.7611 79.5942 99.6493 79.6836C99.4704 79.8178 99.3586 79.9967 99.381 80.1756C99.381 80.2203 99.4033 80.3544 99.6269 80.4439C107.095 83.7756 111.791 91.4899 111.031 99.2043C110.628 103.207 108.907 107.075 106.134 110.049C103.428 112.978 99.6717 115.08 94.6406 116.467C85.3163 119.038 74.9634 119.351 65.5049 117.339C55.4427 115.214 47.9967 110.183 44.5979 103.162C42.5407 98.936 42.2724 94.285 43.8376 90.1036C44.5979 88.0911 45.7159 86.2352 47.1917 84.5582C48.8687 82.6575 50.8364 81.1147 52.8936 80.0861C53.0501 79.9967 53.1396 79.8849 53.1619 79.7507C53.1619 79.5718 53.0501 79.3482 52.8936 79.2364C52.8265 79.1693 52.7371 79.1246 52.6477 79.1246Z" fill="black"/>
<path d="M100.408 79.2583C92.4705 75.7253 83.571 76.1054 75.2753 78.0732C74.1573 78.3415 74.5821 80.0185 75.7002 79.7502C83.4816 77.8943 91.9785 77.4023 99.4469 80.7117C100.52 81.2036 101.459 79.7278 100.408 79.2583Z" fill="black"/>
<path d="M75.3432 80.1507C75.0749 80.1284 74.8066 79.9942 74.6053 79.793C74.2923 79.4576 74.1805 78.9656 74.2923 78.5408C74.4041 78.1383 74.7395 77.8476 75.1867 77.7358C84.9806 75.4103 93.5223 75.8128 100.543 78.9433C101.147 79.2116 101.371 79.793 101.102 80.3744C100.834 80.9781 100.052 81.4253 99.2913 81.0899C92.9186 78.2725 85.0029 77.9371 75.7681 80.1507C75.6563 80.1507 75.4997 80.1731 75.3432 80.1507ZM91.085 77.1768C86.3222 76.6625 81.0675 77.0873 75.3656 78.429C75.1867 78.4737 75.0526 78.5855 75.0078 78.742C74.9631 78.9209 75.0078 79.1445 75.142 79.301C75.2538 79.4352 75.4327 79.4799 75.6339 79.4128C85.0253 77.1768 93.0974 77.5122 99.6267 80.3967C100.029 80.5532 100.365 80.3073 100.476 80.0613C100.611 79.7483 100.365 79.6141 100.275 79.5917C97.4577 78.3395 94.372 77.5346 91.085 77.1768Z" fill="black"/>
<path d="M52.1783 80.7115C51.8877 80.7115 51.597 80.555 51.4405 80.2643C51.2169 79.8395 51.351 79.3252 51.7758 79.1016C52.2454 78.8332 63.6269 72.5499 77.1773 77.8047C77.6245 77.9835 77.8481 78.4755 77.6693 78.9227C77.4904 79.3699 76.9984 79.5935 76.5512 79.4146C63.7834 74.4729 52.7374 80.555 52.6256 80.5997C52.4914 80.6892 52.3349 80.7115 52.1783 80.7115Z" fill="black"/>
<path d="M52.0672 81.072C51.6647 81.0273 51.3293 80.8037 51.1281 80.4459C50.9716 80.1552 50.9268 79.8422 51.0163 79.5068C51.1057 79.1937 51.307 78.9254 51.5977 78.7689C52.0896 78.5005 63.6052 72.1278 77.3122 77.4496C77.6252 77.5614 77.8488 77.8074 77.983 78.0981C78.1171 78.3887 78.1172 78.7241 78.0054 79.0372C77.8935 79.3502 77.6476 79.5738 77.3569 79.708C77.0662 79.8422 76.7308 79.8422 76.4178 79.7304C63.9183 74.8781 52.8946 80.8484 52.7828 80.9155C52.6039 81.0273 52.3803 81.072 52.179 81.072C52.1343 81.0944 52.112 81.072 52.0672 81.072ZM69.3071 76.2645C59.5803 75.2136 52.3355 79.2161 51.9554 79.4397C51.8436 79.5068 51.7542 79.6186 51.7318 79.7304C51.6871 79.8645 51.7095 79.9987 51.7765 80.1105C51.866 80.267 52.0225 80.3788 52.2014 80.3564C52.2908 80.3564 52.3803 80.3341 52.4474 80.2894C52.9169 80.0434 63.8736 74.0955 76.6861 79.0819C76.8203 79.1266 76.9544 79.1266 77.0662 79.0819C77.178 79.0372 77.2898 78.9254 77.3345 78.8136C77.424 78.5676 77.3122 78.2769 77.0438 78.1651C74.3606 77.0918 71.7444 76.5105 69.3071 76.2645Z" fill="black"/>
<path d="M84.6424 58.8878C83.5244 59.9611 82.3617 61.0121 81.0871 61.8394C80.4387 62.2643 79.7679 62.6444 79.0747 62.9574C78.4933 63.2258 77.7107 63.6059 77.1964 63.4717C76.6374 63.3152 76.0337 63.6059 75.8101 64.1425C75.9442 64.1425 76.0784 64.1649 76.2125 64.2096C76.5256 64.2991 76.8163 64.3885 77.1293 64.478C77.2635 64.5227 77.3977 64.545 77.5318 64.5674C77.666 64.5674 77.7778 64.5674 77.9119 64.5674C78.4039 64.5897 78.8958 64.6792 79.3654 64.8581C79.5443 64.9252 79.6784 65.037 79.8126 65.1935C80.5505 64.8804 81.2884 64.5003 81.9815 64.0755C83.5468 63.0916 84.9555 61.8842 86.2524 60.6096C87.3481 59.5363 85.7381 57.8369 84.6424 58.8878Z" fill="black"/>
<path d="M79.7232 65.5292L79.589 65.3503C79.4996 65.2161 79.3878 65.149 79.2983 65.1043C78.8511 64.9478 78.3815 64.8584 77.912 64.836C77.8449 64.836 77.7555 64.836 77.666 64.836H77.5319L77.3083 64.7913C77.2188 64.7689 77.1294 64.7466 77.0623 64.7242C76.7492 64.6348 76.4362 64.5453 76.1455 64.4559C76.0337 64.4335 75.9219 64.4111 75.8101 64.3888L75.3853 64.3664L75.5641 63.9863C75.8548 63.3155 76.5927 62.9801 77.3083 63.159C77.7331 63.2931 78.4039 62.9354 78.9182 62.6894L78.9853 62.6447C79.6337 62.3316 80.3046 61.9739 80.953 61.549C82.0263 60.8335 83.1443 59.9167 84.4636 58.6422C85.1344 57.9937 85.9841 58.1726 86.476 58.7092C86.9903 59.2459 87.1468 60.1179 86.476 60.7664C84.9555 62.2198 83.5468 63.3826 82.1381 64.2546C81.4673 64.6795 80.7294 65.0596 79.9244 65.395L79.7232 65.5292ZM78.3368 64.2994C78.717 64.3441 79.0971 64.4335 79.4772 64.5677C79.6337 64.6124 79.7679 64.7019 79.9021 64.836C80.5952 64.523 81.2437 64.1875 81.8251 63.8074C83.1891 62.9354 84.5754 61.8173 86.0512 60.3863C86.476 59.9838 86.3419 59.4695 86.0512 59.1564C85.7605 58.8434 85.2686 58.7092 84.8661 59.1117C83.5245 60.431 82.3617 61.3701 81.2661 62.108C80.5953 62.5552 79.9021 62.9354 79.2313 63.2484L79.1642 63.2931C78.5381 63.5838 77.7555 63.9416 77.1741 63.7851C76.861 63.6956 76.5703 63.7851 76.3691 63.964C76.6598 64.0534 76.9505 64.1428 77.2635 64.2099L77.666 64.2994H77.7107C77.8002 64.2994 77.8896 64.2994 77.9791 64.2994C78.0685 64.277 78.2027 64.277 78.3368 64.2994Z" fill="black"/>
<path d="M91.9328 60.0948C91.6645 59.5805 90.8595 59.2675 90.3452 59.6252C86.8123 62.1296 82.6309 63.5607 78.2929 63.6054C77.6668 63.6054 77.3091 64.0079 77.1973 64.4775C77.3091 64.4998 77.4209 64.5222 77.5327 64.5669C77.6668 64.5669 77.7786 64.5669 77.9128 64.5669C78.4047 64.5892 78.8967 64.6787 79.3662 64.8576C79.7687 64.9917 80.0147 65.3942 80.0594 65.8191C84.1514 65.4613 88.1092 64.0973 91.4632 61.7047C91.9999 61.3246 92.2682 60.6985 91.9328 60.0948Z" fill="black"/>
<path d="M79.8356 66.1125L79.7908 65.8442C79.7461 65.5758 79.6119 65.2404 79.2765 65.1286C78.8293 64.9721 78.3598 64.8827 77.8902 64.8603C77.8231 64.8603 77.7337 64.8603 77.6442 64.8603H77.5101L76.8169 64.7038L76.884 64.4131C77.0629 63.7423 77.5772 63.3398 78.2703 63.3174C82.5188 63.2727 86.6108 61.9087 90.1661 59.4043C90.4344 59.2031 90.7922 59.1137 91.1723 59.2255C91.5971 59.3149 91.9997 59.6056 92.2009 59.9634C92.581 60.6342 92.3574 61.4392 91.6419 61.9311C88.3549 64.2789 84.3747 65.71 80.1039 66.0901L79.8356 66.1125ZM78.3374 64.3013C78.7175 64.346 79.0977 64.4354 79.4778 64.5696C79.8803 64.7038 80.171 65.0392 80.3051 65.4864C84.3747 65.0839 88.176 63.6976 91.3065 61.4615C91.6419 61.2155 91.9549 60.746 91.6866 60.2541C91.5748 60.0528 91.3065 59.8739 91.0605 59.8069C90.9263 59.7845 90.7027 59.7621 90.5239 59.8963C86.8791 62.4901 82.653 63.8764 78.315 63.9212C77.9349 63.9212 77.7337 64.1 77.6219 64.3013H77.6666C77.756 64.3013 77.8455 64.3013 77.9349 64.3013C78.0691 64.2789 78.2032 64.2789 78.3374 64.3013Z" fill="black"/>
<path d="M81.5579 89.299C80.5069 87.7114 78.6958 86.8393 76.8175 86.7722C74.8498 86.6828 72.9938 87.6666 71.6522 89.0306C71.1379 89.5449 71.2274 90.5735 71.8087 91.0207C72.4348 91.5126 73.2398 91.4232 73.7988 90.8642C73.8435 90.8195 73.9106 90.7524 73.9553 90.7077C73.9777 90.6853 73.9777 90.6853 74.0001 90.6629C74.1566 90.5511 74.2908 90.417 74.4473 90.3275C74.5814 90.2381 74.738 90.1487 74.8721 90.0592C74.8945 90.0592 74.9616 90.0145 75.0063 89.9922C75.051 89.9698 75.1181 89.9474 75.1181 89.9474C75.297 89.8803 75.4758 89.8133 75.6547 89.7462C75.7442 89.7238 75.8113 89.7015 75.9007 89.6791C75.9231 89.6791 75.9231 89.6791 75.9454 89.6791C76.2808 89.612 76.5939 89.612 76.9293 89.5896C76.9964 89.612 77.0634 89.612 77.1305 89.612C77.287 89.6344 77.4212 89.6567 77.5777 89.7015C77.6448 89.7238 77.7119 89.7462 77.7566 89.7462C77.9131 89.8133 78.0697 89.8803 78.2262 89.9474C78.2933 89.9921 78.3604 90.0145 78.4274 90.0592C78.4498 90.0592 78.4274 90.0592 78.4498 90.0816C78.5616 90.171 78.6734 90.2381 78.7628 90.3275C78.8299 90.3946 78.897 90.4617 78.9641 90.5288C79.0535 90.6629 79.1653 90.7747 79.2548 90.9089C79.6573 91.5126 80.6187 91.7139 81.2001 91.2667C81.8038 90.7971 81.9827 89.9698 81.5579 89.299Z" fill="black"/>
<path d="M86.1193 98.9359C85.8062 97.8626 84.7105 97.8625 83.7714 97.8402C82.7428 97.8178 81.7143 97.8849 80.708 98.0191C79.6795 98.1532 78.6509 98.3992 77.6223 98.3992C75.6322 98.3768 73.5974 97.3035 71.7638 96.6327C70.6458 96.2302 69.6396 96.0737 68.8346 97.1246C68.2309 97.9072 67.9849 98.9358 67.8955 99.9197C67.739 101.284 67.8731 102.67 68.0967 104.056C67.8955 104.235 67.7613 104.504 67.7837 104.839C67.806 106.583 68.0296 108.372 69.5502 109.468C70.5564 110.206 71.8533 110.72 73.1278 111.055C73.3514 111.212 73.5527 111.391 73.7763 111.525C75.1626 112.419 76.4372 112.129 77.7564 111.391C78.6509 111.234 79.5006 110.966 80.3055 110.496C81.7813 109.624 82.8993 108.238 83.7714 106.762C84.6882 105.197 85.5379 103.453 85.9404 101.664C86.1193 100.881 86.3652 99.7632 86.1193 98.9359Z" fill="#E3636E"/>
<path d="M75.184 97.1019C74.6474 96.9901 74.1778 97.1914 73.9095 97.6162C73.8647 97.5044 73.7977 97.415 73.7082 97.3256C73.507 97.1243 73.1716 96.9678 72.8809 96.9901C72.2771 97.0125 71.5392 96.1628 71.584 96.8336C71.6958 98.2871 71.9641 101.06 72.6573 102.379C72.8809 102.781 73.3728 103.005 73.82 102.938C74.2896 102.871 74.6474 102.558 74.8039 102.088C75.2064 100.903 75.6089 99.7405 76.0113 98.5554C76.2126 97.974 75.7877 97.2361 75.184 97.1019Z" fill="white"/>
<path d="M81.49 97.2377C80.9086 97.1035 80.372 97.3942 80.126 97.9085C79.9248 97.752 79.7012 97.6402 79.4552 97.6625C78.7844 97.6849 78.3148 98.1768 78.2925 98.8253C78.2254 100.077 78.2477 101.33 78.3148 102.582C78.3372 103.074 78.6502 103.588 79.1645 103.722C79.6564 103.834 80.3943 103.543 80.6179 103.074C81.3335 101.62 82.5857 99.362 83.0776 97.8191C83.2789 97.2377 82.0937 97.3719 81.49 97.2377Z" fill="white"/>
<path d="M86.1629 96.1631C83.4126 96.2302 80.7964 96.9457 78.0685 96.7221C76.0113 96.5656 74.133 95.7382 72.1429 95.1792C71.2262 94.9109 70.1752 94.5084 69.1914 94.665C68.2522 94.8215 67.5814 95.4699 67.1342 96.2973C65.2112 99.8079 65.636 104.28 67.3802 107.746C68.2299 109.423 69.4373 110.943 70.8237 112.196C72.21 113.448 73.8871 114.655 75.8548 114.521C79.2983 114.275 82.384 111.167 84.1729 108.439C86.2971 105.174 87.3033 101.217 87.3257 97.3482C87.3257 96.6998 86.789 96.1407 86.1629 96.1631ZM78.0908 111.234C76.6374 112.106 75.2958 112.509 73.7753 111.547C72.5007 110.742 71.3603 109.557 70.4883 108.327C68.6771 105.8 67.7603 102.603 68.4535 99.5172C68.5876 98.8687 68.8336 97.5047 69.415 97.0799C69.9293 96.6998 71.4274 97.3929 72.0088 97.5718C73.9318 98.1532 76.2796 98.7569 78.1579 98.9358C81.3554 99.2489 82.7865 98.7345 84.9107 98.6004C84.5753 103.52 82.4287 108.596 78.0908 111.234Z" fill="black"/>
<path d="M79.6574 108.91C79.6127 108.866 79.5009 108.799 79.4785 108.776C79.3443 108.687 79.2102 108.597 79.076 108.486C78.8077 108.307 78.517 108.128 78.2487 107.949C77.958 107.77 77.6673 107.614 77.3766 107.479C77.2201 107.412 77.0859 107.323 76.9294 107.256C76.8847 107.233 76.7729 107.189 76.7058 107.166C76.0797 106.92 75.4536 106.719 74.8052 106.585C74.671 106.563 74.5368 106.54 74.4027 106.518C74.358 106.518 74.2462 106.495 74.1791 106.495C73.866 106.473 73.5753 106.451 73.2623 106.473C73.1058 106.473 72.9492 106.495 72.8151 106.495C72.7704 106.495 72.7704 106.495 72.748 106.495C72.748 106.495 72.748 106.496 72.7033 106.518C72.3679 106.585 72.0548 106.674 71.7418 106.786C71.7194 106.786 71.6971 106.809 71.6747 106.809C71.5182 106.876 71.3617 106.965 71.2051 107.054C71.071 107.144 70.9368 107.211 70.8026 107.3C70.7803 107.323 70.7803 107.3 70.7803 107.323C70.7579 107.345 70.7356 107.368 70.6685 107.435C70.512 107.569 70.3107 107.681 70.1318 107.77C70.2436 107.949 70.3554 108.15 70.4896 108.329C71.3617 109.559 72.502 110.722 73.7766 111.549C75.2971 112.51 76.6387 112.13 78.0922 111.236C78.9195 110.744 79.6127 110.14 80.2835 109.492C80.0822 109.291 79.881 109.089 79.6574 108.91Z" fill="#FFADD2"/>
<path d="M66.3973 56.5398C66.442 57.8591 66.4197 59.1784 66.3526 60.52C66.0843 65.8642 64.8544 71.1636 62.7973 76.1052C62.3948 77.1115 63.4457 78.3636 64.4743 77.6257C65.2569 77.0444 66.0172 76.4406 66.7551 75.8145C66.3749 84.7364 64.3849 94.5303 56.4245 99.4943C51.9524 98.7788 47.6816 97.0123 44.0592 94.2619C42.1809 92.8308 40.4592 91.1762 39.0057 89.3203C38.2902 88.4259 37.597 87.4644 37.038 86.4581C36.8815 86.2569 36.7921 86.0333 36.7026 85.7873C36.7026 85.765 36.7026 85.7873 36.7026 85.765C37.1945 85.9439 38.1784 86.7264 38.4691 86.9277C39.52 87.5761 40.5486 86.1674 39.9896 85.2507C37.6194 81.4047 36.0542 77.0891 35.4728 72.5946C35.3386 71.4766 35.2492 70.381 35.2268 69.263C35.2045 68.3685 35.0256 67.0045 35.3386 66.1549C36.1212 64.0306 39.1175 66.8256 40.3697 67.2952C41.443 67.6753 42.5387 66.6915 41.8902 65.6182C37.3287 57.9262 40.5933 49.0714 44.0368 41.536C44.3499 42.1621 44.6853 42.7882 44.9983 43.4143C45.3785 44.1522 46.7201 44.0851 47.0108 43.3025C49.0456 37.9807 51.5947 32.8825 54.6133 28.0303C60.6954 35.8117 60.1364 46.5 57.8109 55.6454C57.5202 56.7635 59.0854 57.5908 59.8233 56.674C60.5389 55.7796 64.9439 51.1286 66.0619 53.0292C66.5762 53.8119 66.3749 55.5784 66.3973 56.5398Z" fill="#FF9501"/>
<path d="M66.1057 74.2725C65.2113 74.9881 64.2275 75.5247 63.1989 75.9496C65.1666 69.0178 68.2971 62.1756 67.8275 54.8637C67.738 53.5891 67.7828 51.3978 66.1281 51.0848C64.6523 50.7941 63.4672 52.2699 62.5952 53.2537C61.4548 54.5283 60.4038 55.9146 59.2411 57.1892C61.4324 48.0885 62.6399 37.9368 57.005 29.82C56.7814 29.4846 56.4237 29.3281 56.0883 29.3057C55.8646 28.5007 55.6634 27.7181 55.4174 26.9131C54.9702 25.4821 52.6895 26.0858 53.159 27.5392C56.5802 38.2946 57.2063 49.7879 54.8808 60.8563C54.6572 61.9072 55.6634 62.6004 56.6026 62.1756C58.5703 61.2812 60.1131 59.8277 61.4995 58.1954C62.1927 57.3681 62.8635 56.5407 63.5567 55.7134C63.7803 55.4451 64.7865 54.1034 65.4349 53.6339C65.6138 54.4388 65.5467 55.4674 65.5467 56.1383C65.5467 57.1445 65.4796 58.173 65.3678 59.1792C65.1219 61.2811 64.5852 63.3607 64.0039 65.3955C62.8411 69.4204 61.3653 73.3558 60.3815 77.4254C60.1579 78.2974 60.9405 79.0801 61.8125 78.8564C63.0647 78.5658 64.2051 78.0962 65.3008 77.5148C65.2337 78.1186 65.1666 78.7446 65.0995 79.3484C63.6908 85.654 60.3815 91.4007 56.5578 96.5883C55.887 97.5051 56.9827 98.4666 57.8771 98.31C61.4995 97.6616 63.5566 94.3299 64.7865 91.1547C66.1952 87.4652 66.9331 83.5522 67.4027 79.6391C67.7381 78.1409 67.984 76.6428 68.1182 75.0999C68.1853 73.9595 66.8213 73.7135 66.1057 74.2725Z" fill="#FCFA9C"/>
<path d="M58.8833 83.7081C58.7938 82.9255 58.0559 82.3665 57.3628 82.5901C58.0336 78.3416 58.1901 74.0261 57.6982 69.7328C57.564 68.5254 56.2448 68.19 55.5069 69.1515C54.7913 70.0683 54.2099 71.0745 53.6957 72.0807C53.0248 65.6409 52.2422 59.2234 51.236 52.8284C51.0348 51.5314 49.3577 51.9116 48.9776 52.8284C45.8695 60.4085 45.1987 68.8384 47.0099 76.7988C46.8534 76.7317 46.6968 76.6422 46.518 76.5975C45.7577 76.3739 45.0645 77 45.0422 77.7379C44.8856 80.8684 45.6906 83.9317 47.2558 86.5703C47.077 86.5255 46.8981 86.4808 46.7192 86.4585C45.8471 86.3243 45.0422 86.9504 45.2881 87.8896C46.4956 92.6076 49.7379 96.3865 54.0534 98.466C53.6286 99.7406 55.4845 100.792 56.1106 99.4946C58.4808 94.5753 59.4646 89.1641 58.8833 83.7081Z" fill="#FFBF24"/>
<path d="M59.4422 93.4563C55.641 101.238 46.6297 94.3284 41.4868 88.9395C42.3365 89.0066 43.0073 87.978 42.5825 87.173C40.8384 83.8413 39.4744 80.3531 38.5129 76.7307C38.0657 75.0313 37.7079 73.3319 37.4396 71.5878C37.283 70.5592 37.1712 69.553 37.0818 68.5244C37.0594 68.189 36.9476 67.6524 36.9476 67.1605C38.6918 68.3008 40.4582 69.3741 42.2694 70.3804C43.3651 70.9841 44.3489 69.799 43.8794 68.7704C40.0334 60.3405 41.6881 50.5243 45.4893 42.3851C46.1154 41.0211 44.103 39.836 43.4769 41.2C39.7651 49.1379 38.0433 58.2834 40.6371 66.7133C39.4073 65.9754 38.1775 65.1927 36.9924 64.3877C36.5452 64.0747 35.9638 64.2536 35.5837 64.5666C34.242 65.707 34.6669 67.7418 34.8234 69.2847C35.047 71.476 35.3824 73.6673 35.8743 75.8139C36.6346 79.1009 37.7303 82.2985 39.1166 85.3842C38.6918 85.25 38.2893 85.0935 37.8644 85.0265C36.9924 84.8699 35.8743 85.8538 36.5452 86.7482C39.8769 91.1532 44.103 95.1781 49.0447 97.7495C51.1018 98.8228 53.4049 99.4937 55.7081 99.0688C55.8869 99.7173 56.6248 100.276 57.4298 99.8962C59.6435 98.8452 61.2087 96.7881 61.5889 94.3508C61.7678 93.1657 60.0907 92.1371 59.4422 93.4563Z" fill="#FCFA9C"/>
<path d="M65.5693 50.1225C64.0041 50.1225 62.3941 51.0392 60.9854 52.1796C62.7072 42.7212 61.9916 32.6142 55.2612 25.1235C54.7021 24.5197 53.8077 24.8999 53.4276 25.4589C50.4537 30.0428 47.9493 34.895 45.8698 39.9261C45.5791 39.3447 45.266 38.741 44.9753 38.1596C44.5729 37.377 43.2983 37.5335 42.9629 38.2714C39.2958 46.0305 35.4945 55.1312 38.4237 63.5164C37.4175 63.0021 36.3442 62.689 35.1144 63.1139C32.5429 63.9859 32.856 67.4294 32.923 69.5984C33.0796 74.3165 34.2647 78.9451 36.2771 83.1936C35.9641 83.1936 35.6287 83.2383 35.338 83.4172C34.3541 83.9762 34.22 85.206 34.4436 86.2122C34.7566 87.5539 35.7405 88.806 36.5454 89.9017C37.5069 91.1986 38.5579 92.4284 39.7206 93.5688C43.8797 97.6608 49.2238 100.478 54.9257 101.596C55.2388 102.11 55.9096 102.468 56.6028 102.111C56.7817 102.021 56.9158 101.909 57.0947 101.82C57.2289 101.775 57.363 101.686 57.4748 101.596C67.2463 95.7825 69.0575 83.3948 69.1917 72.9301C69.2141 71.8792 67.8054 71.5214 67.1569 72.2146C66.9109 72.4605 66.665 72.6842 66.419 72.9301C68.0737 67.6978 68.8787 62.2195 68.7445 56.6964C68.6774 54.4157 68.8563 50.1001 65.5693 50.1225ZM66.3966 56.5399C66.4414 57.8592 66.419 59.1784 66.3519 60.5201C66.0836 65.8642 64.8538 71.1636 62.7966 76.1053C62.3941 77.1115 63.4451 78.3637 64.4736 77.6258C65.2563 77.0444 66.0165 76.4407 66.7544 75.8146C66.3743 84.7364 64.3842 94.5303 56.4239 99.4943C51.9518 98.7788 47.681 97.0123 44.0586 94.262C42.1803 92.8309 40.4585 91.1763 39.0051 89.3203C38.2896 88.4259 37.5964 87.4644 37.0374 86.4582C36.8809 86.257 36.7914 86.0333 36.702 85.7874C36.702 85.765 36.702 85.7874 36.702 85.765C37.1939 85.9439 38.1778 86.7265 38.4684 86.9277C39.5194 87.5762 40.548 86.1675 39.989 85.2507C37.6188 81.4047 36.0535 77.0891 35.4722 72.5947C35.338 71.4767 35.2485 70.381 35.2262 69.263C35.2038 68.3686 35.0249 67.0046 35.338 66.1549C36.1206 64.0307 39.1169 66.8257 40.3691 67.2953C41.4424 67.6754 42.538 66.6915 41.8896 65.6182C37.3281 57.9262 40.5927 49.0715 44.0362 41.536C44.3492 42.1621 44.6846 42.7882 44.9977 43.4143C45.3778 44.1522 46.7195 44.0851 47.0101 43.3025C49.0449 37.9807 51.594 32.8825 54.6127 28.0303C60.6947 35.8118 60.1357 46.5001 57.8102 55.6455C57.5196 56.7635 59.0848 57.5908 59.8227 56.6741C60.5382 55.7796 64.9432 51.1287 66.0613 53.0293C66.5755 53.8119 66.3743 55.5784 66.3966 56.5399Z" fill="black"/>
<path d="M118.386 58.3954C118.185 59.6923 117.916 61.0116 117.603 62.2861C116.351 67.4961 114.16 72.4601 111.23 76.9546C110.649 77.8714 111.454 79.3024 112.617 78.7658C113.511 78.3409 114.361 77.8937 115.188 77.4018C113.153 86.1 109.419 95.3572 100.654 98.7784C96.3831 97.2355 92.5147 94.7311 89.4737 91.3547C87.8861 89.6106 86.5221 87.6652 85.4265 85.5633C84.8898 84.5348 84.3755 83.4838 84.0401 82.3882C83.9283 82.1646 83.8612 81.9186 83.8389 81.6726C83.8389 81.6503 83.8389 81.6726 83.8389 81.6503C84.3084 81.9186 85.091 82.8801 85.3594 83.1037C86.2761 83.931 87.5507 82.7459 87.1706 81.7173C85.5606 77.4912 84.8004 72.9521 85.0687 68.4353C85.1358 67.3172 85.2476 66.1992 85.4265 65.1035C85.5606 64.2315 85.6277 62.8451 86.0973 62.0625C87.26 60.1172 89.6973 63.4265 90.8377 64.0973C91.8216 64.6787 93.0737 63.8961 92.6489 62.711C89.5631 54.3258 94.4153 46.209 99.2005 39.4561C99.4017 40.1269 99.603 40.8201 99.8042 41.4909C100.05 42.2959 101.369 42.4748 101.817 41.7592C104.791 36.907 108.256 32.3678 112.102 28.1641C116.642 36.9517 114.115 47.327 110.157 55.891C109.665 56.942 111.052 58.0376 111.946 57.2774C112.818 56.5395 118.006 52.7829 118.744 54.8401C119.057 55.7569 118.52 57.4563 118.386 58.3954Z" fill="#FF9501"/>
<path d="M114.807 75.771C113.801 76.3077 112.728 76.6431 111.632 76.8667C114.852 70.4269 119.19 64.2778 120.084 57.0106C120.241 55.7361 120.688 53.5895 119.123 52.9857C117.714 52.4267 116.283 53.6566 115.232 54.4615C113.868 55.4901 112.594 56.6752 111.23 57.7038C115.053 49.1621 118.117 39.4129 114.092 30.4017C113.935 30.0215 113.622 29.8203 113.287 29.7308C113.22 28.9035 113.153 28.0762 113.063 27.2712C112.884 25.7731 110.536 25.9743 110.738 27.4724C112.102 38.675 110.603 50.0789 106.288 60.5212C105.885 61.5274 106.735 62.3771 107.741 62.1311C109.843 61.6169 111.632 60.4541 113.287 59.1349C114.114 58.464 114.941 57.7485 115.769 57.0777C116.037 56.8541 117.267 55.7137 117.982 55.3783C118.005 56.2056 117.759 57.2118 117.625 57.8603C117.446 58.8665 117.2 59.8504 116.887 60.8119C116.238 62.8467 115.344 64.7697 114.405 66.6703C112.527 70.4269 110.335 74.0046 108.613 77.8282C108.233 78.6555 108.859 79.5499 109.754 79.5052C111.028 79.4381 112.258 79.2145 113.443 78.8344C113.264 79.4158 113.086 79.9971 112.907 80.6009C110.358 86.5264 106.042 91.5799 101.324 95.9849C100.497 96.7675 101.391 97.9079 102.308 97.9302C105.975 97.9526 108.636 95.0681 110.425 92.1612C112.504 88.8072 113.935 85.0953 115.12 81.3388C115.724 79.9301 116.261 78.499 116.663 77.0008C116.909 75.8605 115.612 75.3462 114.807 75.771Z" fill="#FCFA9C"/>
<path d="M105.975 83.7077C106.042 82.9251 105.394 82.2543 104.678 82.3437C106.132 78.2965 107.071 74.0704 107.384 69.7772C107.473 68.5697 106.243 67.9883 105.349 68.7933C104.477 69.5759 103.739 70.4256 103.023 71.3424C103.56 64.9026 103.985 58.4404 104.164 51.9559C104.209 50.659 102.487 50.7037 101.95 51.531C97.5004 58.418 95.2867 66.5573 95.5774 74.7188C95.4209 74.6294 95.2868 74.5176 95.1302 74.4281C94.4147 74.0704 93.6321 74.5399 93.4532 75.2555C92.7377 78.2965 92.9389 81.4493 93.9898 84.3338C93.8333 84.2667 93.6544 84.1773 93.4979 84.1326C92.6706 83.8419 91.7538 84.3115 91.8209 85.273C92.1339 90.1252 94.6159 94.4407 98.4843 97.2805C97.8135 98.4656 99.4681 99.8296 100.318 98.6669C103.582 94.3066 105.55 89.1637 105.975 83.7077Z" fill="#FFBF24"/>
<path d="M104.746 93.3896C99.5803 100.344 92.0001 91.8691 87.9305 85.6305C88.7354 85.8541 89.6075 84.9821 89.3392 84.0877C88.2435 80.4876 87.5503 76.8205 87.282 73.0639C87.1478 71.3198 87.1255 69.5757 87.1926 67.8316C87.2373 66.803 87.3044 65.7744 87.4162 64.7458C87.4609 64.4104 87.4609 63.8738 87.5279 63.3819C89.0261 64.8129 90.569 66.2216 92.1789 67.5409C93.1404 68.3459 94.3255 67.362 94.0572 66.2664C91.8435 57.2551 95.2647 47.9308 100.519 40.6189C101.391 39.4115 99.625 37.8686 98.7529 39.0761C93.6324 46.1867 90.2783 54.8625 91.2621 63.6055C90.1888 62.644 89.1379 61.6601 88.1093 60.6539C87.7069 60.2738 87.1255 60.3185 86.6783 60.5645C85.1578 61.4365 85.2025 63.516 85.0683 65.0589C84.8671 67.2502 84.8223 69.4639 84.9118 71.6552C85.0459 75.0316 85.5379 78.3857 86.3205 81.6503C85.9404 81.4491 85.5602 81.2255 85.1577 81.069C84.3304 80.7559 83.0335 81.4938 83.5478 82.5224C86.0074 87.4641 89.4062 92.2045 93.7889 95.648C95.6001 97.0791 97.7691 98.1747 100.095 98.1747C100.162 98.8455 100.765 99.5387 101.637 99.3151C104.008 98.7114 105.931 96.9449 106.736 94.6194C107.071 93.5461 105.595 92.2268 104.746 93.3896Z" fill="#FCFA9C"/>
<path d="M118.743 51.9324C117.2 51.6417 115.456 52.2454 113.868 53.0951C117.312 44.1062 118.475 34.044 113.242 25.4576C112.817 24.7421 111.856 24.9657 111.386 25.4576C107.63 29.4154 104.253 33.7086 101.28 38.2925C101.101 37.6664 100.899 37.0179 100.72 36.3919C100.475 35.5422 99.2 35.4527 98.708 36.1235C93.6769 43.0776 88.2433 51.3063 89.585 60.0939C88.6905 59.4007 87.7067 58.8865 86.4098 59.0877C83.7042 59.4678 83.3911 62.9113 83.0557 65.0579C82.3402 69.7313 82.6532 74.494 83.8383 79.0332C83.5253 78.9661 83.2122 78.9661 82.8768 79.0779C81.8035 79.4357 81.4458 80.6432 81.4905 81.6494C81.5576 83.0357 82.2955 84.4445 82.8768 85.6743C83.57 87.1277 84.3974 88.5364 85.3141 89.8557C88.6459 94.6408 93.3862 98.3974 98.7751 100.566C98.9764 101.125 99.5801 101.617 100.318 101.371C100.497 101.304 100.676 101.237 100.855 101.17C101.011 101.148 101.145 101.103 101.28 101.014C111.968 97.1005 116.037 85.2718 118.095 75.0083C118.296 73.9574 116.999 73.376 116.216 73.9127C115.948 74.1139 115.635 74.2705 115.367 74.4717C117.96 69.6195 119.772 64.3871 120.644 58.9535C121.024 56.7175 121.985 52.5361 118.743 51.9324ZM118.385 58.3945C118.184 59.6914 117.916 61.0107 117.603 62.2853C116.35 67.4952 114.159 72.4593 111.23 76.9537C110.649 77.8705 111.453 79.3016 112.616 78.7649C113.511 78.3401 114.36 77.8928 115.188 77.4009C113.153 86.0991 109.419 95.3564 100.653 98.7775C96.3826 97.2346 92.5142 94.7303 89.4732 91.3539C87.8856 89.6097 86.5216 87.6643 85.426 85.5625C84.8893 84.5339 84.375 83.4829 84.0396 82.3873C83.9278 82.1637 83.8607 81.9177 83.8383 81.6718C83.8383 81.6494 83.8383 81.6717 83.8383 81.6494C84.3079 81.9177 85.0905 82.8792 85.3588 83.1028C86.2756 83.9302 87.5502 82.745 87.1701 81.7165C85.5601 77.4903 84.7999 72.9512 85.0682 68.4344C85.1353 67.3164 85.2471 66.1983 85.426 65.1027C85.5601 64.2306 85.6272 62.8443 86.0967 62.0616C87.2595 60.1163 89.6968 63.4256 90.8372 64.0965C91.821 64.6778 93.0732 63.8952 92.6484 62.7101C89.5626 54.3249 94.4148 46.2081 99.2 39.4552C99.4012 40.126 99.6025 40.8192 99.8037 41.49C100.05 42.295 101.369 42.4739 101.816 41.7583C104.79 36.9061 108.256 32.367 112.102 28.1632C116.641 36.9508 114.114 47.3261 110.157 55.8902C109.665 56.9411 111.051 58.0368 111.945 57.2765C112.817 56.5386 118.005 52.7821 118.743 54.8392C119.056 55.756 118.519 57.4554 118.385 58.3945Z" fill="black"/>
<path d="M123.774 29.2399C121.493 31.0735 120.711 33.9356 120.42 36.7307C120.107 39.9282 121.292 47.2177 121.806 47.4637C121.806 47.4637 121.829 47.4637 121.851 47.4637C122.075 47.5755 122.343 47.5755 122.611 47.5084C122.835 47.4637 123.036 47.3519 123.17 47.1954C123.416 46.9718 123.55 46.6587 123.55 46.2786C125.093 41.1133 124.668 35.6797 125.608 30.4027C125.787 29.4412 124.579 28.5915 123.774 29.2399Z" fill="#FF9501"/>
<path d="M35.2716 52.918C35.3611 48.826 34.6455 45.1589 34.243 41.3576C33.7735 36.8185 32.8791 32.2122 32.1412 27.7178C31.9623 26.555 30.1511 26.6445 29.8828 27.7178C27.6914 36.5501 27.5796 46.3664 32.9685 54.1478C33.8182 55.3776 35.2493 54.4385 35.2716 52.918Z" fill="#FF9501"/>
<path d="M41.9119 24.274C39.4522 27.7175 38.1106 31.8541 37.9764 36.0579C37.9317 37.3548 39.6535 37.5337 40.1678 36.5946C40.369 36.5051 42.4038 32.9498 42.9628 31.2504C43.6336 29.1933 44.0138 27.0467 44.0809 24.8553C44.1479 23.6031 42.538 23.3795 41.9119 24.274Z" fill="#FF9501"/>
<path d="M104.075 23.8042C103.918 22.8427 102.465 22.731 102.04 23.5359C101.302 24.8999 100.609 26.3086 100.206 27.8291C100.005 28.5894 99.8934 29.372 99.8934 30.1546C99.8934 30.5124 99.804 32.1671 99.9829 32.4801C100.296 33.0168 100.989 33.1733 101.503 32.8826C102.197 32.5248 102.666 31.8764 103.024 31.1832C103.404 30.4229 103.695 29.6403 103.896 28.813C104.298 27.1583 104.343 25.4813 104.075 23.8042Z" fill="#FF9501"/>
</svg>
