<svg width="139" height="131" viewBox="0 0 139 131" fill="none" xmlns="http://www.w3.org/2000/svg">
<path d="M138.249 42.9203C137.354 39.4405 135.923 36.1209 134.009 33.0802C130.299 26.6902 126.499 22.0803 122.059 18.5003C120.449 17.2103 117.749 15.0403 114.329 15.0403C112.425 15.0488 110.59 15.7611 109.179 17.0403C104.769 20.9203 106.499 26.2903 107.329 28.8703C107.409 29.1403 107.499 29.4002 107.569 29.6402C107.849 30.6402 108.129 31.5803 108.399 32.5603L107.219 32.0003C106.78 30.7297 105.942 29.6352 104.829 28.8803C102.29 27.2303 99.4425 26.1111 96.4592 25.5903C97.4453 20.8628 97.9612 16.0493 97.9992 11.2203C97.9992 5.92026 95.2092 2.14026 90.6492 1.13026C89.405 0.855144 88.1333 0.724297 86.8592 0.740277C84.8713 0.778186 82.889 0.965377 80.9292 1.30027L80.0592 1.42027C77.3092 1.81027 74.5092 2.32026 71.5992 2.97026C70.8185 1.93899 69.7853 1.12622 68.5992 0.610272C67.6528 0.199483 66.6308 -0.00833696 65.5992 0.000256002C64.9887 0.00405979 64.3798 0.0609541 63.7792 0.170269C62.6692 0.370269 61.5992 0.610252 60.5792 0.840252L59.9292 0.990277C55.2492 1.99028 50.5492 3.28026 45.9292 4.69026C44.3492 5.18026 42.7192 5.69027 41.0692 6.26027C39.7016 5.55128 38.1201 5.37319 36.6292 5.76027C32.2692 6.88027 29.5192 8.33027 27.9692 10.3003C27.6202 10.7457 27.3342 11.2369 27.1192 11.7603C25.9892 12.3703 24.8492 13.0703 23.6892 13.8503C21.7661 15.0736 20.118 16.683 18.8493 18.5765C17.5807 20.47 16.7191 22.6064 16.3192 24.8503C15.7845 28.6281 15.7845 32.4624 16.3192 36.2403L15.7992 36.0703C15.0838 35.8651 14.3433 35.7607 13.5992 35.7602C8.28916 35.7602 5.84916 40.7602 4.79916 42.9502C2.30916 48.0602 0.869161 53.8703 0.249161 61.2303C-0.181495 64.7983 -0.05329 68.4117 0.62916 71.9403C1.09731 73.981 2.0774 75.8688 3.47703 77.4259C4.87667 78.983 6.64975 80.158 8.62916 80.8403L9.62916 81.2203C9.71379 82.5005 9.86398 83.7755 10.0792 85.0403L10.1592 85.4803C10.4692 87.3803 10.9992 90.5603 13.5092 92.7203C14.041 93.1832 14.6504 93.5489 15.3092 93.8003C17.6398 99.3696 21.573 104.121 26.6092 107.45C27.5734 108.09 28.7021 108.437 29.8592 108.45C30.059 108.46 30.2593 108.46 30.4592 108.45C31.1192 108.95 31.7892 109.45 32.4592 109.89L32.5792 110.4C32.2648 111.53 32.2135 112.717 32.4292 113.87C32.7001 115.288 33.3109 116.62 34.2092 117.75C32.8927 122.242 32.0909 126.868 31.8192 131.54C31.5092 136.78 31.6092 143.54 35.0892 149.14C38.0892 154.03 43.5392 157.3 50.3392 158.35C51.705 158.569 53.086 158.679 54.4692 158.68C58.9684 158.766 63.3804 157.433 67.0792 154.87L67.1892 154.81C67.5812 154.587 67.9411 154.311 68.2592 153.99C70.1679 152.36 71.7669 150.398 72.9792 148.2C73.5892 148.2 74.2292 148.2 74.8892 148.2C79.4578 148.167 84.0075 147.61 88.4492 146.54C93.5849 145.381 98.5805 143.672 103.349 141.44C104.337 142.241 105.59 142.64 106.859 142.56C119.289 141 130.459 127.99 130.959 127.13C131.495 126.221 131.777 125.185 131.777 124.13C131.777 123.075 131.495 122.039 130.959 121.13C129.839 119.13 128.579 117.06 127.099 114.72C124.953 110.883 122.502 107.225 119.769 103.78L119.669 103.63C121.342 100.974 122.12 97.8512 121.889 94.7203C121.829 93.9083 121.688 93.1045 121.469 92.3203C121.679 92.0103 121.879 91.6803 122.079 91.3203C123.221 90.763 124.149 89.846 124.719 88.7103L125.939 86.2503C126.048 86.0289 126.145 85.8019 126.229 85.5703C129.9 77.519 130.563 68.4188 128.099 59.9203C130.552 58.3116 132.822 56.4405 134.869 54.3403C136.352 52.8776 137.44 51.063 138.031 49.0658C138.622 47.0687 138.697 44.9543 138.249 42.9203Z" fill="white"/>
<path d="M128.388 34.6004C127.738 33.3404 127.038 32.0304 126.278 30.7404C125.198 29.5504 124.058 28.4003 122.898 27.2803C121.53 25.9271 120.08 24.6581 118.558 23.4804C117.288 22.6519 116.106 21.697 115.028 20.6303C114.485 20.5828 113.941 20.7018 113.468 20.9716C112.994 21.2414 112.614 21.6491 112.378 22.1404C111.945 23.2939 111.921 24.5609 112.308 25.7304C112.646 27.2676 113.114 28.7731 113.708 30.2304C114.248 31.6704 114.858 33.0904 115.328 34.5504C115.688 35.7204 116.238 37.1403 115.538 38.2703C114.855 39.0511 114.368 39.9836 114.118 40.9904C112.675 42.8339 110.854 44.3478 108.778 45.4304C107.858 44.8704 106.618 46.1104 107.498 46.9404C109.088 48.4157 110.543 50.0286 111.848 51.7603C111.898 51.8303 111.938 51.9003 111.988 51.9603C111.87 52.217 111.807 52.4959 111.805 52.7785C111.802 53.0611 111.859 53.3411 111.973 53.6C112.086 53.8589 112.253 54.0909 112.462 54.2805C112.672 54.4702 112.919 54.6132 113.188 54.7003C113.533 54.7788 113.845 54.9644 114.078 55.2304C114.286 55.5391 114.397 55.903 114.397 56.2753C114.397 56.6477 114.286 57.0116 114.078 57.3204C113.918 57.4706 113.811 57.6695 113.775 57.8864C113.739 58.1034 113.775 58.3262 113.878 58.5203C114.768 59.9103 116.228 59.6903 117.498 58.9703C119.068 58.0903 120.628 57.1304 122.148 56.1704C123.148 55.5304 124.148 54.8704 125.148 54.1704C127.152 52.9318 128.984 51.4357 130.598 49.7203C132.698 47.4803 132.758 45.1004 131.768 42.3004C130.818 39.6599 129.689 37.0872 128.388 34.6004Z" fill="#C4D502"/>
<path d="M115.25 22.1106H115.18C114.944 21.9046 114.643 21.7878 114.33 21.7806C113.933 21.7642 113.545 21.9052 113.251 22.173C112.957 22.4407 112.78 22.8136 112.76 23.2106C112.797 24.9085 112.971 26.6006 113.28 28.2706C113.43 29.0706 113.61 29.8706 113.83 30.6506C114.007 31.5054 114.289 32.335 114.67 33.1206C114.926 33.6021 115.358 33.9664 115.875 34.1377C116.393 34.309 116.957 34.2742 117.45 34.0406C118.39 33.5506 118.52 32.5606 118.66 31.6106C118.66 31.5506 118.66 31.4806 118.66 31.4106C118.785 31.5514 118.919 31.6849 119.06 31.8106C119.281 32.0592 119.56 32.2488 119.872 32.3623C120.185 32.4758 120.521 32.5096 120.85 32.4606C121.114 32.4019 121.364 32.2902 121.584 32.132C121.804 31.9739 121.99 31.7726 122.13 31.5406C122.519 30.6836 122.593 29.717 122.34 28.8106C121.58 25.2406 118.25 23.5406 115.25 22.1106Z" fill="#FCFA9C"/>
<path d="M132.13 46.1803C132.254 44.725 132.042 43.2605 131.509 41.9003C131.425 41.7349 131.294 41.5983 131.132 41.5075C130.97 41.4167 130.785 41.376 130.6 41.3903C129.979 38.733 129.087 36.1462 127.94 33.6703C127.44 32.4803 125.77 32.9403 126.27 34.1203C127.4 36.7741 128.235 39.5441 128.759 42.3804C128.969 43.6204 130.069 47.5903 123.14 51.6003C120.34 53.2103 117.579 54.9003 114.809 56.5403C113.149 57.5403 114.55 60.1704 116.22 59.1904C119.08 57.5004 121.979 55.8403 124.809 54.0903C126.409 53.1009 127.946 52.0121 129.41 50.8303C129.498 50.8164 129.586 50.7929 129.669 50.7603C130.438 50.4179 131.052 49.801 131.389 49.0303C131.629 48.8003 131.87 48.5803 132.1 48.3303C132.381 48.0532 132.545 47.6788 132.558 47.2843C132.571 46.8898 132.432 46.5053 132.169 46.2103L132.13 46.1803Z" fill="#92B102"/>
<path d="M129.679 35.5906C126.942 30.5732 123.3 26.1048 118.939 22.4106C117.269 21.0606 114.589 18.9106 112.479 20.7606C110.369 22.6106 111.679 25.8806 112.359 28.1806C112.866 29.8806 113.339 31.5839 113.779 33.2906C114.029 34.2306 114.259 35.1606 114.489 36.1006C114.765 36.9467 114.959 37.8174 115.069 38.7006C115.119 40.3006 112.879 41.5106 111.709 42.2706C109.574 43.6189 107.345 44.812 105.039 45.8406C105.329 46.0506 105.619 46.2606 105.899 46.4806C106.169 46.6551 106.389 46.8962 106.539 47.1806L106.659 47.2706C109.276 46.0687 111.78 44.6329 114.139 42.9806C115.068 42.3861 115.884 41.631 116.549 40.7506C116.815 40.2627 116.981 39.7262 117.036 39.1731C117.091 38.6199 117.034 38.0614 116.869 37.5306C116.269 34.7006 115.509 31.9006 114.709 29.1206C114.329 27.7806 113.879 26.4606 113.509 25.1206C113.139 23.7806 113.139 21.3806 115.229 22.2806C117.559 23.2806 119.669 25.5806 121.369 27.4106C123.128 29.3459 124.721 31.4267 126.129 33.6306C127.636 35.888 128.974 38.2545 130.129 40.7106C131.289 43.3006 132.369 46.1506 130.539 48.7106C128.709 51.2706 126.039 52.9206 123.659 54.5506C121.002 56.3638 118.203 57.959 115.289 59.3206C114.129 59.8706 115.069 61.6306 116.229 61.0906C119.143 59.729 121.942 58.1338 124.599 56.3206C126.996 54.7903 129.219 53.003 131.229 50.9906C132.158 50.1066 132.844 48.9981 133.221 47.7721C133.597 46.5461 133.652 45.2438 133.379 43.9906C132.585 41.017 131.337 38.1836 129.679 35.5906Z" fill="black"/>
<path d="M123.85 120.88C121.235 115.769 118.365 110.793 115.25 105.97C115.111 105.743 114.926 105.547 114.707 105.395C114.488 105.243 114.239 105.139 113.978 105.089C113.716 105.039 113.446 105.045 113.187 105.105C112.927 105.166 112.683 105.28 112.47 105.44C112.103 104.998 111.769 104.531 111.47 104.04C111.66 103.89 111.87 103.76 112.02 103.62C112.4 103.283 112.751 102.916 113.07 102.52C113.75 101.721 114.307 100.825 114.72 99.8602C115.149 98.8913 115.355 97.8388 115.324 96.7798C115.293 95.7209 115.025 94.6823 114.54 93.7402C114.377 93.4801 114.157 93.261 113.896 93.0998C113.634 92.9387 113.34 92.8397 113.034 92.8107C112.729 92.7817 112.421 92.8234 112.134 92.9325C111.847 93.0417 111.589 93.2154 111.38 93.4402C107.913 96.905 104.1 100.005 100 102.69C95.8301 105.24 91.3401 107.18 87.0001 109.46C84.4001 110.83 81.8701 112.57 79.1001 113.46C76.0558 112.949 72.9768 112.671 69.8901 112.63C69.1101 112.39 68.3301 112.14 67.5501 111.92C65.1577 111.265 62.7165 110.804 60.2501 110.54C57.4501 110.287 54.6683 109.863 51.9201 109.27C49.2084 108.537 46.5379 107.659 43.9201 106.64C43.6297 106.53 43.3139 106.507 43.0105 106.573C42.7071 106.638 42.4291 106.79 42.2101 107.01C41.8647 106.939 41.5074 106.949 41.1669 107.042C40.8265 107.134 40.5124 107.304 40.2501 107.54C39.7595 107.43 39.2454 107.508 38.8101 107.76C38.5312 107.968 38.3364 108.269 38.2611 108.609C38.1858 108.949 38.2352 109.304 38.4001 109.61C38.6007 110.133 38.8449 110.638 39.1301 111.12C38.9647 111.283 38.8342 111.478 38.7465 111.693C38.6589 111.908 38.6158 112.138 38.6201 112.37C38.6201 113.46 39.6201 114.09 40.5401 114.47C41.1313 114.721 41.7484 114.905 42.3801 115.02C41.2919 116.241 40.4438 117.655 39.8801 119.19C38.2746 123.15 37.2636 127.325 36.8801 131.58C36.4512 135.82 37.5467 140.075 39.9701 143.58C41.1245 145.213 42.4303 146.733 43.8701 148.12C45.2013 149.525 46.6684 150.795 48.2501 151.91C50.4301 153.31 52.9601 153.09 55.4301 152.83C56.6701 152.7 57.9001 152.5 59.1301 152.28C59.4547 152.062 59.8235 151.919 60.2101 151.86C59.8301 151.92 60.5601 151.79 60.6301 151.77L61.1701 151.66C61.5701 151.56 61.9601 151.46 62.3501 151.34C62.7401 151.22 63.0801 151.1 63.4401 150.96L63.8801 150.78H63.9501L64.0401 150.73C64.2401 150.63 64.4401 150.52 64.6301 150.4C66.6301 148.24 67.3801 145.09 68.9901 142.62C72.6801 143.53 80.2201 143.36 87.2501 141.62C95.9801 139.51 99.3701 137.73 106.05 134.62C106.23 134.69 106.7 135.7 106.89 135.67C110.861 134.994 114.675 133.594 118.14 131.54C121.14 129.75 124.93 127.33 125.4 123.54C125.374 123.005 125.22 122.484 124.95 122.021C124.68 121.558 124.303 121.167 123.85 120.88Z" fill="#01CBE0"/>
<path d="M47.3986 113.811C46.3248 113.704 45.2592 113.527 44.2086 113.281C43.2772 113.106 42.4021 112.708 41.6586 112.121L41.5186 111.961C41.7048 111.972 41.8906 111.932 42.0549 111.843C42.2193 111.755 42.3556 111.622 42.4486 111.461C42.5115 111.345 42.5509 111.217 42.5644 111.086C42.5778 110.954 42.5651 110.822 42.527 110.695C42.4889 110.569 42.4261 110.451 42.3423 110.349C42.2584 110.247 42.1552 110.163 42.0386 110.101L41.9086 109.991C41.8043 109.571 41.5982 109.182 41.3086 108.861C40.9548 108.405 40.5598 107.983 40.1286 107.601C39.9347 107.421 39.6775 107.325 39.4133 107.335C39.149 107.344 38.8992 107.458 38.7186 107.651C38.5527 107.834 38.4609 108.073 38.4609 108.321C38.4609 108.568 38.5527 108.807 38.7186 108.991C38.6844 109.219 38.7303 109.452 38.8486 109.651C39.0486 109.917 39.2586 110.177 39.4786 110.431C39.2534 110.638 39.0789 110.895 38.9686 111.181C38.8009 111.773 38.8685 112.408 39.1573 112.952C39.4461 113.496 39.9337 113.907 40.5186 114.101C42.6004 115.178 44.9045 115.757 47.2486 115.791C47.4973 115.792 47.7376 115.7 47.9225 115.534C48.1075 115.368 48.2237 115.138 48.2486 114.891C48.2718 114.636 48.1966 114.382 48.0385 114.181C47.8804 113.981 47.6514 113.848 47.3986 113.811Z" fill="#8FFFFB"/>
<path d="M125.419 124.15C123.849 116.52 117.019 108.45 112.279 102.26C112.443 102.107 112.596 101.943 112.739 101.77C112.902 101.818 113.075 101.817 113.236 101.768C113.398 101.718 113.542 101.621 113.649 101.49C114.689 100.339 115.363 98.9051 115.585 97.3702C115.808 95.8353 115.569 94.2689 114.899 92.8701C114.899 92.7901 114.839 92.7101 114.799 92.6301C114.239 91.5201 112.799 92.4501 112.999 93.4601C112.999 93.6201 112.999 93.7801 112.999 93.9401C112.818 94.0123 112.661 94.1359 112.55 94.2958C112.438 94.4558 112.375 94.6449 112.369 94.8401C112.315 96.2862 111.892 97.6944 111.139 98.9303C110.386 100.166 109.329 101.189 108.069 101.9C106.797 102.594 105.457 103.154 104.069 103.57C102.759 103.68 101.449 103.73 100.229 103.91C94.0092 104.78 87.8992 107.4 83.8392 112.34C83.0292 113.34 84.4092 114.65 85.2992 113.71C89.8792 108.84 96.7292 107.76 102.859 105.98L104.439 105.51C106.078 105.378 107.688 104.994 109.209 104.37C109.209 104.78 107.929 105.89 108.209 106.23C112.759 111.63 121.209 119.75 122.769 126.61C123.309 128.47 125.799 126.02 125.419 124.15Z" fill="#8FFFFB"/>
<path d="M57.519 150.721C50.519 149.491 44.259 144.971 42.309 137.961C41.3991 134.13 41.3991 130.141 42.309 126.311C43.089 122.971 44.869 118.671 47.439 116.311C47.779 115.991 47.639 117.391 47.489 117.071C47.5881 116.92 47.6447 116.746 47.6528 116.566C47.661 116.386 47.6204 116.207 47.5354 116.048C47.4504 115.89 47.3241 115.757 47.1699 115.664C47.0156 115.571 46.8391 115.521 46.659 115.521C45.9884 115.552 45.3204 115.625 44.659 115.741C44.4757 115.656 44.2798 115.602 44.079 115.581C43.5981 115.599 43.1301 115.742 42.7203 115.994C42.3104 116.246 41.9724 116.6 41.739 117.021C41.2924 117.439 40.9499 117.956 40.739 118.531C39.5242 120.381 38.6033 122.408 38.009 124.541C36.6798 129.76 36.8391 135.247 38.469 140.381C38.849 142.981 39.469 145.571 41.609 147.251L41.679 147.341C41.749 147.341 41.799 147.45 41.869 147.51C42.0214 147.609 42.1977 147.664 42.379 147.671C44.5758 150.343 47.6732 152.121 51.089 152.671C52.009 152.811 54.639 152.671 54.479 152.271C55.319 152.411 56.159 152.521 57.009 152.601H57.269C58.439 152.781 58.619 150.921 57.519 150.721Z" fill="#0197E0"/>
<path d="M112.369 102.91C111.392 103.976 110.271 104.902 109.039 105.66C105.219 107.52 100.169 107.25 96.1794 107.89C90.5094 108.81 84.7194 111.44 81.9694 116.76C81.7452 117.308 81.6929 117.912 81.8194 118.49C81.821 118.602 81.8484 118.711 81.8994 118.81C82.1394 119.72 82.6394 120.33 83.0294 119.58L83.1394 119.39C83.3741 119.341 83.5835 119.21 83.7294 119.02C85.531 116.679 87.707 114.652 90.1694 113.02C93.0494 111.26 95.9794 111.1 99.2694 110.88C102.404 110.693 105.517 110.227 108.569 109.49C110.959 108.89 113.329 107.71 114.179 105.27C113.472 104.569 112.863 103.775 112.369 102.91Z" fill="#0197E0"/>
<path d="M95.5588 104.681C97.9077 103.684 100.195 102.549 102.409 101.281C102.468 101.198 102.539 101.124 102.619 101.061C103.439 100.451 104.249 99.8205 105.119 99.2705C105.043 99.0759 104.927 98.899 104.78 98.7506C104.633 98.6022 104.457 98.4855 104.263 98.4078C104.069 98.33 103.862 98.2928 103.653 98.2984C103.444 98.304 103.238 98.3525 103.049 98.4406L97.6888 100.761C95.2588 101.681 92.7888 102.511 90.3888 103.511C88.7539 104.187 87.1755 104.993 85.6688 105.921C84.2732 106.474 82.9109 107.109 81.5887 107.821C81.1559 108.067 80.7415 108.344 80.3488 108.651L80.1287 108.431C79.969 108.264 79.7742 108.135 79.5583 108.053C79.3424 107.972 79.1111 107.939 78.8811 107.959C78.6511 107.978 78.4283 108.048 78.2289 108.164C78.0296 108.28 77.8587 108.44 77.7288 108.631C77.4714 108.944 77.2931 109.314 77.2088 109.711L71.4088 107.921C71.2191 107.858 71.0187 107.834 70.8196 107.85C70.6205 107.867 70.4268 107.924 70.2502 108.017C70.0736 108.11 69.9178 108.239 69.792 108.394C69.6663 108.549 69.5734 108.728 69.5187 108.921C69.2424 109.085 69.0255 109.334 68.8993 109.63C68.773 109.925 68.7439 110.254 68.8162 110.567C68.8884 110.881 69.0583 111.163 69.3014 111.374C69.5445 111.585 69.8482 111.713 70.1688 111.741C73.132 111.968 76.0095 112.842 78.5988 114.301C78.9346 114.502 79.3334 114.572 79.7177 114.496C80.1021 114.42 80.4446 114.205 80.6788 113.891C80.8577 113.909 81.0385 113.89 81.2103 113.837C81.3821 113.784 81.5414 113.697 81.6788 113.581C82.1729 113.585 82.6551 113.429 83.0522 113.135C83.4492 112.84 83.7394 112.425 83.8787 111.951C84.4784 110.643 85.453 109.543 86.6788 108.791L91.1987 106.791L94.9188 105.181C95.0705 104.947 95.2957 104.771 95.5588 104.681Z" fill="#FFBF24"/>
<path d="M83.0282 118.23C83.1566 118.089 83.2491 117.92 83.2977 117.736C83.3464 117.551 83.3497 117.358 83.3074 117.173C83.2652 116.987 83.1786 116.814 83.0551 116.669C82.9316 116.524 82.7748 116.411 82.5982 116.34C80.9851 115.72 79.3082 115.28 77.5982 115.03C77.4078 114.997 77.2121 115.021 77.0346 115.097C76.8571 115.173 76.7056 115.299 76.5982 115.46L75.4382 115.31C75.1755 115.255 74.9016 115.297 74.6682 115.43C74.4478 115.568 74.2899 115.787 74.2282 116.04C74.2333 116.073 74.2333 116.107 74.2282 116.14C70.9986 115.566 67.7118 115.381 64.4382 115.59C58.5482 116.02 52.6582 117.42 46.7482 116.43C45.3082 116.19 43.8582 118.1 45.1382 118.79C51.3782 122.15 58.1382 118.4 63.9082 117.9C70.0082 117.36 76.4982 118.41 82.3882 119.9C83.5182 120.13 83.7482 119.01 83.0282 118.23Z" fill="#0197E0"/>
<path d="M117.568 48.9803C117.837 48.5839 117.972 48.1123 117.954 47.6339C117.936 47.1555 117.766 46.6954 117.468 46.3203C114.059 42.5485 109.85 39.5863 105.148 37.6503C103.563 36.9985 101.928 36.4767 100.258 36.0903C100.258 35.9903 100.328 35.9003 100.358 35.8003C100.423 35.5831 100.45 35.3566 100.438 35.1303C100.251 34.9047 100.105 34.6473 100.008 34.3703C99.9502 34.2027 99.9165 34.0275 99.9084 33.8503C99.5589 33.4608 99.0706 33.2239 98.5484 33.1903C86.8887 32.5243 75.192 32.9763 63.6184 34.5403L64.0584 34.0403L63.4284 34.1803C61.5096 34.6139 59.6273 35.1957 57.7984 35.9203L57.4084 36.0603C56.0684 36.2103 54.7184 36.3703 53.4084 36.6503C53.1531 36.6945 52.9164 36.8129 52.7279 36.9907C52.5394 37.1686 52.4074 37.3979 52.3484 37.6503C51.4558 37.8209 50.5439 37.868 49.6384 37.7903C49.6384 37.9703 49.6384 38.1403 49.6384 38.3103C48.4084 37.7303 46.5684 38.7003 45.1784 38.7603C41.3254 38.9377 37.5957 40.1729 34.3984 42.3303C30.9877 44.3276 27.8881 46.814 25.1984 49.7103C25.4364 49.9602 25.6057 50.2674 25.6898 50.6021C25.7739 50.9368 25.77 51.2876 25.6784 51.6203C25.6784 51.7603 25.5884 51.8903 25.5484 52.0203C25.6438 52.3693 25.6469 52.7371 25.5575 53.0877C25.4681 53.4382 25.2893 53.7596 25.0384 54.0203L24.0384 55.1203C23.8884 55.3003 23.7384 55.4803 23.5784 55.6503C23.5387 55.7123 23.4917 55.7695 23.4384 55.8203L23.2984 55.9903C22.7273 56.6989 22.1933 57.4365 21.6984 58.2003C21.1715 58.9731 20.6874 59.7743 20.2484 60.6003V60.6503L20.1284 60.9303C20.0184 61.1703 19.9284 61.4103 19.8284 61.6603C19.6584 62.1003 19.4984 62.5603 19.3584 63.0203C19.2232 63.4311 18.9504 63.7828 18.5861 64.016C18.2218 64.2492 17.7882 64.3496 17.3584 64.3003C16.5663 66.2269 15.9276 68.2131 15.4484 70.2403C14.1684 75.7503 14.2284 81.7103 16.4484 86.9103C16.6707 86.8002 16.9114 86.7323 17.1584 86.7103C17.6105 86.6627 18.0642 86.7832 18.4331 87.0488C18.802 87.3144 19.0602 87.7065 19.1584 88.1503C19.3284 88.8903 19.5084 89.6403 19.7284 90.3703C20.0802 90.3255 20.4138 90.188 20.6949 89.9719C20.9761 89.7557 21.1947 89.4687 21.3284 89.1403C23.2002 93.7215 26.1059 97.8079 29.8184 101.08C35.4663 105.961 42.5917 108.8 50.0484 109.14C54.8384 111.09 60.1684 110.96 65.2984 110.33L65.7884 110.27C72.0757 110.994 78.445 110.381 84.4784 108.47C87.7226 107.488 90.9106 106.33 94.0284 105C95.8708 104.253 97.6249 103.304 99.2584 102.17C101.808 102.32 104.648 100.71 106.618 99.4503C112.618 95.6403 116.618 89.6203 118.978 83.0703C119.078 82.8103 119.148 82.5403 119.238 82.2803C119.714 82.4067 120.221 82.3413 120.649 82.0982C121.077 81.8551 121.393 81.4537 121.528 80.9803C123.241 75.6801 123.773 70.0698 123.089 64.5421C122.405 59.0145 120.521 53.7032 117.568 48.9803Z" fill="#FFBF24"/>
<path d="M123.8 66.2799C123.481 64.6613 123.07 63.0621 122.57 61.4899C121.57 58.4899 120.01 55.7799 118.89 52.8699C118.669 52.4284 118.626 51.919 118.769 51.4465C118.912 50.9741 119.231 50.5745 119.66 50.3299L119.88 50.25C119.69 49.92 119.5 49.61 119.3 49.25C119.3 49.18 119.2 49.1099 119.16 49.0399C118.68 48.4499 118.16 47.88 117.67 47.32C117.657 47.1201 117.609 46.9239 117.53 46.7399L117.24 46.3499C117.155 46.2287 117.078 46.1017 117.01 45.9699C114.821 43.4711 112.224 41.3612 109.33 39.7299C108.18 38.8899 106.98 38.0999 105.77 37.3499C104.22 36.8199 102.55 36.6099 101.15 35.7099C100.62 35.398 100.216 34.9095 100.01 34.3299C100.01 34.3299 100.01 34.2699 100.01 34.2499L99.69 34.0899C99.8182 33.8778 99.8939 33.6382 99.911 33.3909C99.9281 33.1437 99.886 32.896 99.7882 32.6682C99.6905 32.4405 99.5399 32.2393 99.3489 32.0813C99.1579 31.9234 98.9321 31.8132 98.69 31.7599C89.91 28.6799 80.6 30.7599 71.69 32.3499C71.69 32.3499 71.44 31.5899 71.43 31.5899C71.3453 31.6546 71.255 31.7114 71.16 31.7599C70.93 31.8799 70.69 31.9799 70.46 32.0899C69.28 33.2599 69.04 34.1599 71.14 33.7699C76.74 32.7699 83.74 33.3999 89.44 33.7699L89.8 33.8599C89.5863 34.1085 89.4369 34.4058 89.3651 34.7257C89.2933 35.0455 89.3012 35.3781 89.3881 35.6942C89.475 36.0103 89.6383 36.3002 89.8636 36.5383C90.0889 36.7765 90.3693 36.9556 90.68 37.0599C94.46 38.0599 99.59 38.61 107.31 43.25C107.66 43.42 107.99 43.6199 108.31 43.7999L108.52 43.94C108.212 44.1039 107.952 44.3456 107.766 44.6412C107.58 44.9368 107.475 45.2759 107.461 45.6248C107.446 45.9737 107.524 46.3202 107.685 46.6298C107.846 46.9395 108.086 47.2015 108.38 47.3899C110.131 48.5078 111.787 49.7688 113.33 51.1599C113.142 51.232 112.971 51.3438 112.829 51.4876C112.687 51.6314 112.578 51.8039 112.509 51.9935C112.44 52.1831 112.412 52.3854 112.428 52.5866C112.444 52.7879 112.502 52.9833 112.6 53.1599C113.39 54.4699 114.18 55.84 114.93 57.25C117.58 62.6199 119.22 68.8499 118.67 74.8299C118.462 74.671 118.214 74.5736 117.953 74.5487C117.693 74.5238 117.43 74.5724 117.196 74.689C116.962 74.8057 116.765 74.9856 116.628 75.2085C116.491 75.4314 116.419 75.6882 116.42 75.9499C116.272 78.7509 115.685 81.5113 114.68 84.13C112.25 89.94 105.91 99.8599 99.86 101.9C99.22 102.12 99.56 102.34 101.8 101.69C102.911 101.361 103.997 100.953 105.05 100.47C105.27 100.35 105.49 100.24 105.7 100.1C106.114 99.825 106.509 99.5209 106.88 99.1899C107.82 98.3899 108.69 97.52 109.6 96.6899C110.51 95.8599 111.55 95.06 112.48 94.1899C113.438 93.29 114.34 92.3315 115.18 91.32C115.37 91.0922 115.63 90.9339 115.92 90.8699C116.838 89.4202 117.602 87.8785 118.2 86.2699C118.482 86.3319 118.776 86.3011 119.04 86.1822C119.303 86.0633 119.52 85.8625 119.66 85.6099C121.432 82.7508 122.502 79.5122 122.78 76.1599C123.78 73.3399 123.41 70.0699 123.01 67.1599C123.356 66.9529 123.631 66.6462 123.8 66.2799Z" fill="#FCFA9C"/>
<path d="M33.8687 15.4401C33.7987 15.5701 33.7387 15.7001 33.6687 15.8201C33.4752 15.7338 33.2657 15.6891 33.0537 15.6891C32.8418 15.6891 32.6323 15.7338 32.4387 15.8201C31.5134 16.2214 30.632 16.7174 29.8087 17.3001C28.592 17.9277 27.4426 18.6783 26.3787 19.5401C24.6287 20.9501 22.1687 22.7201 21.5687 25.0101C21.3339 26.1716 21.3339 27.3685 21.5687 28.5301C21.7787 30.0001 22.0187 31.4701 22.2887 32.9301C22.5187 34.2101 22.7687 35.48 23.0387 36.76C22.8781 36.8674 22.7521 37.019 22.6758 37.1964C22.5994 37.3739 22.5762 37.5696 22.6087 37.76C22.9884 41.6306 23.8794 45.4338 25.2587 49.0701C25.3311 49.2045 25.4332 49.3206 25.5574 49.4094C25.6815 49.4983 25.8244 49.5576 25.975 49.5827C26.1256 49.6078 26.2799 49.5981 26.4262 49.5543C26.5724 49.5105 26.7067 49.4338 26.8187 49.33C29.6419 46.6321 32.7386 44.2358 36.0587 42.1801C36.2507 42.0764 36.4034 41.9127 36.4937 41.7141C36.5839 41.5155 36.6068 41.2928 36.5587 41.08C36.1787 39.93 35.7887 38.7501 35.4087 37.5501C35.2187 36.3301 35.0187 35.1001 34.8287 33.8801C34.0087 28.6701 33.3487 23.2901 34.8287 18.1301C34.8629 17.9958 34.883 17.8584 34.8887 17.7201C35.0787 17.3201 35.2687 16.9301 35.4987 16.5401C36.2487 15.4001 34.5287 14.3301 33.8687 15.4401Z" fill="#4A7084"/>
<path d="M90.1183 7.73983C86.8883 5.52983 82.4183 6.73982 78.9083 7.37982C74.2783 8.28982 69.6583 9.28983 65.0883 10.4898C61.4373 11.3222 57.9521 12.7622 54.7783 14.7498C52.4079 15.2697 50.2644 16.5306 48.6583 18.3498C46.7883 20.6698 46.3083 23.7798 45.8183 26.6398C45.2318 29.9655 44.9141 33.3331 44.8683 36.7098C44.8589 36.899 44.9075 37.0866 45.0076 37.2474C45.1076 37.4082 45.2544 37.5347 45.4283 37.6098C45.4283 39.2698 47.8483 39.4798 48.3383 38.0198C57.2783 35.9398 66.3383 34.2498 75.3883 33.0198C77.6683 32.7065 79.955 32.4198 82.2483 32.1598C84.1683 31.9398 86.4783 32.0198 88.0883 30.7898C89.6983 29.5598 90.0083 27.5098 90.4683 25.7898C91.0071 23.6843 91.4112 21.5467 91.6783 19.3898C91.9516 17.2142 92.0752 15.0224 92.0483 12.8298C92.0183 10.8098 91.8783 8.93983 90.1183 7.73983Z" fill="#89A1AE"/>
<path d="M63.8096 6.4104C55.0927 8.72108 46.5012 11.4815 38.0696 14.6804C37.9409 14.6172 37.8006 14.5807 37.6573 14.5732C37.514 14.5658 37.3708 14.5875 37.2361 14.637C37.1015 14.6866 36.9783 14.763 36.8741 14.8615C36.7698 14.9601 36.6866 15.0788 36.6296 15.2104C35.3396 18.2704 35.6296 21.5604 35.7896 24.7904C36.0196 28.6604 35.5996 32.5304 35.8896 36.3904C35.9589 37.2468 36.0791 38.0983 36.2496 38.9404C36.3161 39.7973 36.5399 40.6346 36.9096 41.4104C37.8296 42.8204 39.5096 41.4104 40.4996 40.8104L42.9596 39.4104C43.7321 39.1072 44.4187 38.6197 44.9596 37.9904C45.2341 37.3195 45.3172 36.5857 45.1996 35.8704C45.1996 34.8704 45.1996 33.8704 45.1996 32.8704C45.0714 29.1286 45.4959 25.3883 46.4596 21.7704C46.9203 20.0838 47.813 18.5464 49.0496 17.3104C50.4629 16.1474 52.0665 15.2374 53.7896 14.6204C57.4596 13.0704 61.3396 12.0704 65.0096 10.5404C66.1896 10.0404 67.2396 9.04041 66.9396 7.64041C66.4896 6.10041 65.0696 6.0804 63.8096 6.4104Z" fill="white"/>
<path d="M66.5095 6.47022C65.6195 5.87022 63.9295 6.52025 63.0095 6.68025C59.9295 7.21025 56.8595 7.76023 53.8095 8.45023C48.4753 9.57676 43.3091 11.3884 38.4395 13.8402C37.9395 12.9702 36.6395 13.0502 36.4395 14.4802C36.4395 14.6802 36.4395 14.8802 36.3695 15.0802C36.2629 15.2214 36.1955 15.3884 36.1745 15.564C36.1534 15.7397 36.1793 15.9178 36.2495 16.0802C35.2257 24.3036 35.3434 32.6291 36.5995 40.8203C36.6513 41.0451 36.7539 41.255 36.8994 41.434C37.0449 41.613 37.2296 41.7563 37.4391 41.8529C37.6486 41.9494 37.8775 41.9967 38.1081 41.991C38.3387 41.9854 38.565 41.927 38.7695 41.8203L44.1395 39.4602C45.9095 38.6802 46.2595 36.0802 44.4995 36.8502L39.2495 38.3002C38.2495 30.8102 38.3895 18.7602 39.3895 16.8002C40.3895 14.8402 46.8195 12.5902 51.3895 11.4202C53.8095 10.7902 56.3895 9.92024 58.8495 9.42024C60.0695 9.18024 61.2995 8.96022 62.5295 8.75022C63.1895 8.64022 64.5295 8.25024 65.3095 8.21024C65.4695 8.75024 65.5195 9.47023 65.6095 9.91023C65.6679 10.1754 65.8292 10.4066 66.058 10.5529C66.2868 10.6992 66.5643 10.7486 66.8295 10.6902C67.0948 10.6319 67.3259 10.4706 67.4722 10.2418C67.6185 10.013 67.6679 9.73544 67.6095 9.47022C67.3595 8.61022 67.3595 7.05022 66.5095 6.47022Z" fill="#CDEAFC"/>
<path d="M66.249 110.671C58.399 111.331 49.779 108.421 42.639 104.491C36.469 101.101 31.729 95.6106 28.199 89.5906C28.0372 89.278 27.7925 89.016 27.4918 88.8331C27.1911 88.6501 26.846 88.5534 26.494 88.5534C26.142 88.5534 25.7968 88.6501 25.4961 88.8331C25.1955 89.016 24.9508 89.278 24.789 89.5906C23.3063 85.5316 22.7527 81.1918 23.169 76.8906C23.279 75.7406 21.439 74.6306 20.339 74.6506C20.809 72.0506 21.099 70.0906 21.739 67.6006C23.029 62.5406 24.209 57.4206 27.809 53.5306C29.549 51.6606 27.949 50.4606 26.199 52.3606C22.199 56.6706 20.519 60.2706 19.049 65.8906C18.289 68.8006 17.159 70.1306 16.619 73.0806C16.0619 76.8205 15.9378 80.6122 16.249 84.3806C16.2435 84.9211 16.4496 85.4424 16.8233 85.8329C17.1971 86.2235 17.7087 86.4523 18.249 86.4706C18.7673 86.4899 19.2729 86.307 19.659 85.9606C20.7737 91.5984 23.3457 96.8459 27.119 101.181C27.4515 101.532 27.9003 101.751 28.3821 101.797C28.8638 101.843 29.346 101.713 29.739 101.431C30.0239 101.233 30.2486 100.96 30.388 100.642C30.5274 100.324 30.5762 99.9743 30.529 99.6306C33.3533 102.942 36.7382 105.732 40.529 107.871C44.0951 109.845 48.0175 111.092 52.069 111.541C56.5405 111.886 61.035 111.795 65.489 111.271C66.559 111.181 69.349 112.181 69.399 111.001C69.449 109.991 67.249 110.541 66.249 110.671Z" fill="#FCFA9C"/>
<path d="M26.9892 51.5905C20.5892 58.1105 18.3092 67.1605 17.7092 76.0305C17.5792 77.9605 20.5792 78.1005 20.7092 76.1805C21.2592 68.1205 23.2092 59.7305 29.0292 53.7805C30.3792 52.4105 28.3392 50.2005 26.9892 51.5905Z" fill="#FCFA9C"/>
<path d="M48.6298 37.9906C40.4398 40.2006 31.7298 42.8106 26.6298 50.1506C25.5298 51.7406 28.0698 53.3406 29.1598 51.7506C33.7398 45.1406 42.2598 41.0606 49.6098 39.0706C51.4898 38.5406 50.4998 37.4806 48.6298 37.9906Z" fill="#FCFA9C"/>
<path d="M101.42 100.89C93.9901 105.31 84.5801 107.09 79.9801 115.06C79.8921 115.234 79.8745 115.435 79.9309 115.622C79.9872 115.809 80.1133 115.967 80.283 116.063C80.4527 116.16 80.6529 116.187 80.8423 116.14C81.0316 116.093 81.1956 115.975 81.3001 115.81C84.1401 110.9 89.4201 108.25 94.4001 105.99C98.2201 104.27 102.2 102.54 105.49 99.9199C104.187 100.436 102.816 100.763 101.42 100.89Z" fill="black"/>
<path d="M104.628 100.25C101.616 102.313 98.3949 104.052 95.0183 105.44L94.2983 105.77C89.1683 108.09 83.9283 110.77 81.0883 115.68C81.0566 115.74 81.0124 115.793 80.9586 115.835C80.9049 115.877 80.8429 115.907 80.7767 115.923C80.7104 115.939 80.6416 115.941 80.5746 115.928C80.5076 115.916 80.4441 115.889 80.3883 115.85C80.3286 115.823 80.2756 115.784 80.2328 115.734C80.1899 115.685 80.1584 115.627 80.1403 115.564C80.1222 115.501 80.118 115.435 80.128 115.371C80.1381 115.306 80.162 115.245 80.1983 115.19C83.3883 109.65 89.0683 107.08 94.5583 104.59C97.1223 103.489 99.6139 102.226 102.018 100.81L100.878 100.9C98.7783 102.11 96.5483 103.14 94.3483 104.14C88.7883 106.66 83.0383 109.27 79.7583 114.94C79.635 115.169 79.6057 115.437 79.6766 115.687C79.7475 115.937 79.9131 116.15 80.1383 116.28C80.25 116.351 80.3748 116.399 80.5052 116.421C80.6357 116.444 80.7693 116.44 80.8983 116.41C81.0303 116.38 81.1542 116.322 81.2613 116.239C81.3684 116.156 81.4561 116.05 81.5183 115.93C84.2883 111.14 89.4483 108.51 94.5183 106.22L95.2283 105.9C99.0783 104.16 103.028 102.37 106.228 99.6201C105.71 99.867 105.176 100.077 104.628 100.25Z" fill="black"/>
<path d="M114.448 92.2307C114.388 92.3307 114.328 92.4107 114.278 92.5007C114.937 93.6609 115.24 94.9896 115.148 96.3207C114.908 99.9807 112.408 102.321 109.278 103.881C102.998 106.951 95.7983 107.301 89.3783 110.011C86.1939 111.269 83.375 113.304 81.1783 115.931C80.5683 116.691 81.8483 117.521 82.4483 116.761C87.1483 110.901 95.1184 109.761 101.958 107.991C105.618 107.061 109.448 105.931 112.558 103.711C113.925 102.749 115.02 101.452 115.738 99.9437C116.456 98.4354 116.773 96.7673 116.658 95.1007C116.54 93.5989 115.988 92.1639 115.068 90.9707C114.878 91.4007 114.678 91.8207 114.448 92.2307Z" fill="black"/>
<path d="M115.18 90.7305L114.94 91.2405C115.779 92.3729 116.288 93.7161 116.41 95.1205C116.513 96.7425 116.199 98.3639 115.499 99.8306C114.799 101.297 113.736 102.561 112.41 103.5C109.28 105.75 105.34 106.87 101.9 107.74C101.01 107.97 100.09 108.19 99.1696 108.41C92.8896 109.9 86.3996 111.41 82.2596 116.6C82.2017 116.678 82.1232 116.738 82.0331 116.773C81.943 116.808 81.8448 116.818 81.7496 116.8C81.6512 116.789 81.5572 116.753 81.4766 116.695C81.3961 116.638 81.3317 116.56 81.2896 116.47C81.2665 116.405 81.2627 116.335 81.2786 116.267C81.2946 116.2 81.3297 116.138 81.3796 116.09C83.5466 113.492 86.3319 111.481 89.4796 110.24C92.4718 109.073 95.5557 108.157 98.6996 107.5C102.377 106.769 105.963 105.632 109.39 104.11C113.16 102.26 115.18 99.6504 115.39 96.3304C115.48 94.9035 115.131 93.4831 114.39 92.2604C114.29 92.4304 114.19 92.5905 114.08 92.7505C114.672 93.8354 114.943 95.067 114.86 96.3005C114.65 99.4205 112.72 101.9 109.13 103.66C105.737 105.163 102.189 106.286 98.5496 107.01C95.378 107.674 92.2673 108.6 89.2496 109.78C86.019 111.05 83.1608 113.113 80.9396 115.78C80.8374 115.898 80.7693 116.041 80.7428 116.194C80.7164 116.348 80.7326 116.506 80.7896 116.65C80.8618 116.824 80.9783 116.975 81.1275 117.089C81.2768 117.203 81.4534 117.276 81.6396 117.3C81.7689 117.32 81.9004 117.32 82.0296 117.3C82.2581 117.244 82.4618 117.114 82.6096 116.93C86.6096 111.93 93.0496 110.38 99.2496 108.93L101.98 108.27C105.47 107.38 109.46 106.27 112.67 103.95C114.067 102.961 115.187 101.63 115.922 100.084C116.658 98.5377 116.984 96.8287 116.87 95.1205C116.752 93.5225 116.164 91.995 115.18 90.7305Z" fill="black"/>
<path d="M82.42 115.421C78.584 112.838 74.1973 111.187 69.61 110.601C69.3378 110.632 69.0641 110.649 68.79 110.651C68.5706 110.753 68.332 110.807 68.09 110.811C67.79 110.811 67.49 110.811 67.19 110.811C66.9989 111.012 66.7878 111.192 66.56 111.351C66.46 111.421 66.35 111.471 66.25 111.531C71.67 112.191 76.92 113.361 81.5 116.611C82.3 117.191 83.25 115.981 82.42 115.421Z" fill="black"/>
<path d="M82.5695 115.21C78.871 112.721 74.6607 111.094 70.2495 110.45C69.7829 110.592 69.297 110.66 68.8094 110.65H68.6694C73.4694 111.36 78.1595 112.65 82.2995 115.57C82.3655 115.611 82.4191 115.668 82.4544 115.737C82.4897 115.806 82.5053 115.883 82.4995 115.96C82.4855 116.06 82.4459 116.155 82.3846 116.236C82.3233 116.317 82.2424 116.38 82.1495 116.42C82.0757 116.465 81.9909 116.489 81.9044 116.489C81.818 116.489 81.7332 116.465 81.6595 116.42C77.1395 113.21 71.9195 112 66.6595 111.33C66.4317 111.482 66.1907 111.612 65.9395 111.72C71.4195 112.36 76.8294 113.51 81.4494 116.8C81.6575 116.95 81.9152 117.015 82.1694 116.98C82.2633 116.969 82.3546 116.942 82.4395 116.9C82.6114 116.822 82.7604 116.701 82.8724 116.548C82.9844 116.396 83.0557 116.218 83.0795 116.03C83.0766 115.86 83.0276 115.694 82.9378 115.55C82.848 115.405 82.7207 115.288 82.5695 115.21Z" fill="black"/>
<path d="M82.019 115.26C79.129 114.11 75.939 114.19 72.839 114.26H71.779C68.569 114.32 65.319 114.5 62.179 114.66L60.499 114.75C56.979 114.93 53.219 115.11 49.439 115.08C47.6452 115.098 45.852 115.008 44.069 114.81H43.829C42.359 114.63 40.359 114.39 39.549 113.13C39.4059 112.912 39.3247 112.659 39.3141 112.398C39.3036 112.138 39.364 111.879 39.489 111.65C39.5852 111.39 39.6588 111.123 39.709 110.85C39.756 110.319 39.6772 109.785 39.479 109.29C39.3824 109.02 39.3088 108.742 39.259 108.46C39.1846 107.918 39.222 107.367 39.369 106.84C39.1261 106.746 38.9049 106.603 38.719 106.42C38.489 106.29 38.239 106.17 38.009 106.05C37.8699 105.969 37.7263 105.895 37.579 105.83C37.5397 105.918 37.5063 106.008 37.479 106.1C37.2704 106.786 37.1824 107.504 37.219 108.22C37.2504 108.595 37.3277 108.964 37.449 109.32C37.6243 109.775 37.6861 110.266 37.629 110.75L37.539 111.02C37.2904 111.596 37.204 112.229 37.289 112.85C37.4627 113.694 37.9005 114.461 38.539 115.04C39.889 116.28 41.909 116.57 43.389 116.78C47.2396 117.221 51.1225 117.308 54.989 117.04H55.629C57.799 116.96 59.989 116.84 62.119 116.73C64.079 116.617 66.0424 116.52 68.009 116.44C70.699 116.33 72.929 116.29 75.009 116.31C77.158 116.204 79.308 116.499 81.349 117.18C81.5291 117.255 81.7272 117.276 81.919 117.24C82.0457 117.207 82.1646 117.149 82.269 117.07C82.4137 116.951 82.5249 116.796 82.5915 116.62C82.6582 116.445 82.678 116.255 82.649 116.07C82.627 115.891 82.5568 115.721 82.4458 115.578C82.3349 115.436 82.1874 115.326 82.019 115.26Z" fill="black"/>
<path d="M53.439 35.9406C43.049 36.9406 29.899 43.3206 23.529 51.5906C23.4542 51.7178 23.4085 51.86 23.3952 52.007C23.3818 52.1539 23.4012 52.3021 23.4518 52.4407C23.5025 52.5793 23.5832 52.7049 23.6882 52.8087C23.7932 52.9124 23.9198 52.9916 24.059 53.0406C22.6315 54.6345 21.3901 56.3857 20.359 58.2606C18.5571 61.3854 17.121 64.7073 16.079 68.1606C15.0445 71.583 14.5024 75.1353 14.469 78.7106C14.4619 80.5306 14.6158 82.3477 14.929 84.1406C15.199 85.7006 15.429 87.7906 16.699 88.8906C16.8226 89.014 16.9764 89.1029 17.1451 89.1484C17.3137 89.1939 17.4913 89.1944 17.6603 89.1499C17.8292 89.1054 17.9835 89.0174 18.1078 88.8947C18.2322 88.772 18.3222 88.6189 18.369 88.4506C18.419 88.2306 18.479 88.0006 18.529 87.7806C19.9978 94.1054 23.8341 99.6272 29.249 103.211C30.319 103.921 31.329 102.211 30.249 101.491C27.0373 99.3618 24.4053 96.4678 22.5899 93.0691C20.7745 89.6705 19.8326 85.8737 19.849 82.0206C19.8874 81.7553 19.819 81.4857 19.6586 81.271C19.4983 81.0563 19.2592 80.9141 18.994 80.8756C18.7288 80.8372 18.4591 80.9056 18.2444 81.066C18.0297 81.2263 17.8874 81.4654 17.849 81.7306L17.019 85.2206C16.849 84.3606 16.769 83.4806 16.679 82.8506C16.4576 81.2238 16.3706 79.5816 16.419 77.9406C16.5273 74.6704 17.0825 71.4304 18.069 68.3106C19.0541 65.1758 20.3787 62.1579 22.019 59.3106C23.669 56.4306 25.599 53.6006 28.589 51.9706C29.729 51.3506 28.739 49.6906 27.589 50.2406L27.019 50.4806C32.869 44.0706 44.689 38.7906 53.349 37.9806C54.679 37.8206 54.719 35.8106 53.439 35.9406Z" fill="black"/>
<path d="M68.2494 110.081C53.5294 111.481 36.2494 108.931 27.7094 95.3707C27.0194 94.2907 25.2794 95.2807 25.9694 96.3707C30.0959 102.608 36.1724 107.302 43.2494 109.721C51.2494 112.601 59.8494 112.871 68.1894 112.081C69.4894 111.961 69.5294 109.951 68.2494 110.081Z" fill="black"/>
<path d="M64.2486 35.3899C70.0286 34.0399 80.4386 32.0899 86.3686 31.9499C90.6886 31.8399 95.3086 31.86 99.2586 33.74H99.2486C99.0988 33.778 98.9598 33.8501 98.8425 33.9509C98.7253 34.0517 98.633 34.1783 98.5729 34.3207C98.5128 34.4632 98.4866 34.6176 98.4963 34.7719C98.5059 34.9262 98.5512 35.0761 98.6286 35.2099C99.6286 37.0599 102.289 37.3899 104.059 38.2099C106.198 39.1642 108.235 40.3336 110.139 41.6999C112.027 43.0557 113.77 44.6041 115.339 46.32C116.163 47.2132 116.938 48.1513 117.659 49.13C117.789 49.31 118.729 50.39 118.659 50.57C118.589 50.75 117.659 50.41 117.479 50.36C116.429 49.99 115.949 51.36 116.479 52.03C119.874 56.4728 121.955 61.779 122.486 67.3456C123.016 72.9122 121.974 78.5159 119.479 83.5199C119.911 84.3341 120.211 85.2117 120.369 86.12C123.329 80.9599 124.793 75.0766 124.595 69.1307C124.397 63.1849 122.546 57.4118 119.249 52.4599C119.46 52.408 119.663 52.3236 119.849 52.2099C120.258 51.9172 120.543 51.4807 120.644 50.9877C120.746 50.4946 120.659 49.9812 120.399 49.55C118.92 47.0652 117.05 44.8363 114.859 42.9499C112.795 41.0235 110.513 39.3454 108.059 37.9499C106.851 37.2702 105.605 36.6592 104.329 36.12C103.589 35.81 102.379 35.56 101.459 35.12C101.737 34.9485 102.002 34.7545 102.249 34.54C102.357 34.432 102.439 34.3006 102.488 34.1561C102.538 34.0115 102.553 33.8575 102.534 33.7059C102.515 33.5543 102.461 33.4091 102.377 33.2815C102.293 33.154 102.18 33.0474 102.049 32.97C97.6086 29.97 92.0486 29.81 86.9086 29.91C80.6486 30.02 69.9086 32 63.7786 33.43C63.6499 33.4608 63.5286 33.5167 63.4215 33.5945C63.3144 33.6722 63.2237 33.7703 63.1545 33.8832C63.0853 33.996 63.039 34.1214 63.0183 34.2521C62.9976 34.3828 63.0028 34.5162 63.0336 34.6449C63.0645 34.7736 63.1204 34.895 63.1982 35.0021C63.2759 35.1092 63.374 35.1999 63.4868 35.2691C63.5997 35.3383 63.725 35.3846 63.8557 35.4053C63.9864 35.4261 64.1199 35.4208 64.2486 35.3899Z" fill="black"/>
<path d="M58.629 29.7699C58.377 29.6914 58.1042 29.7156 57.8701 29.8374C57.6359 29.9592 57.4594 30.1686 57.379 30.4199C56.2212 33.0412 54.3369 35.276 51.949 36.8599C51.8323 36.9219 51.7291 37.0063 51.6453 37.1083C51.5614 37.2104 51.4987 37.328 51.4605 37.4545C51.4224 37.5809 51.4097 37.7137 51.4232 37.845C51.4366 37.9764 51.476 38.1038 51.539 38.2199C51.6641 38.4528 51.8763 38.6267 52.1293 38.7036C52.3823 38.7804 52.6554 38.754 52.889 38.6299C55.7138 36.7768 57.9268 34.1288 59.249 31.0199C59.3289 30.7718 59.3088 30.5024 59.193 30.2689C59.0772 30.0354 58.8748 29.8564 58.629 29.7699Z" fill="black"/>
<path d="M63.8881 28.87C63.7772 28.7997 63.6535 28.752 63.524 28.7296C63.3946 28.7071 63.2621 28.7104 63.1339 28.7392C63.0058 28.7679 62.8845 28.8217 62.7772 28.8973C62.6698 28.9729 62.5784 29.069 62.5081 29.18C61.0828 32.1059 58.9564 34.6342 56.3181 36.54C56.1319 36.7274 56.0273 36.9808 56.0273 37.245C56.0273 37.5092 56.1319 37.7626 56.3181 37.95C56.4988 38.143 56.7486 38.2567 57.0128 38.2661C57.2771 38.2754 57.5343 38.1798 57.7281 38C60.5012 35.9873 62.7396 33.3266 64.2481 30.25C64.3162 30.1361 64.361 30.0097 64.3797 29.8783C64.3985 29.7468 64.3909 29.613 64.3574 29.4845C64.3239 29.3561 64.2651 29.2356 64.1846 29.1301C64.104 29.0246 64.0032 28.9362 63.8881 28.87Z" fill="black"/>
<path d="M67.4385 30.33C67.3275 30.2597 67.2038 30.212 67.0744 30.1895C66.945 30.1671 66.8124 30.1703 66.6842 30.1991C66.5561 30.2279 66.4349 30.2817 66.3275 30.3573C66.2201 30.433 66.1287 30.529 66.0585 30.64C65.8385 30.99 65.5885 31.33 65.3385 31.64L65.2185 31.79L65.1185 31.91L64.6785 32.4C64.3885 32.7 64.0785 32.98 63.7685 33.26L63.2785 33.66L63.0485 33.83L62.9085 33.94C62.6941 34.0668 62.5312 34.2651 62.4485 34.5C62.3875 34.6893 62.3845 34.8925 62.4396 35.0836C62.4948 35.2747 62.6056 35.445 62.7581 35.5728C62.9105 35.7005 63.0976 35.7799 63.2954 35.8008C63.4932 35.8217 63.6927 35.7831 63.8685 35.69C65.4539 34.5943 66.8122 33.202 67.8685 31.59C67.964 31.3638 67.9729 31.1104 67.8936 30.878C67.8143 30.6456 67.6523 30.4506 67.4385 30.33Z" fill="black"/>
<path d="M89.5597 5.96028C86.7997 5.35028 83.5597 5.96027 80.7597 6.33027C74.5189 7.23139 68.3619 8.63937 62.3497 10.5403C59.4049 11.4346 56.5135 12.4963 53.6897 13.7203C51.2114 14.6684 49.0612 16.3149 47.4997 18.4603C45.8797 20.9403 45.2397 23.9803 44.6497 26.8403C43.9973 30.8786 43.5899 34.9527 43.4297 39.0403H43.6897H44.4497C44.7797 39.0403 45.1197 38.9503 45.4497 38.8803C45.7597 33.7103 46.2697 26.6203 48.0397 21.8803C48.8701 19.5575 50.5298 17.6236 52.6997 16.4503C55.0446 15.2474 57.4865 14.2438 59.9997 13.4503C65.3233 11.6295 70.7706 10.1924 76.2997 9.15025C79.0991 8.56799 81.9308 8.15392 84.7797 7.91026C86.0738 7.75038 87.3813 7.73027 88.6797 7.85026C90.3097 8.08026 90.9197 9.10028 90.9997 10.6803C91.0646 13.5759 90.8637 16.4713 90.3997 19.3303C89.8981 22.8841 89.1801 26.404 88.2497 29.8703C87.8997 31.1103 89.7897 31.7803 90.1297 30.5403C91.9257 24.2566 92.8906 17.7647 92.9997 11.2303C92.9797 8.78027 92.1797 6.54028 89.5597 5.96028Z" fill="black"/>
<path d="M66.5791 5.16018C65.9387 4.92115 65.2401 4.88621 64.5791 5.06017C63.3591 5.27017 62.1491 5.56019 60.9491 5.83019C56.3691 6.85019 51.8358 8.0502 47.3491 9.4302C45.1424 10.0969 42.9458 10.8168 40.7591 11.5902C38.9591 12.2202 36.9991 12.7902 35.7591 14.3302C34.8138 15.648 34.2687 17.2104 34.1891 18.8302C33.991 21.0276 33.9175 23.2345 33.9691 25.4402C34.0842 31.3391 34.6324 37.2216 35.6091 43.0402L35.8191 42.8502C36.1351 42.5748 36.4692 42.3209 36.8191 42.0902C37.0062 41.9765 37.2202 41.9144 37.4391 41.9102C36.5616 36.4346 36.067 30.9046 35.9591 25.3602C35.899 23.1133 35.9892 20.865 36.2291 18.6302C36.3103 17.5973 36.6546 16.6024 37.2291 15.7402C37.9389 14.91 38.8782 14.3081 39.9291 14.0102C44.6734 12.2754 49.503 10.7835 54.3991 9.54018C56.7891 8.91018 59.1891 8.32018 61.5991 7.79018L63.5291 7.37017C64.112 7.17663 64.7166 7.05573 65.3291 7.01019C66.3291 7.07019 66.4891 8.15019 66.6391 9.01019C66.6895 9.2754 66.8432 9.50974 67.0663 9.66164C67.2895 9.81355 67.5639 9.87057 67.8291 9.82018C68.0943 9.76979 68.3286 9.61611 68.4805 9.39294C68.6325 9.16977 68.6895 8.8954 68.6391 8.63018C68.3791 7.28018 67.9191 5.74018 66.5791 5.16018Z" fill="black"/>
<path d="M36.5385 13.5402C32.9585 14.0702 29.4285 15.9602 26.4485 17.9602C25.0907 18.8197 23.927 19.9528 23.0316 21.2872C22.1363 22.6216 21.529 24.128 21.2485 25.7102C20.5885 29.2603 20.9885 33.1102 21.3785 36.7102C21.9864 41.6226 22.9455 46.485 24.2485 51.2602C24.5985 52.4802 26.5685 52.1203 26.2485 50.8803C25.0559 46.5632 24.1406 42.1742 23.5085 37.7402C22.9871 34.3266 22.8296 30.8672 23.0385 27.4202C23.1156 25.8764 23.5561 24.3725 24.3242 23.0311C25.0922 21.6896 26.1661 20.5483 27.4585 19.7002C30.275 17.6204 33.5151 16.1864 36.9485 15.5002C38.1885 15.3202 37.8085 13.3502 36.5385 13.5402Z" fill="black"/>
<path d="M39.1887 10.98C39.0255 10.7965 38.8158 10.6605 38.5816 10.5866C38.3474 10.5126 38.0976 10.5034 37.8587 10.56C33.6487 11.65 32.3487 12.76 31.8587 13.35C31.6798 13.5668 31.582 13.839 31.582 14.12C31.582 14.401 31.6798 14.6733 31.8587 14.89C32.2204 15.2331 32.6911 15.4383 33.1886 15.47C33.9512 15.5199 34.7142 15.379 35.4087 15.06C36.1091 14.799 36.7796 14.4638 37.4087 14.06C37.7687 13.84 38.1087 13.6 38.4087 13.35C38.8028 13.1063 39.1241 12.7609 39.3386 12.35C39.4507 12.1321 39.4962 11.8861 39.4695 11.6425C39.4428 11.3989 39.3452 11.1686 39.1887 10.98Z" fill="black"/>
<path d="M121.15 82.68C121.038 82.6091 120.913 82.561 120.783 82.5387C120.652 82.5164 120.519 82.5202 120.39 82.5499C120.261 82.5742 120.139 82.6262 120.032 82.7021C119.925 82.7781 119.835 82.8762 119.77 82.9899C119.36 83.7999 118.96 84.62 118.55 85.44C118.479 85.5509 118.432 85.6746 118.409 85.804C118.387 85.9334 118.39 86.066 118.419 86.1942C118.448 86.3223 118.501 86.4435 118.577 86.5509C118.653 86.6583 118.749 86.7497 118.86 86.82C118.971 86.8909 119.096 86.9388 119.227 86.9611C119.357 86.9835 119.491 86.9796 119.62 86.9499C119.875 86.9004 120.101 86.7533 120.25 86.5399C120.66 85.7199 121.06 84.8999 121.47 84.0899C121.602 83.86 121.648 83.5906 121.6 83.3299C121.573 83.1967 121.519 83.0703 121.442 82.9586C121.364 82.8468 121.265 82.752 121.15 82.68Z" fill="black"/>
<path d="M65.74 112.25C60.1608 112.429 54.5767 112.124 49.05 111.34C48.9187 111.319 48.7928 111.273 48.6795 111.203C48.5662 111.133 48.4677 111.042 48.3897 110.934C48.3117 110.827 48.2557 110.705 48.2249 110.575C48.194 110.446 48.189 110.312 48.21 110.18C48.231 110.049 48.2777 109.923 48.3473 109.81C48.417 109.697 48.5083 109.598 48.616 109.52C48.7237 109.442 48.8458 109.386 48.9751 109.355C49.1045 109.324 49.2387 109.319 49.37 109.34C49.53 109.34 65.44 111.83 79.1 108.54C91.15 105.65 102.81 102.19 113.1 91.7404C116.8 87.9704 119.1 81.4404 119.1 81.3804C119.143 81.2552 119.21 81.1397 119.297 81.0406C119.385 80.9415 119.491 80.8608 119.611 80.8031C119.73 80.7455 119.859 80.712 119.991 80.7047C120.123 80.6973 120.255 80.7162 120.38 80.7603C120.629 80.8487 120.832 81.0318 120.947 81.2697C121.061 81.5076 121.076 81.781 120.99 82.0304C120.9 82.3104 118.53 89.0303 114.52 93.1403C103.9 103.96 91.45 107.64 79.59 110.49C75.0444 111.542 70.4042 112.132 65.74 112.25Z" fill="black"/>
<path d="M111.838 64.0899C110.516 60.8608 108.329 58.0583 105.518 55.99C105.248 55.7699 104.958 55.5699 104.668 55.3599C105.608 55.7799 106.758 54.67 105.898 53.82C103.322 51.3411 100.183 49.5247 96.7494 48.5266C93.3163 47.5286 89.6923 47.3787 86.1885 48.0899C86.0585 48.0899 85.9385 48.0899 85.8085 48.0899C85.5455 48.083 85.2904 48.1801 85.0985 48.3599C84.0744 48.6161 83.0714 48.9504 82.0985 49.3599C82.0184 49.3993 81.9443 49.4497 81.8785 49.5099C76.0485 49.5799 70.2185 50.9099 65.6185 54.6599C65.4961 54.5873 65.3651 54.5302 65.2285 54.49C61.8498 53.7032 58.3456 53.6185 54.9328 54.2412C51.5201 54.8639 48.2716 56.1806 45.3885 58.1099C42.5185 59.9966 39.941 62.2945 37.7385 64.93C35.6085 67.45 33.4285 70.3299 32.6685 73.7799C31.8385 77.5299 32.8585 81.3299 34.4685 84.7799C35.9595 88.1072 38.2344 91.0237 41.0985 93.2799C46.8185 97.5999 52.9185 101.09 59.5885 101.63C73.4585 102.75 89.9885 99.3399 101.278 90.3399C106.298 86.4154 110.02 81.0699 111.958 75C113.114 71.4482 113.072 67.6154 111.838 64.0899Z" fill="#FCFA9C"/>
<path d="M102.839 52.3004C100.276 50.6335 97.3645 49.5764 94.3289 49.2104C91.5342 48.0909 88.5221 47.6191 85.5189 47.8304C82.3665 48.3184 79.2522 49.0268 76.1989 49.9504C73.2349 50.7954 70.4089 52.0653 67.8089 53.7204C66.1489 54.7204 65.2889 57.7704 66.9689 56.7904C71.9657 54.1511 77.3332 52.2833 82.8889 51.2505C87.6757 50.3112 92.6383 50.9644 97.0189 53.1104C100.911 54.9327 104.002 58.1162 105.709 62.0605C107.08 64.8921 107.962 67.9349 108.319 71.0605C108.189 75.3705 106.759 81.8705 104.079 85.0605C101.563 88.0939 98.7929 90.9074 95.7989 93.4704C94.2089 94.4704 99.8889 91.4705 101.639 90.5705C103.597 89.3644 105.35 87.8518 106.829 86.0904C108.829 84.1404 109.989 80.7804 110.829 78.0904C111.549 75.7304 113.029 73.0304 112.709 70.4804C112.829 63.4404 108.749 56.4304 102.839 52.3004Z" fill="white"/>
<path d="M67.0985 54.5406C56.7685 52.0306 45.0385 56.1007 37.9385 64.1907C36.0185 66.3707 34.5285 68.1906 33.8785 71.0506C33.1571 73.8672 32.8705 76.7775 33.0285 79.6807C33.4885 85.1107 36.8585 90.0206 40.7085 93.6806C44.5503 97.5527 49.6133 99.9764 55.0385 100.541C56.5385 100.661 57.5685 99.3606 56.1385 98.9906C47.5485 96.7306 38.9985 88.1306 37.5285 82.9906C36.1485 78.1106 36.9085 65.5807 50.6985 59.3107C55.5075 56.9746 60.9575 56.3061 66.1885 57.4106C68.0585 57.8506 68.9785 55.0006 67.0985 54.5406Z" fill="white"/>
<path d="M94.7 48.1402C93.4 47.9102 92.7 49.8302 94.06 50.0702C103.11 51.7202 110.48 58.8102 111.75 67.7402C112.383 72.3338 111.506 77.0088 109.25 81.0602C106.77 85.5302 102.69 88.8002 98.25 91.2902C88.2862 96.796 77.1664 99.8791 65.79 100.29C55.7 100.61 45.14 98.0602 38.62 90.2002C36.9566 88.2495 35.7107 85.9787 34.9591 83.5278C34.2075 81.0769 33.9662 78.498 34.25 75.9502C34.5518 73.4985 35.3081 71.1246 36.48 68.9502C37.7654 66.4937 39.4906 64.2939 41.57 62.4602C42.57 61.6002 41.18 60.1302 40.16 60.9902C37.8236 63.0418 35.9081 65.5279 34.52 68.3102C32.9612 71.2583 32.1297 74.5363 32.0949 77.871C32.0601 81.2056 32.823 84.5003 34.32 87.4802C39.32 97.0302 50.16 101.62 60.77 102.25C72.9 102.97 85.57 99.8402 96.44 94.5402C101.39 92.1202 106.17 89.0102 109.44 84.6002C112.385 80.6028 113.989 75.7753 114.02 70.8102C114.1 59.8002 105.8 50.1602 94.7 48.1402Z" fill="black"/>
<path d="M94.7091 48.1302C84.7691 46.3402 74.8391 49.2102 66.0091 53.7202C65.7731 53.8528 65.5994 54.0737 65.5262 54.3344C65.4531 54.5951 65.4865 54.8741 65.6191 55.1102C65.7517 55.3462 65.9727 55.5199 66.2333 55.593C66.494 55.6662 66.7731 55.6328 67.0091 55.5002C75.2791 51.2802 84.7391 48.3702 94.0891 50.0502C95.3491 50.2902 96.0191 48.3602 94.7091 48.1302Z" fill="black"/>
<path d="M40.4796 63.0805C40.3382 63.0855 40.1974 63.0605 40.0664 63.007C39.9353 62.9536 39.8172 62.873 39.7196 62.7705C39.6259 62.6775 39.5515 62.5669 39.5007 62.4451C39.45 62.3232 39.4238 62.1925 39.4238 62.0605C39.4238 61.9285 39.45 61.7978 39.5007 61.6759C39.5515 61.5541 39.6259 61.4434 39.7196 61.3505C43.5887 58.046 48.1057 55.5865 52.9808 54.1296C57.856 52.6727 62.9818 52.2506 68.0296 52.8905C68.1609 52.9075 68.2876 52.9503 68.4024 53.0164C68.5172 53.0824 68.6179 53.1704 68.6987 53.2753C68.7794 53.3802 68.8388 53.5 68.8733 53.6279C68.9077 53.7557 68.9167 53.8891 68.8996 54.0205C68.8826 54.1518 68.8398 54.2785 68.7738 54.3933C68.7077 54.5081 68.6197 54.6087 68.5148 54.6895C68.4099 54.7703 68.2901 54.8296 68.1622 54.8641C68.0343 54.8986 67.9009 54.9075 67.7696 54.8905C63.0161 54.3234 58.1967 54.7353 53.6084 56.1008C49.02 57.4664 44.7596 59.7566 41.0896 62.8305C40.9204 62.9804 40.7054 63.0685 40.4796 63.0805Z" fill="black"/>
<path d="M62.25 66.31C62.0472 66.0454 61.7849 65.8323 61.4843 65.6881C61.1837 65.5439 60.8533 65.4726 60.52 65.48C60.1884 65.4959 59.8687 65.6085 59.6004 65.804C59.332 65.9995 59.1268 66.2692 59.01 66.58C58.8421 67.0452 58.7542 67.5355 58.75 68.03C58.7499 68.7492 58.844 69.4653 59.03 70.16C59.296 71.3234 59.7449 72.4373 60.36 73.46C60.53 73.7518 60.7854 73.9845 61.0918 74.1265C61.3983 74.2685 61.7409 74.3131 62.0734 74.2542C62.406 74.1954 62.7125 74.0359 62.9515 73.7973C63.1905 73.5587 63.3505 73.2525 63.41 72.92C63.5636 72.353 63.6376 71.7674 63.63 71.18C63.6485 70.6178 63.6116 70.0551 63.52 69.5C63.3761 68.3457 62.9388 67.2474 62.25 66.31Z" fill="black"/>
<path d="M96.7991 58.1303C96.5963 57.8657 96.334 57.6526 96.0334 57.5084C95.7328 57.3642 95.4024 57.2929 95.0691 57.3003C94.7375 57.3162 94.4178 57.4288 94.1495 57.6243C93.8812 57.8198 93.6759 58.0895 93.5591 58.4003C93.2095 59.568 93.2095 60.8126 93.5591 61.9803C93.5591 62.1403 93.6691 62.3003 93.7291 62.4603C93.8525 63.4882 94.2535 64.4631 94.8891 65.2803C95.092 65.5764 95.3774 65.8063 95.7099 65.9414C96.0424 66.0766 96.4072 66.111 96.7591 66.0403C97.0488 65.9424 97.3089 65.7728 97.5152 65.5472C97.7215 65.3216 97.8674 65.0475 97.9391 64.7503C98.097 64.1808 98.1711 63.5913 98.1591 63.0003C98.1826 62.438 98.1458 61.8748 98.0491 61.3204C97.9111 60.1679 97.4808 59.0698 96.7991 58.1303Z" fill="black"/>
<path d="M84.7783 67.0797C84.6547 66.969 84.5125 66.881 84.3583 66.8197C83.8623 66.6554 83.3338 66.6141 82.8183 66.6997C81.8644 66.8152 80.9521 67.1582 80.1583 67.6997C79.6323 68.0495 79.1691 68.4856 78.7883 68.9897L77.7883 69.1697C77.3905 69.2161 77.0274 69.4186 76.7789 69.7328C76.5304 70.0469 76.4169 70.4469 76.4633 70.8447C76.5097 71.2425 76.7123 71.6056 77.0264 71.8541C77.3405 72.1026 77.7405 72.2161 78.1383 72.1697C80.734 71.7808 83.2663 71.0477 85.6683 69.9897C85.8542 69.913 86.0232 69.8004 86.1656 69.6584C86.3079 69.5163 86.4209 69.3475 86.498 69.1618C86.5751 68.976 86.6148 68.7769 86.6148 68.5758C86.6149 68.3747 86.5753 68.1755 86.4983 67.9897C86.3557 67.6667 86.1084 67.4012 85.7963 67.2361C85.4842 67.071 85.1256 67.0159 84.7783 67.0797Z" fill="white"/>
<path d="M86.6091 67.0103C85.8408 66.3647 84.9229 65.922 83.9394 65.7229C82.9558 65.5237 81.938 65.5744 80.9791 65.8704C78.8491 66.5104 77.4491 68.4204 76.2591 70.1704C76.1776 70.2745 76.1177 70.3937 76.0827 70.5212C76.0476 70.6487 76.0382 70.7818 76.0549 70.9129C76.0717 71.044 76.1142 71.1706 76.1802 71.2851C76.2461 71.3997 76.3341 71.5 76.4391 71.5803C76.65 71.7405 76.9159 71.8105 77.1784 71.7749C77.4408 71.7393 77.6784 71.601 77.8391 71.3903C78.8391 70.0003 79.8391 68.3904 81.4691 67.8104C82.1335 67.5852 82.8454 67.5388 83.5335 67.6757C84.2215 67.8126 84.8614 68.128 85.3891 68.5904C86.3691 69.4304 87.5791 67.8503 86.6091 67.0103Z" fill="black"/>
<path d="M77.7199 94.2702C77.2867 93.8154 76.7354 93.4903 76.1278 93.3313C75.5202 93.1723 74.8803 93.1858 74.2799 93.3702C72.6099 93.6602 70.9399 94.0402 69.2799 94.4902C66.6255 95.1491 64.1365 96.3511 61.9699 98.0202C61.2099 95.6702 60.4499 93.3302 59.6599 91.0202C58.8937 88.3523 57.8897 85.7586 56.6599 83.2702C56.5574 83.141 56.4246 83.0392 56.2732 82.9737C56.1219 82.9083 55.9567 82.8813 55.7924 82.8951C55.628 82.909 55.4697 82.9633 55.3314 83.0532C55.1932 83.143 55.0793 83.2657 54.9999 83.4102C54.1199 85.0402 54.3199 86.8502 54.3899 88.6402C54.4899 90.8402 54.5299 93.0502 54.4899 95.2602C54.429 99.1176 54.0309 102.962 53.2999 106.75C53.1866 106.954 53.1411 107.189 53.1699 107.42C53.1099 107.72 53.0599 108.02 52.9999 108.33C52.7599 109.39 54.1699 109.78 54.7199 109.07C57.0236 110.891 59.6793 112.216 62.5199 112.96C64.2938 113.428 66.0936 113.792 67.9099 114.05C69.4299 114.29 71.3799 114.89 72.7899 114.05C75.3199 112.5 76.1999 108.55 75.7899 105.82C75.6299 104.74 75.3599 102.82 74.0399 102.57C73.8746 102.54 73.7052 102.54 73.5399 102.57L73.6899 101.93C73.9546 101.18 74.0335 100.377 73.9199 99.5902C73.8362 99.2618 73.6329 98.9766 73.3499 98.7902C74.6142 97.6324 75.9834 96.5946 77.4399 95.6902C77.554 95.6176 77.6522 95.5224 77.7286 95.4107C77.8049 95.299 77.8577 95.1729 77.8839 95.0402C77.9101 94.9074 77.909 94.7707 77.8808 94.6384C77.8527 94.506 77.7979 94.3808 77.7199 94.2702Z" fill="#FFBF24"/>
<path d="M59.7186 91.1606C59.5067 90.3249 59.2428 89.5033 58.9286 88.7005C58.6186 87.8905 58.2786 87.0806 57.9286 86.3006L57.7786 86.0306C57.5909 85.3189 57.3468 84.6234 57.0486 83.9505C56.8887 83.4788 56.5843 83.0694 56.1786 82.7806C55.9037 82.6123 55.5751 82.5549 55.2595 82.6198C54.9438 82.6848 54.6647 82.8674 54.4786 83.1306C54.2573 83.507 54.1367 83.934 54.1286 84.3706C54.1286 84.8006 54.0586 85.2205 54.0586 85.6505C54.0751 86.4666 54.1825 87.2783 54.3786 88.0706C54.4361 88.2582 54.5561 88.4205 54.7186 88.5306C54.7186 90.4772 54.8186 92.4172 55.0186 94.3506C54.9907 94.6158 55.0694 94.8812 55.2372 95.0884C55.4051 95.2956 55.6484 95.4277 55.9136 95.4555C56.1788 95.4834 56.4442 95.4048 56.6515 95.2369C56.8587 95.0691 56.9907 94.8258 57.0186 94.5606C57.1386 94.1006 57.2386 93.6406 57.3286 93.1706C57.5325 93.5753 57.8146 93.9355 58.1586 94.2306C58.286 94.3487 58.4419 94.4316 58.6111 94.4712C58.7802 94.5107 58.9568 94.5054 59.1233 94.456C59.2898 94.4065 59.4406 94.3146 59.5608 94.1891C59.6809 94.0637 59.7663 93.9091 59.8086 93.7406C60.0449 92.8918 60.0134 91.9908 59.7186 91.1606Z" fill="#FCFA9C"/>
<path d="M77.7889 95.0699C77.7532 94.9383 77.6878 94.8166 77.5976 94.7143C77.5075 94.612 77.395 94.5318 77.2689 94.4798C77.1998 94.296 77.0725 94.1399 76.9064 94.0351C76.7403 93.9304 76.5446 93.8829 76.3489 93.8998C75.0089 93.9598 73.6689 94.0798 72.3489 94.2698C71.1945 94.3127 70.0653 94.6207 69.0489 95.1699C68.5436 95.4951 68.1849 96.0044 68.0489 96.5898C68.0036 96.7824 67.9975 96.9822 68.0312 97.1772C68.0649 97.3722 68.1377 97.5584 68.245 97.7247C68.3524 97.8909 68.4923 98.0337 68.6562 98.1445C68.8201 98.2554 69.0047 98.3321 69.1989 98.3699C69.8732 98.4096 70.5494 98.3352 71.1989 98.1498L71.7789 98.0198C71.9646 98.1472 72.1838 98.2169 72.4089 98.2198C72.5684 98.2211 72.7253 98.1789 72.8626 98.0979C73 98.0169 73.1128 97.9 73.1889 97.7598L73.3989 97.6398L73.5189 97.5798C74.7295 97.2408 75.9155 96.8199 77.0689 96.3199C77.1997 96.2875 77.3226 96.229 77.4302 96.148C77.5379 96.067 77.628 95.965 77.6953 95.8483C77.7625 95.7315 77.8055 95.6024 77.8216 95.4686C77.8377 95.3349 77.8266 95.1992 77.7889 95.0699Z" fill="#FCFA9C"/>
<path d="M73.4384 99.5407C73.369 99.4289 73.2781 99.3319 73.1711 99.2553C73.0641 99.1787 72.943 99.1239 72.8148 99.0942C72.6866 99.0645 72.5538 99.0604 72.424 99.0821C72.2942 99.1038 72.17 99.1508 72.0584 99.2207C71.9473 99.3018 71.8495 99.3996 71.7684 99.5106C71.653 99.516 71.5387 99.5362 71.4284 99.5707C71.2738 99.6197 71.1285 99.694 70.9984 99.7907C70.9102 99.8583 70.8267 99.9317 70.7484 100.011C70.6762 100.093 70.6094 100.18 70.5484 100.271C70.4616 100.414 70.3943 100.569 70.3484 100.731C70.2704 100.986 70.2366 101.254 70.2484 101.521C70.2439 101.747 70.2742 101.973 70.3384 102.191C70.4345 102.532 70.6559 102.825 70.9584 103.011C71.1499 103.121 71.3672 103.179 71.5884 103.179C71.8096 103.179 72.0269 103.121 72.2184 103.011C72.6164 102.685 72.9174 102.256 73.0884 101.771C73.3059 101.308 73.48 100.826 73.6084 100.331C73.6366 100.194 73.636 100.054 73.6068 99.9178C73.5775 99.7817 73.5201 99.6533 73.4384 99.5407Z" fill="#FCFA9C"/>
<path d="M75.8687 105.14C75.7012 104.534 75.4629 103.95 75.1587 103.4C75.018 103.177 74.7952 103.019 74.5387 102.96C74.2815 102.9 74.0109 102.944 73.7861 103.082C73.5613 103.221 73.4004 103.443 73.3387 103.7H73.2487C73.0282 103.838 72.8704 104.057 72.8087 104.31C72.7218 104.947 72.7557 105.595 72.9087 106.22C72.9553 106.533 73.0687 106.833 73.2412 107.099C73.4137 107.364 73.6414 107.59 73.9087 107.76C74.1118 107.868 74.3385 107.925 74.5687 107.925C74.7989 107.925 75.0256 107.868 75.2287 107.76C75.5244 107.574 75.7469 107.291 75.8587 106.96C76.0504 106.369 76.0539 105.733 75.8687 105.14Z" fill="#FCFA9C"/>
<path d="M72.3383 121.92C72.7983 119.45 73.4683 117.03 73.7483 114.53C73.7868 114.281 73.8864 114.046 74.0382 113.845C74.1901 113.644 74.3894 113.484 74.6183 113.38C74.604 113.318 74.5839 113.258 74.5583 113.2C73.2783 113.05 72.0083 112.83 70.7283 112.69C69.5854 112.716 68.4429 112.625 67.3183 112.42C66.0883 112.33 64.8583 112.23 63.6383 112.03C59.9179 111.398 56.3391 110.112 53.0683 108.23C52.6783 108.16 52.2883 108.1 51.8883 108.06C51.713 108.029 51.5336 108.029 51.3583 108.06C51.1731 107.962 50.9669 107.911 50.7576 107.912C50.5483 107.913 50.3424 107.965 50.1578 108.063C49.9733 108.162 49.8157 108.305 49.699 108.478C49.5823 108.652 49.5099 108.852 49.4883 109.06C48.5883 118.393 47.9216 127.746 47.4883 137.12C47.5063 137.348 47.5778 137.569 47.697 137.765C47.8162 137.96 47.9797 138.125 48.1744 138.246C48.3691 138.367 48.5895 138.44 48.8178 138.46C49.046 138.479 49.2757 138.445 49.4883 138.36C52.8337 137.14 56.3423 136.426 59.8983 136.24C61.6783 136.06 63.4583 135.89 65.2183 135.61C66.6383 135.38 68.6883 135.27 69.7683 134.2C70.8483 133.13 70.8383 131.2 71.0483 129.76C71.2883 128.04 71.5383 126.33 71.8283 124.62C71.9683 123.76 72.1483 122.84 72.3383 121.92Z" fill="#01CBE0"/>
<path d="M56.4591 111.15C56.4903 111.022 56.496 110.889 56.4757 110.759C56.4553 110.629 56.4095 110.504 56.3407 110.391C56.2719 110.279 56.1816 110.181 56.0749 110.104C55.9682 110.026 55.8473 109.971 55.7191 109.94C55.4619 109.88 55.1913 109.924 54.9665 110.063C54.7417 110.202 54.5808 110.423 54.5191 110.68C54.2635 111.611 54.1722 112.579 54.2491 113.54C54.2643 113.805 54.3785 114.055 54.5691 114.24C54.7564 114.427 55.0099 114.531 55.2741 114.531C55.5383 114.531 55.7917 114.427 55.9791 114.24C56.0694 114.144 56.1397 114.031 56.186 113.907C56.2324 113.784 56.2538 113.652 56.2491 113.52C56.2091 113.095 56.2091 112.666 56.2491 112.24C56.2933 111.872 56.3635 111.508 56.4591 111.15Z" fill="#8FFFFB"/>
<path d="M60.419 111.47C60.2807 111.25 60.0619 111.092 59.809 111.03C59.681 110.999 59.548 110.994 59.4178 111.014C59.2875 111.034 59.1626 111.08 59.0501 111.149C58.9377 111.218 58.8399 111.308 58.7625 111.415C58.6851 111.521 58.6295 111.642 58.599 111.77C58.4124 112.853 58.3353 113.952 58.369 115.051C58.369 115.316 58.4744 115.57 58.6619 115.758C58.8494 115.945 59.1038 116.051 59.369 116.051C59.6342 116.051 59.8886 115.945 60.0761 115.758C60.2637 115.57 60.369 115.316 60.369 115.051C60.3342 114.438 60.3342 113.823 60.369 113.21C60.369 112.91 60.449 112.611 60.499 112.311C60.5416 112.172 60.5565 112.027 60.5428 111.883C60.529 111.738 60.487 111.598 60.419 111.47Z" fill="#8FFFFB"/>
<path d="M66.8992 112.68C66.7712 112.649 66.6382 112.643 66.508 112.663C66.3777 112.684 66.2528 112.729 66.1403 112.798C66.0279 112.867 65.9301 112.957 65.8527 113.064C65.7753 113.171 65.7197 113.292 65.6892 113.42C65.4559 114.63 65.2923 115.851 65.1992 117.08C65.2024 117.211 65.2314 117.341 65.2846 117.461C65.3378 117.581 65.4141 117.689 65.5092 117.78C65.6055 117.87 65.7187 117.941 65.8422 117.987C65.9658 118.033 66.0973 118.055 66.2292 118.05C66.3613 118.045 66.4911 118.015 66.6112 117.96C66.7314 117.905 66.8395 117.827 66.9292 117.73C67.0937 117.529 67.1885 117.28 67.1992 117.02C67.1992 116.86 67.1992 116.7 67.1992 116.54C67.2877 115.65 67.4212 114.766 67.5992 113.89C67.6637 113.637 67.6266 113.368 67.4958 113.142C67.3649 112.916 67.1508 112.75 66.8992 112.68Z" fill="#8FFFFB"/>
<path d="M70.7984 114.871L70.6484 115.311C70.5339 115.46 70.449 115.629 70.3984 115.811C70.2884 116.191 70.1984 116.57 70.0984 116.95C68.4219 121.723 67.3371 126.684 66.8684 131.721C66.7437 134.97 66.376 138.206 65.7684 141.4C65.2735 143.584 64.3967 145.662 63.1784 147.541C62.0684 149.121 64.7184 150.541 65.8084 148.971C66.1736 148.454 66.5076 147.917 66.8084 147.361C66.8379 147.298 66.8713 147.238 66.9084 147.181C67.1284 146.741 67.3384 146.301 67.5284 145.851C69.2284 141.931 69.8284 137.361 70.4084 133.291C71.1584 128.021 71.6984 122.711 73.0684 117.551C73.2784 116.911 73.4984 116.261 73.7184 115.621C74.3384 113.741 71.4184 113.051 70.7984 114.871Z" fill="#8FFFFB"/>
<path d="M72.5293 117.32C64.5759 116.794 56.8075 114.686 49.6793 111.12C48.5693 110.57 47.6793 112.27 48.7693 112.83C56.2073 116.533 64.308 118.719 72.5993 119.26C73.8393 119.34 73.7593 117.41 72.5293 117.32Z" fill="#0197E0"/>
<path d="M48.5084 106.59C46.8984 117.12 46.4084 120.71 46.3184 131.36C46.3184 132.6 48.2384 132.53 48.2484 131.29C48.3384 120.81 48.8084 117.39 50.3884 107.03C50.5784 105.81 48.6884 105.36 48.5084 106.59Z" fill="black"/>
<path d="M77.4599 93.0806C74.3578 92.8139 71.2329 93.0983 68.2299 93.9206C66.2135 94.3684 64.3236 95.2638 62.6999 96.5406C61.6999 93.6906 60.6999 90.8506 59.7699 88.0006C59.3733 86.6743 58.8229 85.3989 58.1299 84.2006C57.5299 83.2506 56.4799 81.9206 55.1999 82.0806C53.9199 82.2406 53.6399 83.3706 53.5699 84.4206C53.4599 86.0106 53.4999 87.6106 53.5699 89.2006C53.5699 92.6706 52.8299 103.901 51.7499 107.251C51.3699 108.431 53.1599 109.171 53.5399 107.991C54.3499 105.471 55.4799 95.2006 55.5399 92.5606C55.5399 91.2706 55.5399 89.9806 55.5399 88.6906C55.5399 87.8706 55.5399 87.0506 55.5399 86.2306C55.5399 85.8206 55.3999 84.5806 55.6299 84.2306V84.1306C55.6814 84.1981 55.7506 84.25 55.8299 84.2806C56.0852 84.4954 56.3017 84.7524 56.4699 85.0406C56.8016 85.5506 57.0797 86.0935 57.2999 86.6606C57.7999 87.8606 58.1799 89.1006 58.5999 90.3206C59.5999 93.1306 60.5299 95.9406 61.4899 98.7406C61.5627 98.8898 61.6715 99.0186 61.8065 99.1152C61.9415 99.2119 62.0984 99.2734 62.2631 99.2943C62.4278 99.3151 62.5952 99.2946 62.75 99.2346C62.9048 99.1746 63.0422 99.077 63.1499 98.9506C64.3499 97.1906 66.4299 96.4306 68.3999 95.8506C70.7283 95.1692 73.1439 94.8323 75.5699 94.8506C76.0799 94.8506 76.5699 94.8506 77.1099 94.9306C76.1099 95.4906 75.1099 96.0206 74.1099 96.5706L67.3499 100.241C66.2599 100.831 67.0199 102.611 68.1099 102.011L77.2699 97.0106C78.1999 96.5006 79.7699 95.9206 79.8199 94.6406C79.8699 93.3606 78.4799 93.1606 77.4599 93.0806Z" fill="black"/>
<path d="M73.5991 98.1099C73.3709 97.9974 73.1083 97.9761 72.8649 98.0504C72.6215 98.1247 72.4156 98.289 72.2891 98.5099C72.1766 98.7382 72.1553 99.0007 72.2297 99.2441C72.304 99.4875 72.4683 99.6935 72.6891 99.82L72.8291 99.9499C72.7291 99.8399 72.9291 100.12 72.9591 100.15V100.21C72.9543 100.233 72.9543 100.257 72.9591 100.28C73.0017 100.397 73.0351 100.518 73.0591 100.64V100.71C73.0591 100.79 73.0591 100.87 73.0591 100.95C73.0591 101.03 73.0591 101.2 73.0591 101.32C73.0237 101.576 72.9737 101.83 72.9091 102.08C72.6196 103.15 72.1532 104.164 71.5291 105.08C71.4158 105.307 71.393 105.569 71.4654 105.812C71.5378 106.055 71.7 106.262 71.9191 106.39C72.1474 106.502 72.41 106.524 72.6534 106.449C72.8968 106.375 73.1027 106.211 73.2291 105.99C74.7891 103.87 76.3291 99.9199 73.5991 98.1099Z" fill="black"/>
<path d="M76.6683 104.37C76.2183 103.28 75.5783 102.11 74.2383 102.13C74.0281 102.195 73.8452 102.327 73.7178 102.507C73.5904 102.686 73.5257 102.902 73.5337 103.122C73.5417 103.342 73.6219 103.553 73.7619 103.722C73.902 103.892 74.094 104.011 74.3083 104.06C74.4083 104.06 74.6083 104.47 74.6583 104.58C74.8525 104.981 75.0163 105.395 75.1483 105.82C75.4874 106.731 75.5534 107.722 75.3383 108.67C74.9083 110.31 73.4383 111.5 72.2083 112.56C72.0406 112.752 71.9523 113 71.9616 113.255C71.9709 113.51 72.077 113.751 72.2583 113.93C72.4432 114.102 72.6861 114.197 72.9383 114.197C73.1905 114.197 73.4334 114.102 73.6183 113.93C75.3683 112.42 77.1383 110.7 77.3683 108.27C77.4606 106.932 77.2201 105.592 76.6683 104.37Z" fill="black"/>
<path d="M86.6092 76.7201C86.4192 76.5524 86.1726 76.463 85.9192 76.4701C85.7402 76.4943 85.5692 76.5594 85.4192 76.6601C85.2955 76.5971 85.158 76.5662 85.0192 76.5702C84.7596 76.5844 84.5157 76.6991 84.3392 76.8901C84.2534 76.9825 84.1871 77.0912 84.1441 77.2097C84.1012 77.3283 84.0825 77.4542 84.0892 77.5801C84.1283 77.9553 84.1986 78.3266 84.2992 78.6902C84.2992 78.8402 84.3892 78.9802 84.4492 79.1302C84.5172 79.3313 84.6043 79.5255 84.7092 79.7101C84.8831 79.9815 85.1496 80.1805 85.4592 80.2701C85.6958 80.3228 85.9432 80.2966 86.1635 80.1955C86.3838 80.0943 86.5649 79.9239 86.6792 79.7101C86.7962 79.4673 86.8512 79.1994 86.8392 78.9301V78.4601L86.8992 77.4001C86.893 77.1447 86.7892 76.9014 86.6092 76.7201Z" fill="white"/>
<path d="M75.7399 77.04C75.226 77.1268 74.6978 77.0388 74.2399 76.79C73.9802 76.8042 73.7363 76.919 73.5599 77.11C73.4743 77.2006 73.4081 77.3075 73.3651 77.4244C73.3221 77.5413 73.3033 77.6657 73.3099 77.79C73.4211 78.5946 73.6467 79.3793 73.9799 80.1201C74.0483 80.2752 74.143 80.4172 74.2599 80.54C74.417 80.6763 74.6128 80.7602 74.8199 80.78C75.0098 80.7918 75.1991 80.7491 75.3656 80.657C75.5321 80.5649 75.6689 80.4271 75.7599 80.26C76.1871 79.5372 76.3629 78.6933 76.2599 77.86C76.25 77.6904 76.197 77.5262 76.1061 77.3827C76.0151 77.2392 75.889 77.1213 75.7399 77.04Z" fill="white"/>
<path d="M88.9785 74.8304C82.6117 76.7195 75.8295 76.6917 69.4785 74.7504C68.2785 74.3904 67.8685 76.2804 69.0585 76.6404C75.7481 78.6454 82.8788 78.6454 89.5685 76.6404C89.7399 76.5163 89.8675 76.341 89.933 76.1398C89.9985 75.9385 89.9984 75.7217 89.9328 75.5205C89.8672 75.3193 89.7395 75.1441 89.568 75.0201C89.3965 74.8961 89.1901 74.8296 88.9785 74.8304Z" fill="black"/>
<path d="M69.3686 73.5405C69.1402 73.4318 68.8791 73.4136 68.6379 73.4897C68.3967 73.5657 68.1933 73.7304 68.0686 73.9505C67.2672 75.4883 66.9203 77.2227 67.0686 78.9505C67.035 79.1002 67.0363 79.2556 67.0724 79.4048C67.1085 79.5539 67.1784 79.6926 67.2768 79.8104C67.3751 79.9282 67.4992 80.0217 67.6395 80.0838C67.7798 80.1459 67.9325 80.175 68.0858 80.1686C68.239 80.1623 68.3888 80.1207 68.5235 80.0472C68.6581 79.9737 68.7741 79.8702 68.8623 79.7447C68.9506 79.6192 69.0088 79.475 69.0324 79.3235C69.056 79.1719 69.0445 79.0169 68.9986 78.8705C68.9736 78.5009 68.9736 78.13 68.9986 77.7605C68.9936 77.7139 68.9936 77.6671 68.9986 77.6205C68.9942 77.5439 68.9942 77.4671 68.9986 77.3905C68.9986 77.2005 69.0586 77.0005 69.0986 76.8105C69.1753 76.4553 69.2721 76.1047 69.3886 75.7605C69.3924 75.7306 69.3924 75.7004 69.3886 75.6705L69.4986 75.4005C69.5786 75.2205 69.6686 75.0405 69.7586 74.8705C69.878 74.6414 69.9041 74.3749 69.8314 74.127C69.7587 73.879 69.5928 73.6689 69.3686 73.5405Z" fill="black"/>
<path d="M77.2491 76.2502C76.9993 76.2044 76.7414 76.2555 76.5279 76.3929C76.3143 76.5303 76.161 76.7439 76.0991 76.9902C76.0058 77.3702 75.8958 77.7502 75.7691 78.1302V78.2101V78.2701L75.6791 78.5101C75.5991 78.7001 75.5191 78.8902 75.4291 79.0702C75.2591 79.4202 75.0791 79.7502 74.8791 80.0702C74.856 80.1124 74.8292 80.1526 74.7991 80.1902C74.6691 79.8202 74.5391 79.4402 74.4291 79.0702C74.3191 78.7002 74.1891 78.2302 74.0891 77.8102C74.0891 77.5802 73.9791 77.3502 73.9391 77.1202L73.8791 76.8301V76.7402C73.884 76.6903 73.884 76.64 73.8791 76.5902C73.8614 76.3373 73.7482 76.1005 73.5626 75.9279C73.3769 75.7552 73.1326 75.6595 72.8791 75.6602C72.4191 75.6602 71.8791 76.1302 71.9591 76.6602C72.1366 77.7664 72.3905 78.8591 72.7191 79.9302C73.0491 80.9302 73.4291 82.6301 74.8191 82.5201C75.1476 82.4654 75.4587 82.3347 75.7278 82.1386C75.9969 81.9424 76.2165 81.6861 76.3691 81.3901C77.1835 80.1751 77.7635 78.8184 78.0791 77.3901C78.1194 77.129 78.0548 76.8626 77.8993 76.649C77.7437 76.4354 77.51 76.292 77.2491 76.2502Z" fill="black"/>
<path d="M87.4987 75.3701C87.2468 75.3693 87.0038 75.4636 86.8184 75.6342C86.633 75.8047 86.5188 76.039 86.4987 76.2901C86.479 76.6852 86.4389 77.0791 86.3787 77.4701C86.3787 77.4701 86.3787 77.5301 86.3787 77.5601C86.3815 77.58 86.3815 77.6002 86.3787 77.6201C86.3787 77.7001 86.3787 77.7901 86.3787 77.8701L86.2287 78.4701C86.1187 78.8401 85.9987 79.2001 85.8587 79.5501L85.7987 79.6901C85.5987 79.3401 85.4187 78.9901 85.2387 78.6901C85.0587 78.3901 84.8587 77.9101 84.6887 77.5101C84.5987 77.2901 84.5187 77.0701 84.4287 76.8601L84.2487 76.5401V76.4601V76.4001C84.0354 76.5508 83.799 76.6656 83.5487 76.7401C83.1765 76.8691 82.7802 76.9135 82.3887 76.8701C82.7369 77.8973 83.1545 78.8996 83.6387 79.8701C84.1287 80.8701 84.7887 82.4001 86.1387 82.0701C86.4523 81.9573 86.7361 81.7743 86.9683 81.5351C87.2005 81.2959 87.3751 81.007 87.4787 80.6901C87.6714 80.265 87.8351 79.8274 87.9687 79.3801C88.2611 78.4318 88.4357 77.4511 88.4887 76.4601C88.5011 76.3222 88.4848 76.1833 88.4408 76.0521C88.3968 75.9208 88.326 75.8002 88.233 75.6978C88.1399 75.5953 88.0266 75.5133 87.9002 75.4569C87.7738 75.4005 87.6371 75.3709 87.4987 75.3701Z" fill="black"/>
<path d="M74.4489 112.89C65.855 112.587 57.4764 110.121 50.0889 105.72C49.0189 105.08 48.0889 106.79 49.1789 107.42C56.5182 111.77 64.8 114.281 73.3189 114.74C72.1189 120.46 71.0722 126.207 70.1789 131.98C69.9989 133.19 69.5189 135.88 69.4989 136.05C69.0889 140.24 67.4189 144.92 64.3489 147.95C61.1289 151.15 56.2889 152.01 51.9189 151.43C47.7089 150.86 43.2989 149.1 40.9889 145.35C38.6789 141.6 38.5089 136.54 38.7289 132.13C39.0339 126.504 40.1939 120.957 42.1689 115.68C42.6189 114.47 40.6689 114.02 40.1689 115.21C38.206 120.519 37.04 126.09 36.7089 131.74C36.4189 136.65 36.5689 142.09 39.2389 146.41C41.7589 150.48 46.4089 152.6 50.9989 153.31C55.7589 154.05 60.9989 153.31 64.7689 150.2C68.5389 147.09 70.6189 141.96 71.2989 137.12C71.2989 137.12 71.2989 137.07 71.2989 137.04C72.3789 129.34 73.7122 121.673 75.2989 114.04C75.3201 113.909 75.3149 113.774 75.2835 113.645C75.252 113.515 75.1951 113.393 75.1159 113.286C75.0367 113.179 74.9369 113.089 74.8224 113.021C74.7078 112.953 74.5808 112.908 74.4489 112.89Z" fill="black"/>
<path d="M82.4592 129.05C80.1849 124.901 78.9335 120.269 78.8092 115.54C78.7999 115.275 78.6857 115.024 78.4916 114.843C78.2975 114.662 78.0394 114.566 77.7742 114.575C77.509 114.584 77.2583 114.698 77.0774 114.893C76.8964 115.087 76.7999 115.345 76.8092 115.61C76.9677 120.693 78.3391 125.664 80.8092 130.11C81.3892 131.24 83.0792 130.18 82.4592 129.05Z" fill="black"/>
<path d="M83.9997 131.36C83.6097 130.602 83.144 129.885 82.6097 129.22C82.4626 129.008 82.2474 128.853 81.9997 128.78C81.8692 128.749 81.7338 128.745 81.6015 128.767C81.4692 128.789 81.3428 128.838 81.2297 128.91C81.0872 129.014 80.9706 129.149 80.889 129.305C80.8075 129.461 80.7632 129.634 80.7597 129.81C80.7494 129.883 80.7494 129.957 80.7597 130.03C80.7 131.521 81.0903 132.995 81.8797 134.26C82.0261 134.487 82.2198 134.68 82.4477 134.825C82.6755 134.97 82.9321 135.064 83.1997 135.1C83.5283 135.125 83.8548 135.03 84.1192 134.834C84.3837 134.637 84.5685 134.352 84.6397 134.03C84.7726 133.091 84.5439 132.137 83.9997 131.36Z" fill="black"/>
<path d="M90.8799 127.01C90.1795 126.527 89.4324 126.115 88.6499 125.78C88.4199 125.658 88.1538 125.623 87.8999 125.68C87.7704 125.713 87.6488 125.772 87.5423 125.852C87.4358 125.933 87.3466 126.034 87.2799 126.15C87.2024 126.305 87.1621 126.476 87.1621 126.65C87.1621 126.824 87.2024 126.995 87.2799 127.15C87.2926 127.226 87.3162 127.3 87.3499 127.37C88.0008 128.72 89.0472 129.839 90.3499 130.58C90.5866 130.709 90.8476 130.787 91.1162 130.809C91.3848 130.832 91.6551 130.798 91.9099 130.71C92.2124 130.576 92.4565 130.337 92.5978 130.038C92.7392 129.739 92.7683 129.399 92.6799 129.08C92.3603 128.189 91.7179 127.45 90.8799 127.01Z" fill="black"/>
<path d="M89.0885 125.9C86.7854 122.655 85.375 118.862 84.9985 114.9C84.8885 113.62 82.8885 113.68 82.9985 114.96C83.3849 119.276 84.8988 123.414 87.3885 126.96C88.1285 128.01 89.8285 126.96 89.0885 125.9Z" fill="black"/>
<path d="M54.7089 16.3999C54.5775 16.389 54.4452 16.4042 54.3197 16.4445C54.1942 16.4849 54.0779 16.5497 53.9775 16.6352C53.8771 16.7208 53.7946 16.8253 53.7348 16.9428C53.675 17.0603 53.639 17.1885 53.6289 17.3199C53.0622 21.0133 52.5789 24.7133 52.1789 28.4199C52.0389 29.6999 54.0389 29.85 54.1789 28.57C54.5789 24.8633 55.0656 21.1666 55.6389 17.4799C55.6498 17.3478 55.6343 17.2147 55.5933 17.0886C55.5523 16.9624 55.4866 16.8457 55.4 16.7452C55.3135 16.6447 55.2078 16.5624 55.0892 16.5031C54.9705 16.4439 54.8412 16.4088 54.7089 16.3999Z" fill="white"/>
<path d="M62.7195 19.8402C62.5181 19.0519 62.1111 18.3311 61.5402 17.7514C60.9692 17.1716 60.2547 16.7537 59.4695 16.5403C57.4695 16.0503 55.6095 16.7803 53.8595 17.6803C53.7795 18.4203 53.7295 19.1503 53.6795 19.8903C53.8496 19.8959 54.0182 19.858 54.1695 19.7802C55.6795 18.9602 57.5995 17.8503 59.3495 18.6003C59.9327 18.9073 60.3986 19.3979 60.6752 19.9961C60.9517 20.5944 61.0235 21.2671 60.8795 21.9103C60.6986 22.63 60.3598 23.3004 59.8876 23.873C59.4154 24.4455 58.8217 24.9057 58.1495 25.2203C56.5478 25.957 54.8025 26.3293 53.0395 26.3102L52.7695 28.3103C56.2195 28.1803 60.0495 27.5002 62.0195 24.3102C62.4424 23.6556 62.7233 22.9195 62.8438 22.1495C62.9644 21.3796 62.9221 20.5928 62.7195 19.8402Z" fill="white"/>
<path d="M76.8898 23.5401C74.8165 20.0134 72.8365 16.4301 70.9498 12.7901C70.8627 12.6136 70.7256 12.4667 70.5554 12.3678C70.3853 12.269 70.1897 12.2225 69.9933 12.2342C69.7968 12.2459 69.6082 12.3154 69.4511 12.4338C69.2939 12.5523 69.1752 12.7145 69.1098 12.9001L64.5198 24.8101C64.0498 26.0101 65.9398 26.6701 66.3998 25.4701C67.6731 22.1901 68.9398 18.9101 70.1998 15.6301C71.7798 18.6301 73.3998 21.5301 75.0898 24.4301C75.7398 25.5401 77.5398 24.6201 76.8898 23.5401Z" fill="white"/>
<path d="M72.8589 19.5405C70.652 19.8158 68.4801 20.3219 66.3789 21.0505C66.2593 21.1081 66.1523 21.1889 66.0642 21.2882C65.9762 21.3876 65.9088 21.5035 65.8659 21.6291C65.8231 21.7548 65.8058 21.8877 65.8148 22.0201C65.8239 22.1526 65.8593 22.2819 65.9189 22.4005C66.037 22.6378 66.2445 22.8185 66.4958 22.9029C66.747 22.9872 67.0215 22.9684 67.2589 22.8505C69.2082 22.1991 71.2185 21.7468 73.2589 21.5005C73.3884 21.4765 73.5119 21.4272 73.6222 21.3553C73.7326 21.2834 73.8277 21.1904 73.902 21.0817C73.9763 20.973 74.0285 20.8507 74.0554 20.7218C74.0823 20.5929 74.0835 20.4599 74.0589 20.3305C74.034 20.1989 73.9828 20.0735 73.9085 19.962C73.8342 19.8505 73.7382 19.755 73.6263 19.6813C73.5143 19.6076 73.3887 19.5572 73.2569 19.533C73.1251 19.5088 72.9897 19.5114 72.8589 19.5405Z" fill="white"/>
<path d="M84.6396 11.0599C83.6396 10.4499 82.7496 10.6499 81.3496 10.9999C79.7847 11.7388 78.574 13.0645 77.9796 14.6899C77.5264 15.9464 77.3028 17.2742 77.3196 18.6099C77.2507 20.0051 77.5765 21.3914 78.2596 22.6099C79.8296 25.0499 82.8396 25.1599 85.0696 23.5299C87.2996 21.8999 87.7196 18.8299 87.6196 16.8499C87.4796 13.8999 86.5496 12.2499 84.6396 11.0599ZM84.6396 21.2599C83.6396 22.4899 81.5196 23.3899 80.2696 21.9699C79.0196 20.5499 79.1796 18.0299 79.5896 16.2999C79.9996 14.5699 81.4496 12.0398 83.4096 12.5898C85.7796 13.2698 86.7296 18.7499 84.6196 21.2599H84.6396Z" fill="white"/>
<path d="M63.2501 64.8799C61.0009 65.3974 58.7134 65.7318 56.4101 65.8799C56.1449 65.913 55.9037 66.0501 55.7396 66.2611C55.5755 66.4721 55.502 66.7396 55.5351 67.0049C55.5683 67.2701 55.7054 67.5112 55.9164 67.6753C56.1274 67.8394 56.3949 67.913 56.6601 67.8799C58.9639 67.7367 61.2518 67.4022 63.5001 66.8799C63.7625 66.845 64.0004 66.7075 64.1616 66.4976C64.3228 66.2876 64.3942 66.0223 64.3601 65.7598C64.3452 65.629 64.3047 65.5025 64.2408 65.3875C64.1769 65.2724 64.0909 65.1711 63.9878 65.0894C63.8847 65.0076 63.7664 64.9471 63.6399 64.9111C63.5133 64.8751 63.3808 64.8645 63.2501 64.8799Z" fill="black"/>
<path d="M100.248 53.5403C99.615 52.8576 98.8379 52.3241 97.9733 51.9782C97.1086 51.6323 96.1779 51.4828 95.2484 51.5403C93.0358 51.7463 90.9405 52.6298 89.2484 54.0704C89.1355 54.1523 89.0411 54.257 88.971 54.3776C88.901 54.4983 88.857 54.6322 88.8419 54.7709C88.8267 54.9095 88.8407 55.0498 88.883 55.1827C88.9253 55.3157 88.9949 55.4383 89.0874 55.5427C89.1799 55.6471 89.2932 55.731 89.4201 55.789C89.5469 55.847 89.6845 55.8778 89.824 55.8795C89.9635 55.8811 90.1018 55.8536 90.23 55.7986C90.3582 55.7437 90.4734 55.6625 90.5684 55.5604C91.8639 54.4681 93.4474 53.7736 95.1284 53.5604C95.7894 53.4915 96.4574 53.5746 97.0813 53.8033C97.7052 54.0321 98.2686 54.4005 98.7284 54.8804C98.9061 55.0819 99.1566 55.2046 99.4248 55.2215C99.6929 55.2384 99.9569 55.148 100.158 54.9703C100.36 54.7926 100.483 54.5422 100.5 54.274C100.516 54.0058 100.426 53.7419 100.248 53.5403Z" fill="black"/>
<path d="M126.619 123.6C122.47 116.335 117.791 109.386 112.619 102.81C111.829 101.81 110.129 102.86 110.919 103.88C116.094 110.45 120.774 117.396 124.919 124.66C125.559 125.78 127.249 124.72 126.619 123.6Z" fill="black"/>
<path d="M107.839 136.24C106.319 131.79 105.009 127.24 103.909 122.69C103.609 121.44 101.699 122.03 101.999 123.28C103.099 127.86 104.409 132.38 105.929 136.84C106.349 138.05 108.249 137.47 107.839 136.24Z" fill="black"/>
<path d="M26.7088 68.3799C26.7665 66.8447 27.0704 65.3287 27.6088 63.8899C27.9889 62.6526 28.5774 61.4892 29.3488 60.4499C29.143 60.3559 28.9236 60.2951 28.6988 60.2699C27.1088 60.2231 25.5176 60.2967 23.9388 60.4899C23.1229 60.5807 22.2973 60.4637 21.5388 60.1499C20.8407 59.9807 20.1971 59.6366 19.6688 59.1499C18.82 58.2003 18.2612 57.0273 18.0588 55.7699C17.2188 52.0499 16.8188 48.2399 15.6488 44.5999C15.569 44.3169 15.5659 44.0177 15.6397 43.7331C15.7135 43.4484 15.8616 43.1885 16.0688 42.9799C15.7408 42.4628 15.2248 42.0934 14.6295 41.9497C14.0343 41.806 13.4065 41.8993 12.8788 42.2099C11.6943 42.9175 10.7099 43.9157 10.0188 45.1099C9.18457 46.3188 8.47432 47.6086 7.89879 48.9599C5.62879 54.1099 5.89878 58.8999 5.52878 64.4499C5.34878 67.6299 4.89878 72.0299 7.58878 74.1599C9.95878 76.0399 13.4488 76.7099 16.3488 77.2699C18.2345 77.6395 20.1416 77.89 22.0588 78.0199C23.9088 78.1299 25.6888 77.8299 26.1688 75.7699C26.6488 73.7099 26.9688 71.8899 27.2788 69.9199C26.9166 69.4878 26.7152 68.9437 26.7088 68.3799Z" fill="#C4D502"/>
<path d="M14.5495 41.6999C14.3047 41.6527 14.0526 41.6595 13.8108 41.72C13.5689 41.7805 13.3433 41.8931 13.1495 42.05C12.8915 41.9671 12.6166 41.9512 12.3508 42.0037C12.0849 42.0562 11.8367 42.1753 11.6295 42.3499C10.8728 43.0495 10.3198 43.9411 10.0295 44.93C9.66951 45.93 9.34951 47.01 9.02951 48.06C8.42567 50.2495 7.95481 52.4735 7.61951 54.7199C7.61229 55.0459 7.71076 55.3654 7.90018 55.6308C8.08961 55.8961 8.35983 56.093 8.67044 56.192C8.98106 56.2911 9.31538 56.2869 9.62344 56.1802C9.93149 56.0735 10.1967 55.8699 10.3795 55.5999L11.6695 53.07C11.8395 53.79 12.0395 54.4999 12.2795 55.1999C12.422 55.793 12.778 56.3128 13.2795 56.6599C13.5787 56.8493 13.9255 56.9498 14.2795 56.9498C14.6336 56.9498 14.9803 56.8493 15.2795 56.6599C16.2795 55.9999 16.3695 54.6599 16.4695 53.6599C16.5962 51.6377 16.5728 49.6088 16.3995 47.5899C16.3295 46.4899 16.2795 45.3799 16.2095 44.2699C16.1395 43.1599 15.8195 41.8899 14.5495 41.6999Z" fill="#FCFA9C"/>
<path d="M26.8794 75.0101C26.6883 74.9218 26.4798 74.8774 26.2694 74.8801C20.5494 74.8801 12.5994 73.7801 9.71936 71.1901C8.62936 70.1901 8.71936 68.4401 8.45936 66.9201C8.01936 64.4101 7.45936 59.5601 7.90936 57.0101C8.11936 55.7401 6.33936 57.8301 6.12936 59.1001C5.78209 62.005 5.9377 64.948 6.58936 67.8001C6.7128 68.5088 6.8764 69.2099 7.07936 69.9001C6.79036 69.8047 6.47836 69.8047 6.18936 69.9001C6.30936 70.2901 6.42936 70.6701 6.56936 71.0501V71.1201C6.56936 71.2401 6.65936 71.3501 6.69936 71.4601L6.99936 72.2001C7.15936 72.6001 7.32936 73.0001 7.49936 73.4101C8.14936 73.7301 8.81936 74.0301 9.49936 74.3201C9.71936 74.5601 9.95936 74.8101 10.2094 75.0501C10.2822 75.1267 10.3699 75.1876 10.467 75.2293C10.5641 75.2709 10.6687 75.2924 10.7744 75.2924C10.88 75.2924 10.9846 75.2709 11.0817 75.2293C11.1789 75.1876 11.2665 75.1267 11.3394 75.0501C16.0631 76.8575 21.0719 77.8057 26.1294 77.8501C26.4474 77.8588 26.7597 77.764 27.0194 77.5801C26.8846 76.7305 26.8377 75.8693 26.8794 75.0101Z" fill="#92B102"/>
<path d="M26.939 76.8403C24.1894 76.7972 21.4462 76.5633 18.729 76.1403C15.879 75.6803 12.579 75.2104 10.019 73.8004C7.28901 72.3104 7.01901 69.2704 7.01901 66.4404C7.00033 63.7235 7.18754 61.009 7.57901 58.3204C7.90614 55.7282 8.45481 53.1688 9.21901 50.6704C9.95901 48.2904 10.889 45.3103 12.569 43.4003C14.069 41.7003 15.099 43.8804 15.339 45.2404C15.579 46.6004 15.749 48.0004 15.969 49.3804C16.439 52.2304 16.969 55.0903 17.619 57.9003C17.6916 58.4448 17.8734 58.9691 18.1535 59.4417C18.4335 59.9142 18.8062 60.3253 19.249 60.6503C20.2248 61.1666 21.2846 61.5052 22.379 61.6503C24.3346 62.0338 26.3272 62.1948 28.319 62.1304C28.6656 61.3796 29.1279 60.6877 29.689 60.0803C27.8759 60.2302 26.052 60.1833 24.249 59.9404C22.869 59.7504 20.329 59.6203 19.689 58.1503C19.4135 57.3041 19.2193 56.4335 19.109 55.5504C18.909 54.6104 18.719 53.6603 18.539 52.7203C18.2057 50.9803 17.9023 49.237 17.629 47.4904C17.269 45.1104 17.189 41.6403 14.349 40.8303C11.509 40.0203 10.159 43.1503 9.20901 45.0903C6.87016 50.3003 5.51406 55.8976 5.20901 61.6003C4.81998 64.6487 4.90769 67.739 5.46901 70.7603C5.76031 72.0031 6.36562 73.1503 7.22703 74.0923C8.08845 75.0342 9.17716 75.7394 10.389 76.1403C13.0661 77.1012 15.8387 77.7718 18.659 78.1403C21.4354 78.5732 24.2392 78.8071 27.049 78.8403C26.9932 78.6451 26.963 78.4434 26.959 78.2404C26.919 77.7604 26.919 77.3003 26.939 76.8403Z" fill="black"/>
<path d="M27.0788 67.2401C27.3188 66.3801 27.5888 65.5401 27.9088 64.7101C29.0097 61.9628 30.2891 59.2904 31.7388 56.7101C32.4388 55.6201 30.7388 54.6201 30.0088 55.7101C27.8861 59.3251 26.2073 63.1829 25.0088 67.2001C24.7388 68.2001 24.0088 70.2001 25.0088 71.0101C25.1718 71.1621 25.3779 71.2599 25.5988 71.2901C25.0088 74.0501 25.0388 79.8801 25.8988 82.5901C26.2788 83.8101 28.2088 83.2901 27.8188 82.0601C26.8893 78.0351 26.9786 73.8418 28.0788 69.8601C28.1214 69.7084 28.1276 69.5488 28.0969 69.3942C28.0661 69.2397 27.9993 69.0946 27.9018 68.9708C27.8043 68.847 27.6789 68.7479 27.5359 68.6818C27.3929 68.6156 27.2363 68.5842 27.0788 68.5901C26.9626 68.5752 26.845 68.5752 26.7288 68.5901C26.8388 68.1501 26.9588 67.6901 27.0788 67.2401Z" fill="black"/>
</svg>
